<svg xmlns="http://www.w3.org/2000/svg" xmlns:xlink="http://www.w3.org/1999/xlink" width="100.977" height="122.6" viewBox="0 0 100.977 122.6">
  <defs>
    <clipPath id="clip-path">
      <rect id="Rectangle_11" data-name="Rectangle 11" width="37.372" height="39.195" fill="none"/>
    </clipPath>
  </defs>
  <g id="Group_118802" data-name="Group 118802" transform="translate(-346.335 -110.106)">
    <g id="Group_41" data-name="Group 41" transform="translate(346.335 110.106)">
      <g id="Group_36" data-name="Group 36" transform="translate(0 0)">
        <circle id="Ellipse_2" data-name="Ellipse 2" cx="35.701" cy="35.701" r="35.701" transform="translate(0 50.488) rotate(-45)" fill="#ffe9e9"/>
        <g id="Group_17" data-name="Group 17" transform="translate(5.676 77)">
          <g id="Group_16" data-name="Group 16">
            <path id="Path_7" data-name="Path 7" d="M376.987,331.057l.078.032a.58.58,0,0,0,.629-.13l13.581-13.7a.58.58,0,0,0,.125-.631l-.033-.078Z" transform="translate(-370.241 -309.89)" fill="#00ccbe"/>
            <path id="Path_8" data-name="Path 8" d="M373.581,328.343l0,0a.564.564,0,0,0,.691-.088l14.278-14.4a.565.565,0,0,0,.081-.692l0,0Z" transform="translate(-368.215 -307.873)" fill="#00ccbe"/>
            <path id="Path_9" data-name="Path 9" d="M370.553,325.7c.113.091.228.18.346.267L386.24,310.5c-.087-.117-.178-.231-.269-.344Z" transform="translate(-366.414 -306.083)" fill="#00ccbe"/>
            <path id="Path_10" data-name="Path 10" d="M385.226,336.758q.16.013.322.021a.576.576,0,0,0,.437-.171l10.978-11.071a.575.575,0,0,0,.168-.438q-.01-.162-.025-.322Z" transform="translate(-375.141 -314.78)" fill="#00ccbe"/>
            <path id="Path_11" data-name="Path 11" d="M397.086,343.152a10.847,10.847,0,0,0,1-.438.6.6,0,0,0,.158-.114l4.747-4.787a.605.605,0,0,0,.113-.158,10.9,10.9,0,0,0,.429-1Z" transform="translate(-382.195 -321.842)" fill="#00ccbe"/>
            <path id="Path_12" data-name="Path 12" d="M380.829,333.854l.184.045a.58.58,0,0,0,.541-.16l12.521-12.627a.582.582,0,0,0,.156-.542q-.023-.092-.046-.184Z" transform="translate(-372.526 -312.169)" fill="#00ccbe"/>
            <path id="Path_13" data-name="Path 13" d="M390.393,339.809c.176-.019.351-.043.525-.071a.581.581,0,0,0,.32-.166l8.708-8.781a.583.583,0,0,0,.163-.321c.026-.174.049-.349.066-.526Z" transform="translate(-378.214 -317.853)" fill="#00ccbe"/>
            <path id="Path_14" data-name="Path 14" d="M365.527,320.613q.129.177.265.348l15.4-15.526c-.115-.09-.231-.178-.35-.263Z" transform="translate(-363.425 -303.12)" fill="#00ccbe"/>
            <path id="Path_15" data-name="Path 15" d="M360.734,309.085a.582.582,0,0,0-.162.313q-.044.269-.077.543l9.56-9.641c-.182.023-.363.05-.543.081a.579.579,0,0,0-.311.165Z" transform="translate(-360.432 -300.223)" fill="#00ccbe"/>
            <path id="Path_16" data-name="Path 16" d="M362.859,306.982a.6.6,0,0,0-.1.141,10.967,10.967,0,0,0-.506,1.09l6.049-6.1a11.039,11.039,0,0,0-1.086.515.6.6,0,0,0-.14.106Z" transform="translate(-361.476 -301.301)" fill="#00ccbe"/>
            <path id="Path_17" data-name="Path 17" d="M360.509,311.194a.573.573,0,0,0-.168.43c0,.112.012.224.02.335l11.733-11.832c-.111-.008-.223-.013-.335-.018a.576.576,0,0,0-.428.172Z" transform="translate(-360.34 -300.109)" fill="#00ccbe"/>
            <path id="Path_18" data-name="Path 18" d="M362.352,315.672a.577.577,0,0,0-.13.621l.036.089,14.306-14.427-.089-.036a.578.578,0,0,0-.62.135Z" transform="translate(-361.435 -301.162)" fill="#00ccbe"/>
            <path id="Path_19" data-name="Path 19" d="M364.044,318.071a.567.567,0,0,0-.085.688l0,.009,15.005-15.132h0a.58.58,0,0,0-.7.093Z" transform="translate(-362.446 -302.16)" fill="#00ccbe"/>
            <path id="Path_20" data-name="Path 20" d="M383.372,307.491l-15.5,15.633q.15.156.306.307l15.506-15.637C383.581,307.691,383.477,307.59,383.372,307.491Z" transform="translate(-364.819 -304.499)" fill="#00ccbe"/>
            <path id="Path_21" data-name="Path 21" d="M361.124,313.373a.581.581,0,0,0-.157.536c.015.064.03.129.045.192l13.248-13.359-.193-.044a.583.583,0,0,0-.535.162Z" transform="translate(-360.705 -300.451)" fill="#00ccbe"/>
          </g>
        </g>
        <circle id="Ellipse_3" data-name="Ellipse 3" cx="3.19" cy="3.19" r="3.19" transform="translate(72.213 82.543)" fill="#ffe9e9"/>
        <rect id="Rectangle_4" data-name="Rectangle 4" width="46.031" height="68.971" transform="translate(19.041 34.841)" fill="#f0c27a"/>
        <g id="Group_26" data-name="Group 26" transform="translate(21.472 32.106)">
          <g id="Group_24" data-name="Group 24">
            <g id="Group_19" data-name="Group 19">
              <rect id="Rectangle_5" data-name="Rectangle 5" width="46.031" height="68.971" fill="#fff"/>
              <rect id="Rectangle_6" data-name="Rectangle 6" width="14.128" height="1.215" transform="translate(7.14 44.816)" fill="#00ccbe"/>
              <g id="Group_18" data-name="Group 18" transform="translate(7.14 51.538)">
                <rect id="Rectangle_7" data-name="Rectangle 7" width="34.03" height="1.215" fill="#94a3c0"/>
                <rect id="Rectangle_8" data-name="Rectangle 8" width="15.002" height="1.215" transform="translate(0 3.266)" fill="#94a3c0"/>
              </g>
              <rect id="Rectangle_9" data-name="Rectangle 9" width="5.165" height="1.215" transform="translate(7.14 47.246)" fill="#00ccbe"/>
            </g>
            <rect id="Rectangle_10" data-name="Rectangle 10" width="37.372" height="39.195" rx="4.592" transform="translate(4.33 3.342)" fill="#00ccbe"/>
            <g id="Group_23" data-name="Group 23" transform="translate(4.33 3.342)">
              <g id="Group_22" data-name="Group 22" clip-path="url(#clip-path)">
                <g id="Group_21" data-name="Group 21" transform="translate(0.986 2.75)">
                  <path id="Path_22" data-name="Path 22" d="M447.438,277.176c-.27-2.424-1.188-10.132-2.088-11.732-1.072-1.9-11.14-6.131-11.14-6.131l-4.316,2.74-4.331-2.716s-10.044,4.283-11.106,6.194c-.892,1.6-1.766,9.318-2.023,11.744Z" transform="translate(-412.435 -237.045)" fill="#2a3157"/>
                  <path id="Path_23" data-name="Path 23" d="M440.945,260.674l-2.076-1.3-4.062,8.521,3.385,3.659-2.045,3.087,2.934,2.633,2.92-.008Z" transform="translate(-425.741 -237.08)" fill="#505e83"/>
                  <path id="Path_24" data-name="Path 24" d="M460.454,260.623l2.068-1.313,4.109,8.5-3.364,3.677,2.063,3.075-2.919,2.649-2.92.008Z" transform="translate(-440.421 -237.043)" fill="#505e83"/>
                  <path id="Path_25" data-name="Path 25" d="M453.331,238.094s-1.01,5.942-.006,10.048a36.665,36.665,0,0,1-3.789,2.817l-.715.167a42.533,42.533,0,0,1-3.969-2.905,48.739,48.739,0,0,0,.035-10.1" transform="translate(-431.714 -224.425)" fill="#dc6457"/>
                  <g id="Group_20" data-name="Group 20" transform="translate(8.597)">
                    <path id="Path_26" data-name="Path 26" d="M438.924,207.531s8.377-5.124,11.675-2.336-1.05,7.078-1.05,7.078,1.317.325,1.4,1.394-2.049,2.885-2.049,2.885l-13.244.037s-2.232-3.942-1.991-5.835,1.892.077,1.892.077,1.8-4.283,2.621-4.285S438.924,207.531,438.924,207.531Z" transform="translate(-433.65 -204.364)" fill="#5d1111"/>
                    <path id="Path_27" data-name="Path 27" d="M469.207,234.553a1.186,1.186,0,0,1,1.551-.314c.87.556-.175,4.035-1.542,3.542S469.207,234.553,469.207,234.553Z" transform="translate(-454.44 -222.021)" fill="#ea5764"/>
                    <path id="Path_28" data-name="Path 28" d="M437.607,234.644a1.186,1.186,0,0,0-1.553-.306c-.868.561.2,4.034,1.561,3.534S437.607,234.644,437.607,234.644Z" transform="translate(-434.893 -222.078)" fill="#ea5764"/>
                    <path id="Path_29" data-name="Path 29" d="M445.76,211.507s4.42.439,5.718,3.593.947,9.322-.337,11.13a7.155,7.155,0,0,1-5.391,3.374h0a7.155,7.155,0,0,1-5.41-3.344c-1.294-1.8-1.679-7.966-.4-11.128s5.7-3.625,5.7-3.625Z" transform="translate(-436.925 -208.612)" fill="#f98879"/>
                    <path id="Path_30" data-name="Path 30" d="M454.458,242.631a2,2,0,0,0,1.428-.035,1.115,1.115,0,0,1-.5.56A.7.7,0,0,1,454.458,242.631Z" transform="translate(-446.025 -227.102)" fill="#ea5764"/>
                    <path id="Path_31" data-name="Path 31" d="M452.322,215.053s-4.515,3.138-7.808,2.407-.833-3.864-.833-3.864l-3.94,3.055a3.2,3.2,0,0,1-1.142,3.623,16.722,16.722,0,0,1-.178-4.689,8.04,8.04,0,0,1,2.291-4.449c.821-.66,3.86-2.314,5.835-2.073S452.556,210.281,452.322,215.053Z" transform="translate(-436.423 -207.145)" fill="#5d1111"/>
                  </g>
                  <path id="Path_32" data-name="Path 32" d="M448.558,262.053l-4.331-2.716-.411.178L446,277.232l5.064-.014,2.089-17.788-.276-.118Z" transform="translate(-431.099 -237.045)" fill="#f9fbfc"/>
                  <path id="Path_33" data-name="Path 33" d="M453.013,270.458l-1.021,2.277,1.616.8,1.317-1.1-1.033-2.051Z" transform="translate(-435.962 -243.628)" fill="#ff5776"/>
                  <path id="Path_34" data-name="Path 34" d="M451.71,286.4l3.75-.01-1.4-11.661-1.209.664Z" transform="translate(-435.794 -246.21)" fill="#ff5776"/>
                </g>
              </g>
            </g>
          </g>
          <g id="Group_25" data-name="Group 25" transform="translate(6.381 59.418)">
            <path id="Path_35" data-name="Path 35" d="M417.87,336.078l.492,1.514a.187.187,0,0,0,.178.129h1.592a.187.187,0,0,1,.11.339l-1.288.936a.188.188,0,0,0-.068.21l.492,1.514a.187.187,0,0,1-.288.21l-1.288-.936a.187.187,0,0,0-.22,0l-1.288.936a.187.187,0,0,1-.288-.21l.492-1.514a.188.188,0,0,0-.068-.21l-1.288-.936a.187.187,0,0,1,.11-.339h1.592a.188.188,0,0,0,.178-.129l.492-1.514A.187.187,0,0,1,417.87,336.078Z" transform="translate(-415.063 -335.949)" fill="#fdb913"/>
            <path id="Path_36" data-name="Path 36" d="M435.9,336.078l.492,1.514a.187.187,0,0,0,.178.129h1.592a.187.187,0,0,1,.11.339l-1.288.936a.188.188,0,0,0-.068.21l.492,1.514a.187.187,0,0,1-.288.21l-1.288-.936a.187.187,0,0,0-.22,0l-1.288.936a.187.187,0,0,1-.288-.21l.492-1.514a.188.188,0,0,0-.068-.21l-1.288-.936a.187.187,0,0,1,.11-.339h1.592a.187.187,0,0,0,.178-.129l.492-1.514A.187.187,0,0,1,435.9,336.078Z" transform="translate(-425.787 -335.949)" fill="#fdb913"/>
            <path id="Path_37" data-name="Path 37" d="M453.932,336.078l.492,1.514a.188.188,0,0,0,.178.129h1.592a.187.187,0,0,1,.11.339l-1.288.936a.188.188,0,0,0-.068.21l.492,1.514a.187.187,0,0,1-.288.21l-1.288-.936a.187.187,0,0,0-.22,0l-1.288.936a.188.188,0,0,1-.289-.21l.492-1.514a.188.188,0,0,0-.068-.21l-1.288-.936a.187.187,0,0,1,.11-.339h1.592a.187.187,0,0,0,.178-.129l.492-1.514A.187.187,0,0,1,453.932,336.078Z" transform="translate(-436.511 -335.949)" fill="#fdb913"/>
            <path id="Path_38" data-name="Path 38" d="M471.963,336.078l.492,1.514a.187.187,0,0,0,.178.129h1.592a.187.187,0,0,1,.11.339l-1.288.936a.188.188,0,0,0-.068.21l.492,1.514a.187.187,0,0,1-.288.21l-1.288-.936a.187.187,0,0,0-.22,0l-1.288.936a.187.187,0,0,1-.288-.21l.492-1.514a.188.188,0,0,0-.068-.21l-1.288-.936a.187.187,0,0,1,.11-.339h1.592a.187.187,0,0,0,.178-.129l.492-1.514A.187.187,0,0,1,471.963,336.078Z" transform="translate(-447.235 -335.949)" fill="#fdb913"/>
            <path id="Path_39" data-name="Path 39" d="M489.995,336.078l.492,1.514a.187.187,0,0,0,.178.129h1.592a.187.187,0,0,1,.11.339l-1.288.936a.187.187,0,0,0-.068.21l.492,1.514a.188.188,0,0,1-.289.21l-1.288-.936a.187.187,0,0,0-.22,0l-1.288.936a.187.187,0,0,1-.288-.21l.492-1.514a.188.188,0,0,0-.068-.21l-1.288-.936a.187.187,0,0,1,.11-.339h1.592a.188.188,0,0,0,.178-.129l.492-1.514A.187.187,0,0,1,489.995,336.078Z" transform="translate(-457.959 -335.949)" fill="#fdb913"/>
          </g>
        </g>
        <g id="Group_27" data-name="Group 27" transform="translate(8.996 35.657)">
          <rect id="Rectangle_12" data-name="Rectangle 12" width="2.431" height="2.431" transform="translate(1.747)" fill="#2a3157"/>
          <rect id="Rectangle_13" data-name="Rectangle 13" width="1.253" height="1.253" transform="translate(6.665 5.26)" fill="#2a3157"/>
          <rect id="Rectangle_14" data-name="Rectangle 14" width="0.912" height="0.912" transform="translate(0 3.418)" fill="#2a3157"/>
        </g>
        <g id="Group_28" data-name="Group 28" transform="translate(64.009 50.184)">
          <rect id="Rectangle_15" data-name="Rectangle 15" width="30.763" height="19.142" transform="translate(2.507)" fill="#fff"/>
          <path id="Path_40" data-name="Path 40" d="M538.488,239.563h16.9v7.748" transform="translate(-524.626 -237.284)" fill="none" stroke="#2a3157" stroke-miterlimit="10" stroke-width="1.125"/>
          <path id="Path_41" data-name="Path 41" d="M504.282,244.728v-5.165h4.975" transform="translate(-504.282 -237.284)" fill="none" stroke="#2a3157" stroke-miterlimit="10" stroke-width="2.249"/>
          <path id="Path_42" data-name="Path 42" d="M511.08,270.521h-6.8v-11.09" transform="translate(-504.282 -249.101)" fill="none" stroke="#2a3157" stroke-miterlimit="10" stroke-width="1.125"/>
          <path id="Path_43" data-name="Path 43" d="M556.56,273.02V278.6h-16.1" transform="translate(-525.797 -257.182)" fill="none" stroke="#2a3157" stroke-miterlimit="10" stroke-width="2.249"/>
          <path id="Path_44" data-name="Path 44" d="M560.887,233.94h11.09v9.723" transform="translate(-537.947 -233.94)" fill="none" stroke="#2a3157" stroke-linecap="round" stroke-linejoin="round" stroke-width="1.125" stroke-dasharray="0 5.623"/>
          <circle id="Ellipse_4" data-name="Ellipse 4" cx="2.051" cy="2.051" r="2.051" transform="translate(13.065 4.558)" fill="#fdb913"/>
          <rect id="Rectangle_16" data-name="Rectangle 16" width="21.268" height="0.76" transform="translate(5.317 10.179)" fill="#00ccbe"/>
          <rect id="Rectangle_17" data-name="Rectangle 17" width="9.571" height="0.76" transform="translate(11.166 12.609)" fill="#94a3c0"/>
          <rect id="Rectangle_18" data-name="Rectangle 18" width="12.704" height="0.76" transform="translate(9.599 15.04)" fill="#94a3c0"/>
        </g>
        <g id="Group_30" data-name="Group 30" transform="translate(52.512 76.061)">
          <rect id="Rectangle_19" data-name="Rectangle 19" width="3.114" height="4.153" transform="translate(23.894 24.616) rotate(137.655)" fill="#a6d0f4"/>
          <g id="Group_29" data-name="Group 29">
            <circle id="Ellipse_5" data-name="Ellipse 5" cx="9.92" cy="9.92" r="9.92" transform="translate(1.853 24.17) rotate(-87.314)" fill="#fff" opacity="0.53"/>
            <path id="Path_45" data-name="Path 45" d="M502.411,302.6a14.725,14.725,0,0,0-20.8-.964" transform="translate(-479.3 -297.792)" fill="none" stroke="#4361c4" stroke-linecap="round" stroke-linejoin="round" stroke-width="0.854" stroke-dasharray="0 2.562"/>
            <path id="Path_46" data-name="Path 46" d="M479.1,324.42a12.227,12.227,0,1,0,.8-17.273A12.227,12.227,0,0,0,479.1,324.42Zm1.705-1.554a9.92,9.92,0,1,1,14.014.65A9.92,9.92,0,0,1,480.808,322.866Z" transform="translate(-475.912 -301.458)" fill="#2a3157"/>
          </g>
          <rect id="Rectangle_20" data-name="Rectangle 20" width="6.488" height="24.829" transform="matrix(-0.739, 0.674, -0.674, -0.739, 40.832, 41.017)" fill="#2a3157"/>
          <rect id="Rectangle_21" data-name="Rectangle 21" width="6.488" height="1.557" transform="matrix(-0.739, 0.674, -0.674, -0.739, 41.88, 42.168)" fill="#ff5776"/>
        </g>
        <g id="Group_33" data-name="Group 33" transform="translate(70.086 22.384)">
          <g id="Group_31" data-name="Group 31">
            <path id="Path_47" data-name="Path 47" d="M526.569,177.34a4.709,4.709,0,1,1,9.419,0c0,.051-.006.1-.008.152h7.3c0-.051,0-.1,0-.152a12,12,0,0,0-24,0c0,.051,0,.1,0,.152h7.3C526.575,177.442,526.569,177.392,526.569,177.34Z" transform="translate(-519.277 -165.339)" fill="#ff5776"/>
          </g>
          <g id="Group_32" data-name="Group 32" transform="translate(0.004 12.153)">
            <path id="Path_48" data-name="Path 48" d="M555.649,209.967l-5.5-4.992a4.6,4.6,0,0,1-3.133.582v7.332c.251.016.5.027.759.027A11.949,11.949,0,0,0,555.649,209.967Z" transform="translate(-535.779 -201.065)" fill="#fdb913"/>
            <path id="Path_49" data-name="Path 49" d="M526.582,195.328h-7.3a12,12,0,0,0,11.238,11.823v-7.332A4.7,4.7,0,0,1,526.582,195.328Z" transform="translate(-519.286 -195.328)" fill="#00ccbe"/>
          </g>
        </g>
        <path id="Path_50" data-name="Path 50" d="M515.153,175.076A13.672,13.672,0,0,1,528.826,161.4" transform="translate(-446.738 -140.614)" fill="none" stroke="#2a3157" stroke-linecap="round" stroke-linejoin="round" stroke-width="0.843"/>
        <g id="Group_35" data-name="Group 35" transform="translate(82.543 77.302)">
          <rect id="Rectangle_22" data-name="Rectangle 22" width="18.23" height="1.367" fill="#232839"/>
          <g id="Group_34" data-name="Group 34" transform="translate(0 3.418)">
            <rect id="Rectangle_23" data-name="Rectangle 23" width="12.59" height="1.367" transform="translate(0 3.418)" fill="#c7d8f2"/>
            <rect id="Rectangle_24" data-name="Rectangle 24" width="6.494" height="1.367" fill="#c7d8f2"/>
            <rect id="Rectangle_25" data-name="Rectangle 25" width="1.937" height="1.367" transform="translate(7.349)" fill="#c7d8f2"/>
          </g>
        </g>
      </g>
      <line id="Line_4" data-name="Line 4" x2="11.242" y2="11.09" transform="translate(81.935 35.752)" fill="none" stroke="#2a3157" stroke-linecap="round" stroke-linejoin="round" stroke-width="0.843"/>
      <g id="Group_37" data-name="Group 37" transform="translate(7.496 64.617)">
        <line id="Line_5" data-name="Line 5" x2="2.431" y2="2.431" fill="none" stroke="#2a3157" stroke-linecap="round" stroke-linejoin="round" stroke-width="0.843"/>
        <line id="Line_6" data-name="Line 6" x2="2.431" y2="2.431" transform="translate(2.279 0.304)" fill="none" stroke="#2a3157" stroke-linecap="round" stroke-linejoin="round" stroke-width="0.843"/>
        <line id="Line_7" data-name="Line 7" x2="2.431" y2="2.431" transform="translate(4.406 0.304)" fill="none" stroke="#2a3157" stroke-linecap="round" stroke-linejoin="round" stroke-width="0.843"/>
      </g>
      <g id="Group_38" data-name="Group 38" transform="translate(86.189 91.962)">
        <line id="Line_8" data-name="Line 8" x2="2.431" y2="2.431" fill="none" stroke="#02b2ca" stroke-linecap="round" stroke-linejoin="round" stroke-width="0.843"/>
        <line id="Line_9" data-name="Line 9" x2="2.431" y2="2.431" transform="translate(2.279 0.304)" fill="none" stroke="#02b2ca" stroke-linecap="round" stroke-linejoin="round" stroke-width="0.843"/>
        <line id="Line_10" data-name="Line 10" x2="2.431" y2="2.431" transform="translate(4.406 0.304)" fill="none" stroke="#02b2ca" stroke-linecap="round" stroke-linejoin="round" stroke-width="0.843"/>
      </g>
      <g id="Group_39" data-name="Group 39" transform="translate(20.864 22.08)">
        <rect id="Rectangle_26" data-name="Rectangle 26" width="25.522" height="3.038" fill="none" stroke="#2a3157" stroke-miterlimit="10" stroke-width="1.125"/>
        <rect id="Rectangle_27" data-name="Rectangle 27" width="2.127" height="2.127" transform="translate(26.738 4.254)" fill="none" stroke="#2a3157" stroke-miterlimit="10" stroke-width="1.125"/>
      </g>
      <g id="Group_40" data-name="Group 40" transform="translate(87.613 97.602)">
        <rect id="Rectangle_28" data-name="Rectangle 28" width="2.431" height="2.431" transform="translate(6.172 6.513) rotate(180)" fill="#2a3157"/>
        <rect id="Rectangle_29" data-name="Rectangle 29" width="1.253" height="1.253" transform="translate(1.253 1.253) rotate(180)" fill="#2a3157"/>
        <rect id="Rectangle_30" data-name="Rectangle 30" width="0.912" height="0.912" transform="translate(7.919 3.095) rotate(180)" fill="#2a3157"/>
      </g>
    </g>
    <path id="Path_51" data-name="Path 51" d="M393.5,335v12.672h9.524" transform="translate(-28.051 -133.755)" fill="none" stroke="#2a3157" stroke-miterlimit="10" stroke-width="1.125"/>
    <line id="Line_11" data-name="Line 11" x2="4.458" transform="translate(378.214 214.011)" fill="none" stroke="#2a3157" stroke-miterlimit="10" stroke-width="1.125"/>
    <g id="Group_46" data-name="Group 46" transform="translate(405.367 216.848)">
      <g id="Group_42" data-name="Group 42">
        <circle id="Ellipse_6" data-name="Ellipse 6" cx="0.405" cy="0.405" r="0.405" fill="#2a3157"/>
        <circle id="Ellipse_7" data-name="Ellipse 7" cx="0.405" cy="0.405" r="0.405" transform="translate(3.377)" fill="#2a3157"/>
        <circle id="Ellipse_8" data-name="Ellipse 8" cx="0.405" cy="0.405" r="0.405" transform="translate(6.754)" fill="#2a3157"/>
        <circle id="Ellipse_9" data-name="Ellipse 9" cx="0.405" cy="0.405" r="0.405" transform="translate(10.131)" fill="#2a3157"/>
      </g>
      <g id="Group_43" data-name="Group 43" transform="translate(0 2.904)">
        <circle id="Ellipse_10" data-name="Ellipse 10" cx="0.405" cy="0.405" r="0.405" fill="#2a3157"/>
        <circle id="Ellipse_11" data-name="Ellipse 11" cx="0.405" cy="0.405" r="0.405" transform="translate(3.377)" fill="#2a3157"/>
        <circle id="Ellipse_12" data-name="Ellipse 12" cx="0.405" cy="0.405" r="0.405" transform="translate(6.754)" fill="#2a3157"/>
        <circle id="Ellipse_13" data-name="Ellipse 13" cx="0.405" cy="0.405" r="0.405" transform="translate(10.131)" fill="#2a3157"/>
      </g>
      <g id="Group_44" data-name="Group 44" transform="translate(0 5.809)">
        <circle id="Ellipse_14" data-name="Ellipse 14" cx="0.405" cy="0.405" r="0.405" fill="#2a3157"/>
        <circle id="Ellipse_15" data-name="Ellipse 15" cx="0.405" cy="0.405" r="0.405" transform="translate(3.377)" fill="#2a3157"/>
        <circle id="Ellipse_16" data-name="Ellipse 16" cx="0.405" cy="0.405" r="0.405" transform="translate(6.754)" fill="#2a3157"/>
        <circle id="Ellipse_17" data-name="Ellipse 17" cx="0.405" cy="0.405" r="0.405" transform="translate(10.131)" fill="#2a3157"/>
      </g>
      <g id="Group_45" data-name="Group 45" transform="translate(0 8.713)">
        <circle id="Ellipse_18" data-name="Ellipse 18" cx="0.405" cy="0.405" r="0.405" fill="#2a3157"/>
        <circle id="Ellipse_19" data-name="Ellipse 19" cx="0.405" cy="0.405" r="0.405" transform="translate(3.377)" fill="#2a3157"/>
        <circle id="Ellipse_20" data-name="Ellipse 20" cx="0.405" cy="0.405" r="0.405" transform="translate(6.754)" fill="#2a3157"/>
        <circle id="Ellipse_21" data-name="Ellipse 21" cx="0.405" cy="0.405" r="0.405" transform="translate(10.131)" fill="#2a3157"/>
      </g>
    </g>
    <g id="Group_47" data-name="Group 47" transform="translate(354.152 145.776)">
      <rect id="Rectangle_31" data-name="Rectangle 31" width="2.161" height="2.161" transform="translate(1.553)" fill="#2a3157"/>
      <rect id="Rectangle_32" data-name="Rectangle 32" width="1.114" height="1.114" transform="translate(5.927 4.677)" fill="#2a3157"/>
      <rect id="Rectangle_33" data-name="Rectangle 33" width="0.811" height="0.811" transform="translate(0 3.039)" fill="#2a3157"/>
    </g>
    <g id="Group_48" data-name="Group 48" transform="translate(354.152 145.776)">
      <rect id="Rectangle_34" data-name="Rectangle 34" width="2.161" height="2.161" transform="translate(1.553)" fill="#2a3157"/>
      <rect id="Rectangle_35" data-name="Rectangle 35" width="1.114" height="1.114" transform="translate(5.927 4.677)" fill="#2a3157"/>
      <rect id="Rectangle_36" data-name="Rectangle 36" width="0.811" height="0.811" transform="translate(0 3.039)" fill="#2a3157"/>
    </g>
    <g id="Group_49" data-name="Group 49" transform="translate(395.468 119.649)">
      <path id="Path_52" data-name="Path 52" d="M488.266,149.345a3.912,3.912,0,0,1-2.632-1.189,8.487,8.487,0,1,0-2,1.5A6.629,6.629,0,0,0,488.266,149.345Z" transform="translate(-469.656 -133.655)" fill="#00ccbe"/>
      <path id="Path_53" data-name="Path 53" d="M484.766,151.345a3.912,3.912,0,0,1-2.632-1.189,8.488,8.488,0,1,0-2,1.5A6.629,6.629,0,0,0,484.766,151.345Z" transform="translate(-467.574 -134.845)" fill="none" stroke="#2a3157" stroke-miterlimit="10" stroke-width="1.125"/>
      <path id="Path_54" data-name="Path 54" d="M483.993,153.133l-3.545-3.546,1.416-1.416,2.129,2.129,4.8-4.8,1.416,1.416Z" transform="translate(-475.231 -140.7)" fill="#fff"/>
    </g>
  </g>
</svg>
