<svg xmlns="http://www.w3.org/2000/svg" xmlns:xlink="http://www.w3.org/1999/xlink" width="132.14" height="94.941" viewBox="0 0 132.14 94.941">
  <defs>
    <clipPath id="clip-path">
      <rect id="Rectangle_12473" data-name="Rectangle 12473" width="8.622" height="11.127" fill="none"/>
    </clipPath>
    <clipPath id="clip-path-2">
      <rect id="Rectangle_12480" data-name="Rectangle 12480" width="1.929" height="2.614" fill="none"/>
    </clipPath>
    <clipPath id="clip-path-3">
      <rect id="Rectangle_12481" data-name="Rectangle 12481" width="1.928" height="2.614" fill="none"/>
    </clipPath>
  </defs>
  <g id="Group_118803" data-name="Group 118803" transform="translate(-89.181 -107.792)">
    <path id="Path_54370" data-name="Path 54370" d="M243.326,233.413a47.86,47.86,0,0,0,11.864-31.352c0-28.06-24.931-50.807-55.684-50.807S143.821,174,143.821,202.061a47.86,47.86,0,0,0,11.864,31.352Z" transform="translate(-54.64 -31.65)" fill="#f8f8f6"/>
    <rect id="Rectangle_12462" data-name="Rectangle 12462" width="21.356" height="83.422" transform="translate(199.965 115.05)" fill="#f5e9dc"/>
    <rect id="Rectangle_12463" data-name="Rectangle 12463" width="22.691" height="83.422" transform="translate(187.485 115.05)" fill="#cfcdcc"/>
    <rect id="Rectangle_12464" data-name="Rectangle 12464" width="20.587" height="17.938" transform="translate(188.537 118.616)" fill="#a9a8a8"/>
    <rect id="Rectangle_12465" data-name="Rectangle 12465" width="20.587" height="17.938" transform="translate(188.537 138.067)" fill="#a9a8a8"/>
    <rect id="Rectangle_12466" data-name="Rectangle 12466" width="20.587" height="5.889" transform="translate(188.537 157.517)" fill="#a9a8a8"/>
    <rect id="Rectangle_12467" data-name="Rectangle 12467" width="10.219" height="30.407" transform="translate(188.537 164.359)" fill="#a9a8a8"/>
    <rect id="Rectangle_12468" data-name="Rectangle 12468" width="9.519" height="30.407" transform="translate(199.605 164.359)" fill="#a9a8a8"/>
    <path id="Path_54372" data-name="Path 54372" d="M1138.176,691.893a.49.49,0,0,1-.981,0v-7.426a.49.49,0,0,1,.981,0Z" transform="translate(-940.259 -509.971)" fill="#cfcdcc"/>
    <path id="Path_54373" data-name="Path 54373" d="M1169.266,691.893a.49.49,0,1,1-.981,0v-7.426a.49.49,0,1,1,.981,0Z" transform="translate(-967.777 -509.971)" fill="#cfcdcc"/>
    <path id="Path_54374" data-name="Path 54374" d="M1086.406,241.167l3.014.343v13.114h-4.3V241.167Z" transform="translate(-894.167 -118.048)" fill="#d74e42"/>
    <rect id="Rectangle_12469" data-name="Rectangle 12469" width="2.894" height="13.457" transform="translate(189.182 123.119)" fill="#ff6c58"/>
    <path id="Path_54375" data-name="Path 54375" d="M1076.249,250.094a.833.833,0,0,0,.59.946.69.69,0,0,0,.858-.565.841.841,0,0,0-.59-.946.684.684,0,0,0-.858.565" transform="translate(-886.306 -125.426)" fill="#768e66"/>
    <path id="Path_54376" data-name="Path 54376" d="M1075.609,249.473a.753.753,0,0,1,.945-.622.926.926,0,0,1,.649,1.041.761.761,0,0,1-.944.622.917.917,0,0,1-.649-1.041m.145.038a.751.751,0,0,0,.531.852.622.622,0,0,0,.773-.509.757.757,0,0,0-.531-.851.617.617,0,0,0-.773.509" transform="translate(-885.739 -124.825)" fill="#eeffe2"/>
    <path id="Path_54377" data-name="Path 54377" d="M1077.547,286.429l1.095.006v-8.525l-1.095-.084Z" transform="translate(-887.466 -150.494)" fill="#eeffe2"/>
    <path id="Path_54378" data-name="Path 54378" d="M1126.734,241.167l3.014.343v13.114h-4.3V241.167Z" transform="translate(-929.861 -118.048)" fill="#768e66"/>
    <rect id="Rectangle_12470" data-name="Rectangle 12470" width="2.893" height="13.457" transform="translate(193.816 123.119)" fill="#8fbc76"/>
    <path id="Path_54379" data-name="Path 54379" d="M1116.579,250.094a.832.832,0,0,0,.59.946.69.69,0,0,0,.858-.565.84.84,0,0,0-.59-.946.684.684,0,0,0-.858.565" transform="translate(-922.001 -125.426)" fill="#768e66"/>
    <path id="Path_54380" data-name="Path 54380" d="M1115.938,249.473a.753.753,0,0,1,.945-.622.926.926,0,0,1,.649,1.041.761.761,0,0,1-.944.622.917.917,0,0,1-.649-1.041m.145.038a.75.75,0,0,0,.531.852.622.622,0,0,0,.773-.509.757.757,0,0,0-.531-.851.617.617,0,0,0-.773.509" transform="translate(-921.433 -124.825)" fill="#eeffe2"/>
    <path id="Path_54381" data-name="Path 54381" d="M1117.876,286.429l1.095.006v-8.525l-1.095-.084Z" transform="translate(-923.16 -150.494)" fill="#eeffe2"/>
    <path id="Path_54382" data-name="Path 54382" d="M1167.063,241.167l3.013.343v13.114h-4.3V241.167Z" transform="translate(-965.556 -118.048)" fill="#00847b"/>
    <rect id="Rectangle_12471" data-name="Rectangle 12471" width="2.894" height="13.457" transform="translate(198.451 123.119)" fill="#00a99f"/>
    <path id="Path_54383" data-name="Path 54383" d="M1156.908,250.094a.833.833,0,0,0,.59.946.691.691,0,0,0,.859-.565.841.841,0,0,0-.59-.946.685.685,0,0,0-.859.565" transform="translate(-957.696 -125.426)" fill="#768e66"/>
    <path id="Path_54384" data-name="Path 54384" d="M1156.268,249.473a.753.753,0,0,1,.944-.622.926.926,0,0,1,.649,1.041.761.761,0,0,1-.944.622.917.917,0,0,1-.649-1.041m.145.038a.751.751,0,0,0,.531.852.622.622,0,0,0,.773-.509.757.757,0,0,0-.531-.851.617.617,0,0,0-.773.509" transform="translate(-957.128 -124.825)" fill="#eeffe2"/>
    <path id="Path_54385" data-name="Path 54385" d="M1158.206,286.429l1.095.006v-8.525l-1.095-.084Z" transform="translate(-958.856 -150.494)" fill="#eeffe2"/>
    <path id="Path_54386" data-name="Path 54386" d="M1207.393,241.167l3.014.343v13.114h-4.3V241.167Z" transform="translate(-1001.251 -118.048)" fill="#768e66"/>
    <rect id="Rectangle_12472" data-name="Rectangle 12472" width="2.894" height="13.457" transform="translate(203.085 123.119)" fill="#8fbc76"/>
    <path id="Path_54387" data-name="Path 54387" d="M1197.237,250.094a.833.833,0,0,0,.59.946.69.69,0,0,0,.859-.565.841.841,0,0,0-.59-.946.684.684,0,0,0-.859.565" transform="translate(-993.39 -125.426)" fill="#768e66"/>
    <path id="Path_54388" data-name="Path 54388" d="M1196.6,249.473a.753.753,0,0,1,.944-.622.926.926,0,0,1,.649,1.041.761.761,0,0,1-.944.622.917.917,0,0,1-.649-1.041m.145.038a.751.751,0,0,0,.531.852.622.622,0,0,0,.773-.509.757.757,0,0,0-.531-.851.617.617,0,0,0-.773.509" transform="translate(-992.823 -124.825)" fill="#eeffe2"/>
    <path id="Path_54389" data-name="Path 54389" d="M1198.535,286.429l1.095.006v-8.525l-1.095-.084Z" transform="translate(-994.55 -150.494)" fill="#eeffe2"/>
    <path id="Path_54390" data-name="Path 54390" d="M1073.189,509.288h9.685c.429,0,.776-.483.776-1.079a1.314,1.314,0,0,0-.228-.763.687.687,0,0,0-.549-.316h-9.685a.7.7,0,0,1,.509.315,1.315,1.315,0,0,1,.228.763c0,.577-.326,1.049-.737,1.078" transform="translate(-883.609 -353.448)" fill="#fffde8"/>
    <path id="Path_54391" data-name="Path 54391" d="M1073.14,508.4l0,.2h9.691c.469,0,.85-.53.85-1.181a1.435,1.435,0,0,0-.249-.835.747.747,0,0,0-.6-.346h-9.691l0,.2a.611.611,0,0,1,.422.236.51.51,0,0,1,.039.049c.012.017.024.035.035.053a1.13,1.13,0,0,1,.142.357c.007.034.013.067.018.1a1.309,1.309,0,0,1,.012.179,1.4,1.4,0,0,1-.012.179c0,.035-.01.069-.018.1a1.135,1.135,0,0,1-.141.357.9.9,0,0,1-.073.1.613.613,0,0,1-.423.236m.442,0a1.023,1.023,0,0,0,.184-.237,1.112,1.112,0,0,0,.053-.1,1.434,1.434,0,0,0,.11-.357c.006-.034.011-.067.015-.1a1.581,1.581,0,0,0,.01-.179,1.609,1.609,0,0,0-.01-.179c0-.034-.009-.068-.014-.1a1.458,1.458,0,0,0-.111-.357c-.016-.036-.035-.069-.054-.1a1.029,1.029,0,0,0-.061-.1.937.937,0,0,0-.124-.142h9.247a.617.617,0,0,1,.5.286,1.191,1.191,0,0,1,.206.691c0,.539-.315.977-.7.977Z" transform="translate(-883.564 -352.665)" fill="#00a99f"/>
    <path id="Path_54392" data-name="Path 54392" d="M1076.827,510.082a.516.516,0,0,1,.039.049c.013.017.024.035.035.053h7.545v-.1Z" transform="translate(-886.829 -356.06)" fill="#b8b59d"/>
    <path id="Path_54393" data-name="Path 54393" d="M1078.706,514.079c.007.034.013.068.018.1h7.349v-.1Z" transform="translate(-888.492 -359.598)" fill="#b8b59d"/>
    <path id="Path_54394" data-name="Path 54394" d="M1078.706,518.179h7.33v-.1h-7.312c0,.035-.01.069-.018.1" transform="translate(-888.492 -363.136)" fill="#b8b59d"/>
    <path id="Path_54395" data-name="Path 54395" d="M1076.84,522.175h7.507v-.1h-7.434a.919.919,0,0,1-.074.1" transform="translate(-886.84 -366.673)" fill="#b8b59d"/>
    <path id="Path_54396" data-name="Path 54396" d="M1121.452,508.655h10.535c.466,0,.845-.526.845-1.174a1.429,1.429,0,0,0-.248-.83.747.747,0,0,0-.6-.344h-10.535a.761.761,0,0,1,.554.343,1.431,1.431,0,0,1,.248.83c0,.628-.355,1.141-.8,1.173" transform="translate(-926.326 -352.72)" fill="#00998f"/>
    <path id="Path_54397" data-name="Path 54397" d="M1073.188,483.728h9.685c.429,0,.777-.633.777-1.412a2.119,2.119,0,0,0-.228-1,.673.673,0,0,0-.549-.413h-9.685a.7.7,0,0,1,.509.412l.016.03c.022.043.043.087.062.134a2.062,2.062,0,0,1,.123.468c.007.044.012.087.016.133.007.076.011.154.011.233s0,.158-.011.234c0,.045-.009.089-.016.133a2.053,2.053,0,0,1-.123.468c-.02.047-.04.091-.062.133a.723.723,0,0,1-.525.443" transform="translate(-883.608 -330.237)" fill="#fffde8"/>
    <path id="Path_54398" data-name="Path 54398" d="M1073.14,482.566l0,.267h9.691c.469,0,.85-.693.85-1.545a2.307,2.307,0,0,0-.249-1.092.732.732,0,0,0-.6-.453h-9.691l0,.267a.592.592,0,0,1,.422.308.665.665,0,0,1,.039.064c.012.023.024.045.035.069a1.766,1.766,0,0,1,.142.467c.007.044.013.088.018.134a2.232,2.232,0,0,1,.012.234c0,.08,0,.158-.012.234,0,.045-.01.091-.018.134a1.774,1.774,0,0,1-.141.467,1.19,1.19,0,0,1-.073.133.6.6,0,0,1-.423.309m.442,0a1.349,1.349,0,0,0,.184-.31c.019-.043.037-.087.053-.133a2.32,2.32,0,0,0,.11-.467c.006-.044.011-.088.015-.134.007-.076.01-.154.01-.234s0-.156-.01-.234c0-.044-.009-.089-.014-.134a2.354,2.354,0,0,0-.111-.467c-.016-.047-.035-.091-.054-.134s-.039-.084-.061-.124a1.194,1.194,0,0,0-.124-.186h9.247a.6.6,0,0,1,.5.374,1.915,1.915,0,0,1,.206.9c0,.705-.315,1.278-.7,1.278Z" transform="translate(-883.564 -329.208)" fill="#ff6c58"/>
    <path id="Path_54399" data-name="Path 54399" d="M1077.759,484.76c.022.043.043.087.062.134h7.45v-.134Z" transform="translate(-887.654 -333.648)" fill="#b8b59d"/>
    <path id="Path_54400" data-name="Path 54400" d="M1079.367,490c.007.044.012.087.016.133h7.275V490Z" transform="translate(-889.077 -338.283)" fill="#b8b59d"/>
    <path id="Path_54401" data-name="Path 54401" d="M1079.367,495.358h7.254v-.133h-7.238c0,.045-.009.089-.016.133" transform="translate(-889.077 -342.91)" fill="#b8b59d"/>
    <path id="Path_54402" data-name="Path 54402" d="M1077.759,500.587h7.4v-.133h-7.34c-.02.047-.04.091-.062.133" transform="translate(-887.654 -347.538)" fill="#b8b59d"/>
    <path id="Path_54403" data-name="Path 54403" d="M1121.452,482.9h10.535c.466,0,.845-.688.845-1.536a2.3,2.3,0,0,0-.248-1.086.733.733,0,0,0-.6-.45h-10.535a.765.765,0,0,1,.554.449,2.3,2.3,0,0,1,.248,1.086c0,.821-.355,1.493-.8,1.534" transform="translate(-926.326 -329.28)" fill="#d74e42"/>
    <path id="Path_54404" data-name="Path 54404" d="M1127.328,456.647h6.125c.271,0,.491-.632.491-1.412a3.159,3.159,0,0,0-.144-1c-.089-.255-.211-.414-.347-.414h-6.125c.126.018.239.173.322.413a3.151,3.151,0,0,1,.144,1c0,.755-.206,1.372-.466,1.411" transform="translate(-931.526 -306.267)" fill="#fffde8"/>
    <path id="Path_54405" data-name="Path 54405" d="M1127.3,455.488l0,.267h6.129c.3,0,.537-.693.537-1.545a3.452,3.452,0,0,0-.157-1.092c-.1-.292-.237-.453-.38-.453h-6.129l0,.267c.1.015.192.123.267.309.008.019.017.041.025.064s.015.045.022.07a2.575,2.575,0,0,1,.09.467c0,.044.008.088.011.134.005.076.007.155.007.234s0,.158-.007.234c0,.045-.006.091-.011.134a2.6,2.6,0,0,1-.089.467c-.014.048-.03.094-.046.134-.073.179-.165.294-.268.308m.28,0a1.647,1.647,0,0,0,.117-.31c.012-.043.023-.087.033-.134a3.436,3.436,0,0,0,.07-.467c0-.044.007-.088.01-.134,0-.076.006-.154.006-.234s0-.156-.006-.234c0-.044-.006-.089-.009-.134a3.5,3.5,0,0,0-.07-.467c-.01-.047-.022-.091-.034-.134s-.025-.084-.039-.124a1.386,1.386,0,0,0-.078-.186h5.848c.118,0,.23.132.314.374a2.858,2.858,0,0,1,.13.9c0,.705-.2,1.278-.444,1.278Z" transform="translate(-931.496 -305.242)" fill="#8fbc76"/>
    <path id="Path_54406" data-name="Path 54406" d="M1129.628,457.686c.008.019.017.041.024.064s.015.045.022.07h4.772v-.133Z" transform="translate(-933.562 -309.685)" fill="#b8b59d"/>
    <path id="Path_54407" data-name="Path 54407" d="M1130.817,462.915c0,.044.008.088.011.134h4.648v-.134Z" transform="translate(-934.614 -314.313)" fill="#b8b59d"/>
    <path id="Path_54408" data-name="Path 54408" d="M1130.817,468.277h4.636v-.134h-4.625c0,.046-.006.091-.011.134" transform="translate(-934.614 -318.94)" fill="#b8b59d"/>
    <path id="Path_54409" data-name="Path 54409" d="M1129.637,473.507h4.748v-.133h-4.7c-.014.048-.03.094-.047.133" transform="translate(-933.57 -323.57)" fill="#b8b59d"/>
    <path id="Path_54410" data-name="Path 54410" d="M1157.851,455.816h6.662c.3,0,.534-.688.534-1.536a3.436,3.436,0,0,0-.156-1.086c-.1-.278-.23-.45-.378-.45h-6.662c.137.02.26.188.35.449a3.432,3.432,0,0,1,.157,1.086c0,.821-.224,1.493-.507,1.534" transform="translate(-958.542 -305.313)" fill="#768e66"/>
    <path id="Path_54411" data-name="Path 54411" d="M1147.87,393.1l5.208-11.972.3.194-5.071,11.9Z" transform="translate(-949.708 -241.922)" fill="#43435b"/>
    <path id="Path_54412" data-name="Path 54412" d="M1140.767,392.584a5.662,5.662,0,1,1-4.142-5.459,5.668,5.668,0,0,1,4.142,5.459" transform="translate(-933.388 -247.049)" fill="#00847b"/>
    <path id="Path_54413" data-name="Path 54413" d="M1145.349,394.072c-.1-.1-.306-.09-.429-.173-.141-.094-.11-.214-.34-.145a1.14,1.14,0,0,0-.431.227c-.673-.949-.213-1.752-1.681-1.429a1.786,1.786,0,0,1-1.394-.05c-.379-.095-.672-.751-1.3-.022l-.265.6c-.105.124-.3.287-.4.423a2.417,2.417,0,0,0-.174.649c-.28.441-.419.325-.947.694-1.151.8-.149,1.047.432,1.814-.623.992-.171,1.567.267,2.607.378.9.881,2.108,1.419.575.192-.546,0-.832.511-1.273.3-.255,1.031-.2,1.248-.636a3.061,3.061,0,0,0-.073-1.08l.031-.01c.169-.068.146-.172.286-.05.071.061-.007.091.112.116a.337.337,0,0,0,.2-.061c.057-.037.136-.092.133-.17s-.071-.06-.1-.12c-.039-.09,0-.3-.073-.358s-.328.015-.39.051a2.122,2.122,0,0,1-.386.2.27.27,0,0,0-.036.016c-.395-.242-.9-.073-1.183-.5.862-.334.559-1.192,1.7-1.293.848-.075,1.512.416,2.117-.184l.046.035a.684.684,0,0,1,.448.124c.13.078.177.168.342.068.184-.111.448-.5.3-.64" transform="translate(-940.496 -251.673)" fill="#ffcd83"/>
    <path id="Path_54414" data-name="Path 54414" d="M1205.467,417.876c-.044-.491-.464-.832-.611-1.287-.062-.192-.112-.457-.31-.566-.225-.124-.337.057-.541.137-.184.072-1.215.107-.92.5l.1.348c.261.361-.182.544-.043.871s.628.337.667.745c.037.39-.27,1.106.091,1.443s.763-.3.882-.567c.265-.583.745-.936.684-1.627" transform="translate(-998.532 -272.773)" fill="#ffcd83"/>
    <g id="Group_118773" data-name="Group 118773" transform="translate(198.756 140.076)" opacity="0.6" style="mix-blend-mode: multiply;isolation: isolate">
      <g id="Group_118772" data-name="Group 118772">
        <g id="Group_118771" data-name="Group 118771" clip-path="url(#clip-path)">
          <path id="Path_54415" data-name="Path 54415" d="M1161.662,394.185a5.668,5.668,0,0,1-8.622,4.837,8.859,8.859,0,0,0,3.934-4.427,12.4,12.4,0,0,0,.882-3.015,5.925,5.925,0,0,0,.044-.673,5.106,5.106,0,0,0-.058-.819,8.531,8.531,0,0,0-.324-1.362,5.67,5.67,0,0,1,4.142,5.459" transform="translate(-1153.04 -388.726)" fill="#2871ac"/>
        </g>
      </g>
    </g>
    <path id="Path_54416" data-name="Path 54416" d="M1151.305,394.061a6.578,6.578,0,0,1-3.435-.965l.156-.255a6.292,6.292,0,1,0,4.973-11.43l.08-.287a6.59,6.59,0,0,1-1.773,12.937" transform="translate(-949.708 -241.921)" fill="#43435b"/>
    <path id="Path_54417" data-name="Path 54417" d="M1166.717,495.7h3.693a3.491,3.491,0,0,1-1.158-3.58l-1.349.149a3.272,3.272,0,0,1-1.186,3.43" transform="translate(-966.389 -340.16)" fill="#43435b"/>
    <path id="Path_54418" data-name="Path 54418" d="M1165.44,520.179a.416.416,0,0,1-.448.373h-4.125a.416.416,0,0,1-.448-.373.343.343,0,0,1,.132-.264.494.494,0,0,1,.317-.109h4.125a.416.416,0,0,1,.448.373" transform="translate(-960.815 -364.666)" fill="#43435b"/>
    <path id="Path_54419" data-name="Path 54419" d="M1162.988,520.179a.168.168,0,0,1,0,.025.421.421,0,0,1-.446.348h-1.674a.416.416,0,0,1-.448-.373.343.343,0,0,1,.132-.264.494.494,0,0,1,.317-.109h1.674a.416.416,0,0,1,.448.373" transform="translate(-960.814 -364.666)" fill="#004672"/>
    <path id="Path_54420" data-name="Path 54420" d="M525.263,709.341a34.938,34.938,0,0,0-5.1.982c-.5.355-1.638,2.654-2.6,1.6-1.89-2.071,4.07-2.5,7.7-2.583" transform="translate(-391.515 -532.42)" fill="#081727"/>
    <path id="Path_54421" data-name="Path 54421" d="M577.249,720.91l.05-.977.261-5.133.605-11.895h1.165l.781,11.895.336,5.133.048.733c0,.45-1.039,1.548-1.5,1.548s-1.748-.854-1.748-1.3" transform="translate(-444.661 -526.724)" fill="#727c84"/>
    <path id="Path_54422" data-name="Path 54422" d="M578.736,721.985l.23-5.716h2.255l.3,5.716Z" transform="translate(-445.977 -538.552)" fill="#081727"/>
    <path id="Path_54423" data-name="Path 54423" d="M516.056,690.072l.138.1c1.579,1.114,4.54,3.261,4.808,3.386a4.818,4.818,0,0,0,1.03.222,26.548,26.548,0,0,0,3.4.273,15.714,15.714,0,0,0,4.154-1.028c.535-.18,1.539-1.674,2.5-2.95Z" transform="translate(-390.5 -515.366)" fill="#081727"/>
    <path id="Path_54424" data-name="Path 54424" d="M574.094,690.072c.73,1.285-2.207,3.12-4.438,3.537a11.088,11.088,0,0,1-1.6.168,26.549,26.549,0,0,0,3.4.273,15.715,15.715,0,0,0,4.154-1.028c.535-.18,1.539-1.674,2.5-2.95Z" transform="translate(-436.527 -515.366)" fill="#152a43"/>
    <path id="Path_54425" data-name="Path 54425" d="M487.7,872.974a1.416,1.416,0,1,1-1.412-1.308,1.363,1.363,0,0,1,1.412,1.308" transform="translate(-362.9 -676.091)" fill="#081727"/>
    <path id="Path_54426" data-name="Path 54426" d="M603.961,872.974a1.416,1.416,0,1,1-1.412-1.308,1.363,1.363,0,0,1,1.412,1.308" transform="translate(-465.804 -676.091)" fill="#081727"/>
    <path id="Path_54427" data-name="Path 54427" d="M688.2,872.974a1.416,1.416,0,1,1-1.412-1.308,1.363,1.363,0,0,1,1.412,1.308" transform="translate(-540.361 -676.091)" fill="#081727"/>
    <path id="Path_54428" data-name="Path 54428" d="M507.413,862.348h-27.06l.286-1.386,13.315-1.173,13.458,1.386Z" transform="translate(-358.9 -665.579)" fill="#727c84"/>
    <path id="Path_54429" data-name="Path 54429" d="M591.438,859.789l-.084.025v2.534h4.029v-1.173Z" transform="translate(-457.146 -665.579)" fill="#9da4ab"/>
    <path id="Path_54430" data-name="Path 54430" d="M615.612,708.011a34.935,34.935,0,0,1,5.1.982c.5.355,1.638,2.654,2.6,1.6,1.89-2.071-4.07-2.5-7.7-2.583" transform="translate(-478.615 -531.243)" fill="#081727"/>
    <path id="Path_54431" data-name="Path 54431" d="M448.55,425.576c1.737-4.475-3.924-28.382-3.1-30.938,1.073-.9,3.711-1.322,6.687-1.415,4.871-.151,10.65.583,11.972,1.555,1.4,1.029,2.051,13.3,2.331,21.517.137,4.042.183,7.1.183,7.359Z" transform="translate(-327.933 -252.612)" fill="#768e66"/>
    <rect id="Rectangle_12474" data-name="Rectangle 12474" width="1.977" height="9.15" transform="translate(140.351 163.605)" fill="#081727"/>
    <rect id="Rectangle_12475" data-name="Rectangle 12475" width="1.977" height="9.15" transform="translate(140.929 163.605)" fill="#152a43"/>
    <path id="Path_54432" data-name="Path 54432" d="M636.826,584.116c0,.719-.322,1.3-.719,1.3H628.7c-.4,0-.719-.583-.719-1.3v-.13c0-.719.322-1.3.719-1.3h7.409c.4,0,.719.583.719,1.3Z" transform="translate(-489.56 -420.319)" fill="#8fbc76"/>
    <path id="Path_54433" data-name="Path 54433" d="M611.836,584.116c0,.719-.222,1.3-.5,1.3h-5.118c-.275,0-.5-.583-.5-1.3v-.13c0-.719.222-1.3.5-1.3h5.118c.274,0,.5.583.5,1.3Z" transform="translate(-469.864 -420.319)" fill="#768e66"/>
    <path id="Path_54434" data-name="Path 54434" d="M504.4,416.294c-1.911,3.4-5.623,5.628-9.465,3.646-4.88-2.519-6.154-8.79-6.592-13.826a34.762,34.762,0,0,1,1.547-12.182c.065-.233.133-.471.207-.71,4.871-.151,10.65.583,11.972,1.555,1.4,1.03,2.052,13.3,2.331,21.517" transform="translate(-365.896 -252.611)" fill="#86b06a"/>
    <rect id="Rectangle_12476" data-name="Rectangle 12476" width="1.977" height="9.15" transform="translate(121.916 163.605)" fill="#081727"/>
    <rect id="Rectangle_12477" data-name="Rectangle 12477" width="1.978" height="9.15" transform="translate(122.494 163.605)" fill="#152a43"/>
    <path id="Path_54435" data-name="Path 54435" d="M478.324,584.116c0,.719-.392,1.3-.875,1.3h-9.014c-.483,0-.875-.583-.875-1.3v-.13c0-.719.392-1.3.875-1.3h9.014c.483,0,.875.583.875,1.3Z" transform="translate(-347.576 -420.319)" fill="#8fbc76"/>
    <path id="Path_54436" data-name="Path 54436" d="M449.707,584.116c0,.719-.16,1.3-.358,1.3h-3.685c-.2,0-.358-.583-.358-1.3v-.13c0-.719.16-1.3.358-1.3h3.685c.2,0,.358.583.358,1.3Z" transform="translate(-327.881 -420.319)" fill="#768e66"/>
    <path id="Path_54437" data-name="Path 54437" d="M531.287,658.525a1.922,1.922,0,0,1-2.005,1.825H508.626a1.922,1.922,0,0,1-2.005-1.825v-.182a1.921,1.921,0,0,1,2.005-1.825h20.655a1.922,1.922,0,0,1,2.005,1.825Z" transform="translate(-382.149 -485.667)" fill="#8fbc76"/>
    <path id="Path_54438" data-name="Path 54438" d="M465.713,658.525c0,1.008-.367,1.825-.82,1.825h-8.444c-.453,0-.82-.817-.82-1.825v-.182c0-1.008.367-1.825.82-1.825h8.444c.453,0,.82.817.82,1.825Z" transform="translate(-337.017 -485.667)" fill="#768e66"/>
    <path id="Path_54441" data-name="Path 54441" d="M429.537,346.291a6.061,6.061,0,0,0-.062.653c-.086,1.614.1,4.516.1,4.516l6.8-4.917s-.68-.252-1.562-.551a21.4,21.4,0,0,0-3.487-.961c-1.6-.155-1.58.038-1.784,1.259" transform="translate(-313.848 -209.936)" fill="#494f56"/>
    <path id="Path_54442" data-name="Path 54442" d="M431.671,363.839c.4.572,2.208-.009,4.031-1.3s2.974-2.794,2.57-3.366c-.327-.463-1.576-.169-3.008.645-.334.189-.678.408-1.023.652s-.666.495-.956.746c-1.246,1.078-1.941,2.156-1.614,2.619" transform="translate(-315.741 -222.301)" fill="#fbebd6"/>
    <path id="Path_54443" data-name="Path 54443" d="M444.616,367.279a1.55,1.55,0,0,0,2.531-1.788,1.566,1.566,0,0,0-.295-.315c-.411.233-.835.5-1.259.8s-.819.609-1.176.918a1.555,1.555,0,0,0,.2.383" transform="translate(-327.095 -227.806)" fill="#fff"/>
    <path id="Path_54444" data-name="Path 54444" d="M430.3,362.708c-.458-.648.6-1.932,1.64-2.834.3-.259.625-.513.968-.756s.693-.465,1.037-.66c1.2-.681,2.761-1.246,3.219-.6.535.757-.945,2.415-2.609,3.59s-3.72,2.015-4.255,1.258m1.85-2.59c-1.325,1.146-1.807,2.095-1.587,2.4.3.427,1.939-.016,3.807-1.335s2.833-2.715,2.531-3.142c-.219-.31-1.274-.173-2.8.692-.335.19-.674.406-1.01.643s-.652.484-.943.736" transform="translate(-314.503 -221.078)" fill="#1c364f"/>
    <path id="Path_54445" data-name="Path 54445" d="M429.713,346.291a6.061,6.061,0,0,0-.062.653,5.307,5.307,0,0,0,1.693.4c1.362.1,2.982-.085,3.64-1.349a21.4,21.4,0,0,0-3.486-.961c-1.6-.155-1.58.038-1.784,1.259" transform="translate(-314.025 -209.936)" fill="#787e84"/>
    <path id="Path_54446" data-name="Path 54446" d="M395.059,338.408l-4.414,15.639c-.11.391-.473,1.112-.258,1.511l1.523,2.819,3.631,6.722c.253.469.967.052.714-.417l-5.179-9.587.042.318,4.414-15.639.324-1.147a.414.414,0,0,0-.8-.22" transform="translate(-279.213 -203.856)" fill="#494f56"/>
    <path id="Path_54447" data-name="Path 54447" d="M396.265,566.293a1.6,1.6,0,0,0,.013.208h9.3a1.611,1.611,0,0,0,.013-.208c0-.491-.214-.89-.477-.89h-8.375c-.263,0-.477.4-.477.89" transform="translate(-284.475 -405.023)" fill="#787e84"/>
    <path id="Path_54448" data-name="Path 54448" d="M396.265,566.293a1.6,1.6,0,0,0,.013.208h6.052a1.611,1.611,0,0,0,.013-.208c0-.491-.214-.89-.477-.89h-5.124c-.263,0-.477.4-.477.89" transform="translate(-284.475 -405.023)" fill="#494f56"/>
    <path id="Path_54449" data-name="Path 54449" d="M415.039,560.542c0,.151.087.274.193.274s.193-.123.193-.274v-.391c0-.151-.086-.274-.193-.274s-.193.123-.193.274Z" transform="translate(-301.092 -400.133)" fill="#494f56"/>
    <path id="Path_54450" data-name="Path 54450" d="M384.116,477.49a1.212,1.212,0,1,0,1.212-1.212,1.212,1.212,0,0,0-1.212,1.212" transform="translate(-273.722 -326.14)" fill="#494f56"/>
    <path id="Path_54451" data-name="Path 54451" d="M389.39,482.158a.606.606,0,1,0,.606-.606.606.606,0,0,0-.606.606" transform="translate(-278.39 -330.808)" fill="#081727"/>
    <path id="Path_54452" data-name="Path 54452" d="M689.033,567.176a.648.648,0,0,1-.648.648H669.222a.648.648,0,0,1,0-1.3h19.163a.648.648,0,0,1,.648.648" transform="translate(-525.491 -406.019)" fill="#081727"/>
    <path id="Path_54453" data-name="Path 54453" d="M696.192,406.092l.153-.756h0l3.28-16.206a.67.67,0,0,1,.626-.521h25.442a.405.405,0,0,1,.406.521l-2.562,16.3a1.671,1.671,0,0,1-1.8,1.181H696.6a.411.411,0,0,1-.409-.521" transform="translate(-549.925 -248.546)" fill="#c1c1c1"/>
    <path id="Path_54454" data-name="Path 54454" d="M709.611,389.966l-3.28,16.206H732.52l3.565-16.206a.405.405,0,0,0-.406-.521H710.236a.67.67,0,0,0-.626.521" transform="translate(-558.909 -249.286)" fill="#7e8084"/>
    <path id="Path_54455" data-name="Path 54455" d="M833.773,488.424a34.141,34.141,0,0,0,.712-6.049l.1-2.412,3.1-.22a44.9,44.9,0,0,0,.789,8.681l.35,2.167h-5.592Z" transform="translate(-671.23 -329.207)" fill="#081727"/>
    <path id="Path_54456" data-name="Path 54456" d="M815.327,489.695c.342-1.38,1.639-8.516,1.639-8.516l2.983.055-.106,2.412a33.456,33.456,0,0,0,.187,6.049l.35,2.167h-5.591Z" transform="translate(-654.903 -330.478)" fill="#494f56"/>
    <path id="Path_54457" data-name="Path 54457" d="M261.961,556.953h9.96c.441,0,.8-.5.8-1.11a1.352,1.352,0,0,0-.234-.784.707.707,0,0,0-.565-.325h-9.96a.72.72,0,0,1,.524.324,1.351,1.351,0,0,1,.234.784c0,.594-.335,1.079-.758,1.109" transform="translate(-165.605 -395.581)" fill="#fffde8"/>
    <path id="Path_54458" data-name="Path 54458" d="M265.7,557.769a.553.553,0,0,1,.04.05c.013.018.025.036.036.055h7.759v-.1Z" transform="translate(-168.915 -398.267)" fill="#b8b59d"/>
    <path id="Path_54459" data-name="Path 54459" d="M267.634,561.879c.007.035.014.069.018.1h7.557v-.1Z" transform="translate(-170.626 -401.905)" fill="#b8b59d"/>
    <path id="Path_54460" data-name="Path 54460" d="M267.634,566.095h7.538v-.1h-7.52c0,.036-.011.071-.018.1" transform="translate(-170.626 -405.543)" fill="#b8b59d"/>
    <path id="Path_54461" data-name="Path 54461" d="M265.715,570.2h7.721v-.1H265.79a.918.918,0,0,1-.076.1" transform="translate(-168.928 -409.181)" fill="#b8b59d"/>
    <path id="Path_54462" data-name="Path 54462" d="M261.911,556.041l0,.21h9.966c.482,0,.874-.545.874-1.214a1.476,1.476,0,0,0-.256-.859.769.769,0,0,0-.618-.356h-9.966l0,.21a.628.628,0,0,1,.434.243.555.555,0,0,1,.04.05c.013.018.025.036.036.055a1.171,1.171,0,0,1,.146.367c.007.035.014.069.018.1a1.347,1.347,0,0,1,.012.184,1.477,1.477,0,0,1-.012.184c0,.036-.011.071-.018.1a1.177,1.177,0,0,1-.145.367.924.924,0,0,1-.076.1.631.631,0,0,1-.435.242m.455,0a1.047,1.047,0,0,0,.19-.243,1.119,1.119,0,0,0,.054-.1,1.467,1.467,0,0,0,.113-.367c.006-.035.011-.069.015-.1a1.625,1.625,0,0,0,.01-.184,1.657,1.657,0,0,0-.01-.184c0-.035-.009-.07-.014-.1a1.491,1.491,0,0,0-.114-.367,1.158,1.158,0,0,0-.055-.1,1.089,1.089,0,0,0-.063-.1.976.976,0,0,0-.127-.146h9.51a.634.634,0,0,1,.511.294,1.225,1.225,0,0,1,.212.711c0,.554-.324,1-.723,1Z" transform="translate(-165.559 -394.774)" fill="#00a99f"/>
    <path id="Path_54463" data-name="Path 54463" d="M328.183,556.3h9.069c.4,0,.727-.541.727-1.207a1.68,1.68,0,0,0-.213-.853.63.63,0,0,0-.514-.354h-9.069a.651.651,0,0,1,.477.353,1.68,1.68,0,0,1,.213.853c0,.646-.306,1.174-.69,1.206" transform="translate(-224.217 -394.831)" fill="#00998f"/>
    <path id="Path_54464" data-name="Path 54464" d="M261.961,528.049h9.959c.441,0,.8-.746.8-1.666a2.8,2.8,0,0,0-.234-1.177c-.145-.3-.344-.488-.565-.488H261.99a.169.169,0,0,0-.029,0c.2.022.388.2.524.487a2.8,2.8,0,0,1,.234,1.177c0,.891-.335,1.619-.758,1.664" transform="translate(-165.605 -369.015)" fill="#fffde8"/>
    <path id="Path_54465" data-name="Path 54465" d="M265.7,529.275c.014.022.027.049.04.075s.025.054.036.082h7.759v-.158Z" transform="translate(-168.915 -373.047)" fill="#b8b59d"/>
    <path id="Path_54466" data-name="Path 54466" d="M267.634,535.444c.007.052.014.1.018.158h7.557v-.158Z" transform="translate(-170.626 -378.507)" fill="#b8b59d"/>
    <path id="Path_54467" data-name="Path 54467" d="M267.634,541.771h7.538v-.158h-7.52c0,.054-.011.107-.018.158" transform="translate(-170.626 -383.967)" fill="#b8b59d"/>
    <path id="Path_54468" data-name="Path 54468" d="M265.715,547.941h7.721v-.158H265.79a1.5,1.5,0,0,1-.076.158" transform="translate(-168.928 -389.428)" fill="#b8b59d"/>
    <path id="Path_54469" data-name="Path 54469" d="M261.911,526.682l0,.315a.241.241,0,0,0,.035,0h9.931c.482,0,.874-.818.874-1.823a3.056,3.056,0,0,0-.256-1.289c-.166-.345-.384-.534-.618-.534h-9.931a.26.26,0,0,0-.035,0l0,.315a.62.62,0,0,1,.434.364c.014.022.027.049.04.075s.025.054.036.082a2.331,2.331,0,0,1,.146.551c.007.052.014.1.018.158.008.09.012.183.012.276s0,.186-.012.276c0,.054-.011.107-.018.158a2.346,2.346,0,0,1-.145.551,1.5,1.5,0,0,1-.076.158.624.624,0,0,1-.435.364m.455,0a1.651,1.651,0,0,0,.19-.366c.02-.05.038-.1.054-.158a3.059,3.059,0,0,0,.113-.551c.006-.052.011-.1.015-.158.007-.09.01-.181.01-.276s0-.184-.01-.276c0-.052-.009-.106-.014-.158a3.111,3.111,0,0,0-.114-.551c-.017-.055-.036-.107-.055-.158s-.04-.1-.063-.147a1.456,1.456,0,0,0-.127-.219h9.51c.192,0,.375.156.511.441a2.537,2.537,0,0,1,.212,1.067c0,.832-.324,1.508-.723,1.508Z" transform="translate(-165.559 -367.806)" fill="#d74e42"/>
    <path id="Path_54470" data-name="Path 54470" d="M328.183,527.069h9.069c.4,0,.727-.811.727-1.812a3.561,3.561,0,0,0-.213-1.281c-.132-.328-.313-.531-.514-.531h-9.043a.138.138,0,0,0-.026,0c.187.024.353.222.477.529a3.558,3.558,0,0,1,.213,1.281c0,.969-.306,1.761-.69,1.81" transform="translate(-224.217 -367.889)" fill="#ff6c58"/>
    <path id="Path_54471" data-name="Path 54471" d="M898.181,576.192l-.023,1.6-.039,2.615-.505,33.979h-.569l-.758-33.979-.058-2.615-.036-1.6Z" transform="translate(-726.952 -414.573)" fill="#c3c3c3"/>
    <g id="Group_118782" data-name="Group 118782" transform="translate(169.276 163.223)" style="mix-blend-mode: multiply;isolation: isolate">
      <g id="Group_118781" data-name="Group 118781">
        <g id="Group_118780" data-name="Group 118780" clip-path="url(#clip-path-2)">
          <path id="Path_54472" data-name="Path 54472" d="M898.433,590.145l-.039,2.615h-1.832l-.058-2.615Z" transform="translate(-896.504 -590.145)" fill="#b3b2b2"/>
        </g>
      </g>
    </g>
    <path id="Path_54473" data-name="Path 54473" d="M1133.264,576.192l-.023,1.6-.039,2.615-.505,33.979h-.569l-.758-33.979-.058-2.615-.036-1.6Z" transform="translate(-935.02 -414.573)" fill="#c3c3c3"/>
    <g id="Group_118785" data-name="Group 118785" transform="translate(196.291 163.223)" style="mix-blend-mode: multiply;isolation: isolate">
      <g id="Group_118784" data-name="Group 118784">
        <g id="Group_118783" data-name="Group 118783" clip-path="url(#clip-path-3)">
          <path id="Path_54474" data-name="Path 54474" d="M1133.516,590.145l-.039,2.615h-1.832l-.058-2.615Z" transform="translate(-1131.587 -590.145)" fill="#b3b2b2"/>
        </g>
      </g>
    </g>
    <path id="Path_54475" data-name="Path 54475" d="M250.309,576.192l-.023,1.6-.039,2.615-.505,33.979h-.569l-.758-33.979-.058-2.615-.036-1.6Z" transform="translate(-153.532 -414.573)" fill="#c3c3c3"/>
    <g id="Group_118788" data-name="Group 118788" transform="translate(94.824 163.223)" style="mix-blend-mode: multiply;isolation: isolate">
      <g id="Group_118787" data-name="Group 118787">
        <g id="Group_118786" data-name="Group 118786" clip-path="url(#clip-path-2)">
          <path id="Path_54476" data-name="Path 54476" d="M250.561,590.145l-.039,2.615H248.69l-.058-2.615Z" transform="translate(-248.632 -590.145)" fill="#b3b2b2"/>
        </g>
      </g>
    </g>
    <path id="Path_54477" data-name="Path 54477" d="M467,576.192l-.023,1.6-.039,2.615-.506,33.979h-.569l-.758-33.979-.058-2.615-.036-1.6Z" transform="translate(-345.324 -414.573)" fill="#c3c3c3"/>
    <g id="Group_118791" data-name="Group 118791" transform="translate(119.726 163.223)" style="mix-blend-mode: multiply;isolation: isolate">
      <g id="Group_118790" data-name="Group 118790">
        <g id="Group_118789" data-name="Group 118789" clip-path="url(#clip-path-2)">
          <path id="Path_54478" data-name="Path 54478" d="M467.256,590.145l-.039,2.615h-1.832l-.058-2.615Z" transform="translate(-465.327 -590.145)" fill="#b3b2b2"/>
        </g>
      </g>
    </g>
    <path id="Path_54479" data-name="Path 54479" d="M213.808,575.84a1.313,1.313,0,0,0,1.349,1.274h98.7a1.276,1.276,0,1,0,0-2.547h-98.7a1.313,1.313,0,0,0-1.349,1.274" transform="translate(-122.986 -413.133)" fill="#c3c3c3"/>
    <path id="Path_54480" data-name="Path 54480" d="M943.149,575.84c0,.7.164,1.274.367,1.274h26.838c.2,0,.367-.57.367-1.274s-.164-1.274-.367-1.274H943.516c-.2,0-.367.57-.367,1.274" transform="translate(-768.513 -413.133)" fill="#fbebd6"/>
    <path id="Path_54482" data-name="Path 54482" d="M679.032,885.41c-.365.348-1.618.36-2.031.36a7.708,7.708,0,0,1-2.624-.292,1.2,1.2,0,0,1,.381-.748c.855-.022,1.884-.009,2.243.024a8.007,8.007,0,0,1,2,.65c-.164-.631-.4-1.447-.528-2.212a8.814,8.814,0,0,0-1.8-.2h-.013c-.169-.005-.339-.009-.5-.01h-.1c.057-.216.107-.46.146-.7a3.564,3.564,0,0,0,.039-1.278h2.034a4.637,4.637,0,0,0,.069,1.491c.033.19.073.384.115.578.129.582.29,1.16.413,1.634.072.278.131.519.162.7" transform="translate(-530.627 -684.355)" fill="#fda271"/>
    <path id="Path_54483" data-name="Path 54483" d="M681.937,900.67a8,8,0,0,0-2-.65c-.359-.033-1.388-.046-2.242-.023.157-.179.344-.358.52-.53l0,0a3.212,3.212,0,0,0,.573-.651,2.817,2.817,0,0,0,.2-.56h.181l.333.007.087,0h.013a8.819,8.819,0,0,1,1.8.2c.133.765.364,1.581.528,2.212" transform="translate(-533.568 -699.621)" fill="#ffb576"/>
    <path id="Path_54484" data-name="Path 54484" d="M679.06,919.622q0,.01,0,.019c0,.006,0,.012,0,.017s0,0,0,.005a.222.222,0,0,1-.007.026.142.142,0,0,1-.009.023c-.237.431-1.654.445-2.1.445-1.271,0-2.338.093-2.544-.634,0-.01-.006-.02-.007-.03l0-.021,0-.021a.065.065,0,0,0,0-.011c0-.006,0-.011,0-.017a.008.008,0,0,1,0,0,7.711,7.711,0,0,0,2.624.292c.413,0,1.667-.012,2.031-.36.006.035.011.068.015.1,0,0,0,0,0,0,0,.027.006.053.007.077,0,0,0,.006,0,.009a.577.577,0,0,1,0,.081" transform="translate(-530.631 -718.298)" fill="#ffb576"/>
    <path id="Path_54485" data-name="Path 54485" d="M679.06,919.618q0,.01,0,.019c0,.006,0,.012,0,.017s0,0,0,.005a.115.115,0,0,1-.007.026.14.14,0,0,1-.009.023c-.237.431-1.654.445-2.1.445-1.271,0-2.338.093-2.544-.634,0-.01-.006-.02-.007-.03l0-.021,0-.021a.066.066,0,0,0,0-.011c0-.006,0-.011,0-.017a.008.008,0,0,1,0,0,7.713,7.713,0,0,0,2.624.292c.413,0,1.667-.012,2.031-.36h0c.006.035.011.068.015.1,0,0,0,0,0,0,0,.027.005.053.007.077,0,0,0,.006,0,.009a.663.663,0,0,1,0,.081" transform="translate(-530.631 -718.294)" fill="#0a0604"/>
    <path id="Path_54486" data-name="Path 54486" d="M679.056,891.492c0,.007,0,.013,0,.019l0,.017a.022.022,0,0,0,0,.005.116.116,0,0,1-.007.026.137.137,0,0,1-.009.023c-.237.431-1.847.605-2.291.605-1.272,0-2.145-.068-2.351-.794,0-.01-.006-.02-.007-.03s0-.014,0-.021,0-.014,0-.021a.066.066,0,0,0,0-.011c0-.006,0-.011,0-.017a.008.008,0,0,1,0,0,1.2,1.2,0,0,1,.381-.748c.157-.179.344-.358.521-.53l0,0c1.461-1.588.641-2.439,1.613-2.439.912,0,.938,1.279,1.561,1.314.129.582.29,1.16.413,1.634.072.278.131.519.162.705h0c.006.035.01.068.015.1,0,0,0,0,0,0,0,.027.006.053.007.077,0,0,0,.006,0,.009a.586.586,0,0,1,0,.081" transform="translate(-530.628 -690.168)" fill="#100a08"/>
    <path id="Path_54487" data-name="Path 54487" d="M679.057,918.876c0,.006,0,.013,0,.018s0,.012,0,.017a.012.012,0,0,0,0,.005.167.167,0,0,1-.007.026.133.133,0,0,1-.01.024c-.237.431-1.848.6-2.291.6-1.271,0-2.145-.068-2.351-.794,0-.01-.005-.02-.007-.029a.161.161,0,0,1,0-.021.2.2,0,0,1,0-.021.041.041,0,0,0,0-.011c0-.005,0-.011,0-.017v0a.57.57,0,0,1,.03-.2c.269.61,1.112.67,2.307.67.444,0,2.054-.175,2.291-.605a.156.156,0,0,0,.009-.023.008.008,0,0,0,0,0c.006.033.012.064.017.093s.011.068.015.1c0,0,0,0,0,0,0,.027.005.054.007.078v.008a.622.622,0,0,1,0,.081" transform="translate(-530.628 -717.521)" fill="#100a08"/>
    <path id="Path_54488" data-name="Path 54488" d="M775.823,883.072c-.1.4-.008.783-.13,1.161l5.181.032-.121-.043a5.594,5.594,0,0,1-.8-.341,4.486,4.486,0,0,1-.663-.487,4.1,4.1,0,0,1-1.319-1.689c0-.024.039-.831.039-.853l-2.249.118a5.118,5.118,0,0,1,.059,2.1" transform="translate(-620.299 -684.221)" fill="#fda271"/>
    <path id="Path_54489" data-name="Path 54489" d="M780.287,892.16a.764.764,0,0,1-.153.19c-.852.781-3.243.382-4.717.377-.2-.016-.349-.285-.634-.444a.694.694,0,0,0-.729.38c-.678-.033-1.393-.064-1.393-.064s.007-.3.018-.611c.011-.3.027-.606.045-.687.108-.494.272-1.077.416-1.668.4.388,1,.857,1.443.216v-.189c0-.338.017-1.049.4-1.3a.494.494,0,0,1,.308-.093,4.1,4.1,0,0,0,1.319,1.69,4.514,4.514,0,0,0,.662.487,5.521,5.521,0,0,0,.8.341c.941.341,2.11.676,2.209,1.262a.424.424,0,0,1,.008.115" transform="translate(-617.618 -690.783)" fill="#100a08"/>
    <path id="Path_54490" data-name="Path 54490" d="M780.287,920.625a.765.765,0,0,1-.153.19c-.852.781-3.243.382-4.717.377-.2-.016-.349-.285-.634-.444a.694.694,0,0,0-.729.38c-.678-.033-1.393-.064-1.393-.064s.007-.3.018-.611l.077.009c.246.024.5.037.76.064.48.049.951-.2,1.425-.057.218.064.384.2.6.247a5.016,5.016,0,0,0,.76.039c.512.025,1.045.038,1.552.056a6.1,6.1,0,0,0,2.424-.3.424.424,0,0,1,.008.115" transform="translate(-617.618 -719.248)" fill="#100a08"/>
    <path id="Path_54491" data-name="Path 54491" d="M656.333,521.056c.154,1.074.247,2.292.393,3.49h3.724c.065-1.911.132-4.9.2-8.461.257-13.251.534-34.388.8-37.02l-7.888-.915q-.131,1.5-.195,3.047c-.432,10.01,1.015,21.245,2.022,31.652.268,2.765.555,5.479.947,8.206" transform="translate(-511.96 -327.797)" fill="#142d30"/>
    <path id="Path_54492" data-name="Path 54492" d="M713.615,504.732a75.711,75.711,0,0,1-.239,18.344l3.5.292a52.818,52.818,0,0,0,1.636-7.8,87.707,87.707,0,0,0,.809-11.406s-2.758-18.946-5.756-27.466l-7.832.859c.371.815.8,1.956,1.259,3.314,2.741,8.089,6.624,23.858,6.624,23.858" transform="translate(-558.379 -326.514)" fill="#142d30"/>
    <path id="Path_54493" data-name="Path 54493" d="M722.77,546.954l3.654.2a79.536,79.536,0,0,0,1.779-9.615,2.233,2.233,0,0,1-1.3.936c-1.675.16-1.746-2.19-1.859-3.142-.175-1.486-.348-8.152,1.325-8.408a13.075,13.075,0,0,0-1.565-.883c.545-.4,1.367-.528,1.887-.966a7.956,7.956,0,0,0-2.406.04c-.916-3.676-1.816-7.371-3.063-11.068a53.246,53.246,0,0,1-1.583-5.833c-.471-2.2-.812-3.126,1.433-4.31-.775-.01-1.533.43-2.305.494a6.154,6.154,0,0,1,2.775-2.88,8.362,8.362,0,0,0-3.539,2.225,13.477,13.477,0,0,1-1.323-.9c2.741,8.089,6.625,23.858,6.625,23.858s.877,11.657-.538,20.252" transform="translate(-568.073 -348.484)" fill="#020709"/>
    <path id="Path_54494" data-name="Path 54494" d="M656.333,544.524c.154,1.074.434,3.709.58,4.907l3.553.1c.065-1.91.117-6.419.186-9.979-3.86,1.067-5.771-6.763-2.979-7.31-.51-.138-1.081-.178-1.606-.334.671-.311,1.757-.516,2.413-.824a9.407,9.407,0,0,0-2.427.052c-.851-3.622-.677-7.6-1.063-11.363a71.483,71.483,0,0,1-.152-7.456c0-2.04,1.01-5.273.609-6.937l-2.082-.716c-.432,10.01,1.015,21.245,2.022,31.652.268,2.765.555,5.479.947,8.206" transform="translate(-511.96 -351.266)" fill="#020709"/>
    <path id="Path_54495" data-name="Path 54495" d="M758.394,250.369c.851,2.292,1.558,2.342,3.908,2.913a35.441,35.441,0,0,1,6.287,2.14c.261.115,1.618.729,3.008,1.244.488.181.98.35,1.431.481l.129.11a1.832,1.832,0,0,0,.861,0,6.561,6.561,0,0,0,.742-.139c.508-.928.682.184,1.326-.666.067-.088.84.17,1.2-.139.181-.155.258-.451.093-1-.339-1.131-2.79-3.1-4.536-4.013a36.279,36.279,0,0,0-4.989-2.826c-.843-.406-1.8-.966-2.614-1.253-.638-.224-4.329-2.116-6.011-2.078-1.28.028-2.367,1.105-.834,5.232" transform="translate(-604.325 -121.562)" fill="#29474b"/>
    <path id="Path_54496" data-name="Path 54496" d="M667.937,229.111c-.153-1.921-1.508-1.681-2.673-2.441l-7.216-2.8c-.939.988-2.912,1.119-4.182,1.406a12.65,12.65,0,0,0-2.665.6c-.7.449-.521,3.2-.462,4.039.286,4.1.776,6.474,1.211,10.656a64.257,64.257,0,0,1-.395,11.81c3.974,2.786,10.049,2.538,12.79,1.218,1.062-.511-.117-3.147.2-4.257.748-2.652.981-5.278,1.476-7.98.478-2.61,1.23-5.191,1.574-7.819a21.357,21.357,0,0,0,.347-4.434" transform="translate(-509.647 -102.739)" fill="#9595c1"/>
    <path id="Path_54497" data-name="Path 54497" d="M719.24,181.02a9.481,9.481,0,0,0-.845,1.815c-.062.256-.231.628-.365,1.083-1.408,4.788-1.881,4.72-1.881,4.72a7.9,7.9,0,0,0-3.17-3.885c-1.67-.957-1.63-2.548-.634-4.271.186-.323.464-.817.751-1.385.709-1.408,1.479-3.271,1.093-4.12Z" transform="translate(-563.617 -59.465)" fill="#fda271"/>
    <path id="Path_54498" data-name="Path 54498" d="M730.382,181.02a9.474,9.474,0,0,0-.845,1.815,8.365,8.365,0,0,1-.365,1.083,4.572,4.572,0,0,1-1.726-.543,6.5,6.5,0,0,1-3.208-4.278c.709-1.408,1.479-3.271,1.093-4.12Z" transform="translate(-574.758 -59.465)" fill="#de7f50"/>
    <path id="Path_54499" data-name="Path 54499" d="M719.826,266.184l.115-.012a.143.143,0,0,0-.115.012" transform="translate(-570.853 -140.174)" fill="#9595c1"/>
    <path id="Path_54500" data-name="Path 54500" d="M724.573,265.765a.6.6,0,0,1-.032.094,1.388,1.388,0,0,0-.082-.477,11.385,11.385,0,0,0-1.663-2.934,8.149,8.149,0,0,0-1.97-1.186l2.133-.644a14.074,14.074,0,0,1,1.423,3.443c.006.023.013.047.018.071.019.071.036.14.053.209.028.119.053.234.074.344a2.679,2.679,0,0,1,.047,1.078" transform="translate(-571.738 -135.264)" fill="#9595c1"/>
    <path id="Path_54501" data-name="Path 54501" d="M754.191,263.619c-.359.077-1.784,1.985-3.156,2.781l-.05.028-.048.026c-.044.024-.089.048-.134.069a1.5,1.5,0,0,0,.119-.271h0c0-.01.007-.021.01-.033a2.531,2.531,0,0,0,.068-.267,7.376,7.376,0,0,1,1.058-2.976Z" transform="translate(-598.271 -137.352)" fill="#9595c1"/>
    <path id="Path_54502" data-name="Path 54502" d="M706.883,217.838c-.514.456-.893.78-1.571,1.293-.526.4.242,4.574.162,5.227.693.078,3.075-1.428,3.794-1.517-.783-.4-2.1-3.881-2.386-5" transform="translate(-557.843 -97.4)" fill="#c1bfdf"/>
    <path id="Path_54503" data-name="Path 54503" d="M761.228,230.337a5.253,5.253,0,0,1,.667.973,17.608,17.608,0,0,1,.445,4.249c-.49-.015-1.019-1.145-2.705-1.171.474-1.15,1.05-2.359,1.594-4.051" transform="translate(-606.087 -108.462)" fill="#c1bfdf"/>
    <path id="Path_54504" data-name="Path 54504" d="M792.882,184.538a.612.612,0,0,1,1.088.242,2.627,2.627,0,0,1-.668,2.077c-.362.448-1.048,1.083-1.442.494-.419-.626.824-2.585,1.023-2.812" transform="translate(-634.533 -67.711)" fill="#fda271"/>
    <path id="Path_54505" data-name="Path 54505" d="M798.716,187.606c.115.435-.333,1.035-.545,1.368.156-.361.425-.788.234-1.185s-.534-.094-.758.148c.257-.151.228.423.152.566-.123.232-.348.257-.455.03-.2-.417.941-2.563,1.372-.927" transform="translate(-639.443 -70.105)" fill="#de7f50"/>
    <path id="Path_54506" data-name="Path 54506" d="M792.639,142.142l2.318-.29a2.676,2.676,0,0,1,.49,2.131c-.149.892-.946,3.579-1.62,4.21.353-1.7.072-4.754-1.188-6.051" transform="translate(-635.299 -30.146)" fill="#5b241a"/>
    <path id="Path_54507" data-name="Path 54507" d="M728.449,136.542a3.088,3.088,0,0,0,2.185.543c.348-.064,1.212.613,1.768-.222a15.132,15.132,0,0,0,2.014-3.724,6.787,6.787,0,0,1,.692-2.722c.836-2.436.763-3.545-.695-5.8-.992-1.536-5.693-2.228-8.351,4.955-1.212,3.274,1.35,6.221,2.388,6.972" transform="translate(-576.09 -14.003)" fill="#fda271"/>
    <path id="Path_54508" data-name="Path 54508" d="M752.4,171.787a1.823,1.823,0,0,0-.038-.455,1.347,1.347,0,0,1,1.436-.446c1.09.486.244,1.028.165,1.476a3.584,3.584,0,0,0-1.563-.562s0-.008,0-.013" transform="translate(-599.647 -55.793)" fill="#de7f50"/>
    <path id="Path_54509" data-name="Path 54509" d="M752.475,173.478a1.83,1.83,0,0,0-.028-.4,1.57,1.57,0,0,1,.525-.289,1.258,1.258,0,0,1,.74.014.589.589,0,0,1,.479.63,3,3,0,0,1-.153.62,2.955,2.955,0,0,0-.343-.192,3.876,3.876,0,0,0-.827-.284,3.053,3.053,0,0,0-.395-.06c0-.013,0-.026,0-.038" transform="translate(-599.726 -57.483)" fill="#fff"/>
    <path id="Path_54510" data-name="Path 54510" d="M757.036,173.547a2.429,2.429,0,0,1-.392.313,3.886,3.886,0,0,0-.827-.285,1.063,1.063,0,0,1-.009-.521.88.88,0,0,1,.114-.267,1.259,1.259,0,0,1,.74.015.589.589,0,0,1,.479.63,1.393,1.393,0,0,1-.1.115" transform="translate(-602.675 -57.483)" fill="#1b0e09"/>
    <path id="Path_54511" data-name="Path 54511" d="M762.231,177.6c-.05.107-.132.181-.191.166s-.085-.116-.049-.229.131-.19.2-.17.086.126.036.233" transform="translate(-608.158 -61.58)" fill="#fff"/>
    <path id="Path_54512" data-name="Path 54512" d="M787.026,179.58a1.82,1.82,0,0,0-.039-.455,1.347,1.347,0,0,1,1.436-.446c1.09.486.244,1.028.165,1.476a3.583,3.583,0,0,0-1.564-.562s0-.008,0-.013" transform="translate(-630.296 -62.69)" fill="#de7f50"/>
    <path id="Path_54513" data-name="Path 54513" d="M787.105,181.271a1.843,1.843,0,0,0-.028-.4,1.569,1.569,0,0,1,.526-.289,1.257,1.257,0,0,1,.739.014.589.589,0,0,1,.479.63,3.027,3.027,0,0,1-.153.62,2.98,2.98,0,0,0-.344-.192,3.877,3.877,0,0,0-.827-.284,3,3,0,0,0-.395-.06c0-.013,0-.026,0-.038" transform="translate(-630.376 -64.381)" fill="#fff"/>
    <path id="Path_54514" data-name="Path 54514" d="M791.665,181.34a2.428,2.428,0,0,1-.392.313,3.876,3.876,0,0,0-.827-.284,1.062,1.062,0,0,1-.009-.522.873.873,0,0,1,.114-.267,1.258,1.258,0,0,1,.739.014.589.589,0,0,1,.479.63,1.4,1.4,0,0,1-.1.115" transform="translate(-633.325 -64.381)" fill="#1b0e09"/>
    <path id="Path_54515" data-name="Path 54515" d="M796.583,185.641c-.05.107-.132.181-.191.166s-.085-.116-.049-.229.131-.19.2-.17.086.126.036.233" transform="translate(-638.562 -68.694)" fill="#fff"/>
    <path id="Path_54516" data-name="Path 54516" d="M789.744,171.887a3.416,3.416,0,0,1,.9-.083c.727-.038.98.421,1.192,1.04a1.992,1.992,0,0,0-2.145-.009Z" transform="translate(-632.686 -56.654)" fill="#291912"/>
    <path id="Path_54517" data-name="Path 54517" d="M748.133,163.362a4.23,4.23,0,0,0-1.8-.856,1.414,1.414,0,0,0-1.545.5c.65-.212,2.054.426,3.087,1.2Z" transform="translate(-592.943 -48.382)" fill="#291912"/>
    <path id="Path_54518" data-name="Path 54518" d="M766.032,228.082l-.3-.005a.908.908,0,0,0-.195.79c.178-.081.387-.017.56-.073-.127-.135-.192-.676-.065-.712" transform="translate(-611.284 -106.462)" fill="#de7f50"/>
    <path id="Path_54519" data-name="Path 54519" d="M766.136,188.856c.4-.028.711-1.634.761-2.269,0,0,.095.918.079,1.322a5.571,5.571,0,0,1-.3,1.545c-.166.416-1.349-.605-1.531-.8.295,0,.708.225,1,.205" transform="translate(-610.96 -69.74)" fill="#de7f50"/>
    <path id="Path_54520" data-name="Path 54520" d="M729.668,119.779c.947-3.768,1.948-4.666,3.991-4.769h0c.334-.016.7-.012,1.091,0,1.307.056,3.634.975,4.842.229,1.041-.642,1.965-2.133,1.57-3.218,0,0-7.385-2.287-10.213-1.161-.065.025-.128.054-.188.084a1.859,1.859,0,0,0-.448.3,2.9,2.9,0,0,0-.684,1.011c-.9,2.1-.315,5.72.038,7.519" transform="translate(-579.11 -2.445)" fill="#964c38"/>
    <path id="Path_54521" data-name="Path 54521" d="M747.732,107.808l.005,0a.06.06,0,0,1,.011-.01l-.012.009a.02.02,0,0,0,0,.006" transform="translate(-595.553 -0.001)" fill="#291912"/>
    <path id="Path_54522" data-name="Path 54522" d="M725.467,109.621a3.86,3.86,0,0,1,.9.311.883.883,0,0,1,.117.083l.46-.452.638-.626a1.3,1.3,0,0,1,.105-.4,2.751,2.751,0,0,1,.165-.337c.054-.1.114-.19.175-.277a4.983,4.983,0,0,0-.844.772,2.468,2.468,0,0,0-.919-.309,4.549,4.549,0,0,1,.325.871,2.319,2.319,0,0,0-1.12.365" transform="translate(-575.846 -0.116)" fill="#291912"/>
    <path id="Path_54523" data-name="Path 54523" d="M757.611,209.592s-.061.008-.167.029c-.026,0-.055.012-.087.016s-.066.006-.1.01l-.113.012-.127,0a2.534,2.534,0,0,1-.283-.007,1.073,1.073,0,0,1-.152-.017c-.052-.009-.1-.011-.158-.023l-.161-.034c-.055-.01-.108-.031-.163-.044a1.463,1.463,0,0,1-.163-.052c-.054-.02-.109-.038-.162-.06-.106-.047-.212-.091-.312-.147s-.2-.113-.29-.167c-.046-.03-.088-.063-.133-.091a1.119,1.119,0,0,1-.125-.091c-.079-.062-.155-.121-.22-.182s-.127-.115-.178-.168-.1-.1-.132-.138c-.07-.08-.115-.125-.115-.125s.021.058.065.158a1.112,1.112,0,0,0,.09.175l.062.105c.023.036.052.071.08.109s.057.078.089.117l.108.116a2.7,2.7,0,0,0,.252.232,2.917,2.917,0,0,0,.645.377,2.651,2.651,0,0,0,.364.115,2.365,2.365,0,0,0,.365.061c.06.006.119.005.177.006a1.223,1.223,0,0,0,.169-.006c.055-.006.108-.01.159-.016s.1-.021.146-.031.09-.02.132-.032l.117-.044c.036-.014.07-.026.1-.039s.055-.029.079-.042c.094-.052.147-.086.147-.086" transform="translate(-601.338 -88.972)" fill="#de7f50"/>
    <path id="Path_54524" data-name="Path 54524" d="M747.737,107.8l0,.006.006,0a.065.065,0,0,1,.011-.01l-.012.009" transform="translate(-595.553 0)" fill="#150a06"/>
    <path id="Path_54525" data-name="Path 54525" d="M726.366,109.931c-.9,2.1-.315,5.72.038,7.519.947-3.768,1.948-4.666,3.991-4.769-.778-.519-2.014-.147-2.788-.107-.315-1,1.079-1.512,1.568-2.085-.728-.109-1.215.384-1.851.547a2.268,2.268,0,0,1,.711-1.5c-.407-.016-.793.22-1.207.2.04-.058.078-.117.115-.179.187-.3.353-.642.555-.942a2.7,2.7,0,0,1,.246-.319.918.918,0,0,1,.107-.1c.054-.1.114-.189.175-.277a4.988,4.988,0,0,0-.844.772,2.47,2.47,0,0,0-.919-.309,4.539,4.539,0,0,1,.325.871,2.317,2.317,0,0,0-1.12.365,3.859,3.859,0,0,1,.9.311" transform="translate(-575.846 -0.115)" fill="#5b241a"/>
    <path id="Path_54526" data-name="Path 54526" d="M719.357,163.132a.963.963,0,0,0-1.394-.554c-.647.379-.562,1.574-.4,2.187s.6,1.626,1.39,1.412c.837-.228.505-2.718.4-3.045" transform="translate(-568.749 -48.374)" fill="#fda271"/>
    <path id="Path_54527" data-name="Path 54527" d="M719.657,165.73c-.378.282-.2,1.091-.141,1.514.023-.408-.047-.949.4-1.146s.671.293.793.649c-.212-.3-.5.193-.5.364a.359.359,0,0,0,.509.341c.463-.209.358-2.78-1.063-1.722" transform="translate(-570.497 -51.055)" fill="#de7f50"/>
    <path id="Path_54528" data-name="Path 54528" d="M745.021,298.352l-.021.44c-.068,1.412-.222,2.835-.37,4.212-.151,1.4-.308,2.839-.373,4.26a19.335,19.335,0,0,0,.137,3.966l-.1.018a19.409,19.409,0,0,1-.137-3.989c.064-1.423.22-2.869.371-4.267.149-1.375.3-2.8.37-4.205l.021-.44c.11-2.247.258-5.294.153-7.955-.013-.345-.031-.684-.054-1.013,0-.068-.009-.135-.015-.2h0c0-.035-.005-.069-.008-.1.006.023.013.047.018.071a2.474,2.474,0,0,0,.068-.267c.012.147.024.3.034.448.009.123.018.248.024.373.02.351.036.712.047,1.078.077,2.571-.062,5.437-.167,7.578" transform="translate(-592.352 -160.274)" fill="#c1bfdf"/>
    <path id="Path_54529" data-name="Path 54529" d="M669,468.6s-.479.057-1.256.132l-.221.021-.047,0-.143.013-.162.014a38.495,38.495,0,0,1-11.815-.739c-.049-.013.2-.913.338-1.624,0,0,.04-.5.2-.406a24.932,24.932,0,0,0,12.756.981c.015,0,.29-.268.3-.271A6.561,6.561,0,0,1,669,468.6" transform="translate(-513.785 -317.047)" fill="#000305"/>
    <path id="Path_54530" data-name="Path 54530" d="M732.325,476.184l2.288.053-.031-2.088-2.195.427,1.631.031-.015.35-1.509.213.03.137,1.443-.089-.025.5Z" transform="translate(-581.916 -324.256)" fill="#a7ccd3"/>
    <path id="Path_54531" data-name="Path 54531" d="M670.02,469.345a3.331,3.331,0,0,1-.754-.186,13.868,13.868,0,0,0-.319,2.431l.793.3c-.271-.156.1-2.129.28-2.551" transform="translate(-525.821 -319.84)" fill="#29454b"/>
    <path id="Path_54532" data-name="Path 54532" d="M761.844,472.9a3.34,3.34,0,0,0,.775-.052,13.9,13.9,0,0,1-.109,2.45l-.834.163c.293-.107.274-2.114.167-2.56" transform="translate(-607.895 -323.109)" fill="#29454b"/>
    <path id="Path_54533" data-name="Path 54533" d="M769.938,263.56a45.069,45.069,0,0,0-.3,6.825c.1,1.832.647,4.109.391,5.87-.994-.016-1.94.386-2.913.3a61.26,61.26,0,0,1-.539-6.836q0-.064-.006-.128c-.216-4.446.783-8.859,1.043-13.244.243-4.084.4-8.128.4-12.26l1.085.61.539.3c2.129,1.119,1.955,3.342,1.526,5.583-.809,4.222-.8,8.652-1.221,12.971" transform="translate(-612.195 -120.638)" fill="#29474b"/>
    <path id="Path_54534" data-name="Path 54534" d="M769.634,254.446c-.2,1.787-.392,3.6-.714,5.358-.608,3.338-1.284,6.72-1.827,10.071-.141.873-.239,1.844-.381,2.631-.04-.929-.089-1.856-.14-2.782,0-.043,0-.085-.006-.128-.216-4.446.783-8.859,1.043-13.244.243-4.084.4-8.128.4-12.26l1.085.61a3.229,3.229,0,0,1,.866,1.138,13.472,13.472,0,0,1,.064,3.919,4.162,4.162,0,0,0-1.193.5c1.971.533.978,2.6.8,4.184" transform="translate(-612.195 -120.637)" fill="#486e73"/>
    <path id="Path_54535" data-name="Path 54535" d="M639.785,237.886c-.027,2.722-.382,6.971-.786,11-.318,3.165-.667,6.194-.915,8.239-.191,1.567-.32,2.557-.33,2.588-4.568,2.436-9.323-.742-9.44-.711.1-4.466,2.283-5.653,2.538-9.136.109-1.492-.2-4.365-.3-7.512-.1-3.189-.156-5.779-.2-7.753a40.361,40.361,0,0,0-.185-4.631,8.647,8.647,0,0,1-.815-1.951c-.057-.977,1.375-2.238,2.335-2.593a19.286,19.286,0,0,1,4.038-.835l.2-.071,2.037-.741c.676.344,1.929,4.06,1.827,14.11" transform="translate(-489.859 -102.655)" fill="#29474b"/>
    <path id="Path_54536" data-name="Path 54536" d="M638.085,313.412c-.191,1.567-.32,2.557-.33,2.587-4.568,2.436-9.323-.742-9.44-.711.1-4.466,2.283-5.653,2.538-9.136.109-1.492-.2-4.365-.3-7.512-.1-3.189-.156-5.779-.2-7.753a8.594,8.594,0,0,1,2.125-3.514l-.1,1.523c.1,1.776-.523,2.777-.6,4.165-.089,1.534-.107,3.105-.107,4.666,0,1.505.009,2.991.1,4.471.063,1.073-.066,3.091.325,4.04a8.522,8.522,0,0,1,3.857,1.6,5.939,5.939,0,0,0-3.56-.746,6.791,6.791,0,0,1,2.387,1.917,3.994,3.994,0,0,0-2.651-1.134c-.873,1.821-1.473,4.661.563,6.072,1.346.934,3.814.536,5.4-.532" transform="translate(-489.859 -158.945)" fill="#1e3435"/>
    <path id="Path_54537" data-name="Path 54537" d="M698.366,237.886c-.027,2.722-.382,6.971-.786,11-.016-.17-2.666-16.885-2.666-16.885s.69-1.369,1.5-2.665a13.053,13.053,0,0,0-1.885.418c-.061-1.046.482-4.312-.024-5.235l2.037-.741c.676.344,1.929,4.06,1.827,14.11" transform="translate(-548.44 -102.655)" fill="#486e73"/>
    <path id="Path_54538" data-name="Path 54538" d="M619.751,444.554c-.08-.247-1.622-.749-2.057-.886.195-.018,1.531.232,1.6.081.34-.708-1.337-.922-1.706-1a2.063,2.063,0,0,0-1.132-.065,2.6,2.6,0,0,0-.721.451c-.568.446-1.293,1.267-1.9,1.244l-1.421,1.421a2.3,2.3,0,0,0,.418.626,2.06,2.06,0,0,0,3.033.277,3.528,3.528,0,0,0,1.726.934c.531-.51-.6-1.44-1.078-1.743.744.354,2.4,1.124,2.583.4-.049-.763-1.592-1.227-2.027-1.4.485.026,2.993.632,2.682-.332" transform="translate(-475.786 -296.358)" fill="#fda271"/>
    <path id="Path_54539" data-name="Path 54539" d="M616.193,446.127c-.741.1-.863,1.278-1.748,1.318a2.745,2.745,0,0,1-1.612-.592,2.291,2.291,0,0,1-.418-.626l1.421-1.421c.61.023,1.335-.8,1.9-1.243a2.6,2.6,0,0,1,.721-.451.408.408,0,0,0-.027.07.6.6,0,0,0,.3.678c-.712.011-.736,1-.2,1.285-.44.055-.81.686-.338.983" transform="translate(-475.786 -296.785)" fill="#de7f50"/>
    <path id="Path_54540" data-name="Path 54540" d="M549.327,239.993c-.3,2.426-.976,2.638-3.13,3.737a35.439,35.439,0,0,0-5.623,3.535c-.227.172-1.406,1.083-2.639,1.905-.433.289-.873.567-1.281.8-.032.043-.065.088-.1.137a1.83,1.83,0,0,1-.838.2,6.492,6.492,0,0,1-.754.036c-.709-.786-.621.337-1.445-.342-.085-.07-.779.359-1.2.142-.212-.109-.355-.379-.322-.954.069-1.179,2-3.659,3.487-4.953a36.28,36.28,0,0,1,4.2-3.9c.727-.59,1.524-1.354,2.254-1.823.569-.365,3.723-3.058,5.369-3.41,1.252-.268,2.558.529,2.02,4.9" transform="translate(-404.604 -112.633)" fill="#29474b"/>
    <path id="Path_54541" data-name="Path 54541" d="M544.064,356.95c-.608.579-1.3,2.014-1.929,2.538-2.158-2.025-3.451-4.314-5.278-6.8a23.9,23.9,0,0,1-3.383-6.2c-.282-.974-.254-1.687.287-1.868l4.044-.711a3.5,3.5,0,0,0,.678.944c.2.217.41.442.609.667a4.8,4.8,0,0,1,.566.755c.529.931,2.194,7.082,3.759,9.775a4.694,4.694,0,0,0,.647.9" transform="translate(-405.76 -208.98)" fill="#29474b"/>
    <path id="Path_54542" data-name="Path 54542" d="M559.439,292.795c-.227.171-1.406,1.083-2.639,1.905a4.784,4.784,0,0,1,.566.755c.529.931,2.194,7.082,3.759,9.775-1.171-1-1.788-3.363-2.272-4.729a13.735,13.735,0,0,0-2.555-4.876c-.825.207-1.506.938-2.28,1.2a3.032,3.032,0,0,1,.562-.995,3.486,3.486,0,0,1,1.319-.921c-.9.1-1.714-.258-2.6-.221a4.424,4.424,0,0,1,2.887-.657c.052.008.1.017.152.028a32.275,32.275,0,0,1,4.138-4.043c.949-.7,1.924-1.4,2.887-2.106a10.773,10.773,0,0,1,2.617-1.421v2.538a39.516,39.516,0,0,0-6.545,3.766" transform="translate(-423.468 -158.163)" fill="#1e3435"/>
    <path id="Path_54543" data-name="Path 54543" d="M744.876,295.6c0,.154-.091.279-.2.279s-.2-.125-.2-.279.091-.279.2-.279.2.125.2.279" transform="translate(-592.665 -165.982)" fill="#c1bfdf"/>
    <path id="Path_54544" data-name="Path 54544" d="M744.435,356.331c0,.154-.091.279-.2.279s-.2-.125-.2-.279.091-.279.2-.279.2.125.2.279" transform="translate(-592.275 -219.731)" fill="#c1bfdf"/>
    <path id="Path_54545" data-name="Path 54545" d="M739.135,440.246c0,.154-.091.279-.2.279s-.2-.125-.2-.279.091-.279.2-.279.2.125.2.279" transform="translate(-587.584 -294.002)" fill="#c1bfdf"/>
    <path id="Path_54546" data-name="Path 54546" d="M806.723,266.139c-.836,2.679-.791,6.141-1.341,8.963-.575,2.949-.527,6.843-.793,9.816-.075.837.066,3.351-.18,5.084,0,.031-.009.062-.013.092-.121.787-.327,1.4-.676,1.591a2.622,2.622,0,0,1-.616.178l-.221.021-.048,0-.142.013-.162.014a34.337,34.337,0,0,1-11.192-.647q-.045-.946-.088-1.9c-.346-7.806-.543-15.764-2.929-23.071l-.013-.041.061-.04.057-.038c1.238-.8,3.112-1.664,4.943-2.727l8.842.473c1.219.853,3.306,1.516,4.512,2.211" transform="translate(-631.466 -137.775)" fill="#bbdae7"/>
    <path id="Path_54547" data-name="Path 54547" d="M804.5,310.994c-.121.787-.327,1.4-.676,1.591a2.624,2.624,0,0,1-.616.178l-.221.021-.048,0-.143.013-.162.014a34.337,34.337,0,0,1-11.192-.647q-.045-.946-.088-1.9c-.346-7.806-.543-15.764-2.929-23.071l.048-.081.03-.051.026.014a9.611,9.611,0,0,1,2.406,3.676c.563,2.157.281,5.273.7,7.449.394,2.067.653,4.168,1.006,6.241a9.219,9.219,0,0,0,1.283,4c2.214,2.933,7.1,4.073,10.577,2.547" transform="translate(-631.57 -158.674)" fill="#7fb2c7"/>
    <path id="Path_54548" data-name="Path 54548" d="M840.911,211.158a7.38,7.38,0,0,1-1.4,2.77,3.134,3.134,0,0,0-1.118-.666,19.011,19.011,0,0,0-1.892,1.053,4.6,4.6,0,0,0-.7.131c-1.207-1.524-2.136-3.089-3.457-4.766.964-.085.82.373,1.484-.294a1.586,1.586,0,0,0,.223-.434,21.343,21.343,0,0,0,.789-2.684,9.652,9.652,0,0,0,.387-3.572l5.769,4.6a3.972,3.972,0,0,0-.6,2.168c0,.043,0,.086.007.129a2.14,2.14,0,0,0,.129.6c.382,1-.738.531.38.968" transform="translate(-670.441 -83.999)" fill="#fda271"/>
    <path id="Path_54549" data-name="Path 54549" d="M859.549,209.462c.308,4.116-5.85-.554-5.554-3.194a9.64,9.64,0,0,0,.386-3.571l5.769,4.6a3.97,3.97,0,0,0-.6,2.168" transform="translate(-689.595 -83.998)" fill="#de7f50"/>
    <path id="Path_54550" data-name="Path 54550" d="M874.373,289.277l-.357.548-.2.311-.663,1.016-.149.229-.748-.427-1.11-.635-.062-.036.14-.5.275-.99a5.431,5.431,0,0,0,1.185.671c.141-.168.28-.323.414-.472Z" transform="translate(-704.727 -160.197)" fill="#172738"/>
    <path id="Path_54551" data-name="Path 54551" d="M877.13,302.192l-.64.053s-.441,15.576-.64,19.867c-.046.984,1.555,1.672,1.555,1.672l1.1-1.574s-.64-19.527-1.372-20.018" transform="translate(-708.946 -172.06)" fill="#172738"/>
    <path id="Path_54552" data-name="Path 54552" d="M838.4,257.3a.761.761,0,0,0-.243.091c-.307.155-.8.484-1.295.768-.119.069-.238.134-.354.194a3.57,3.57,0,0,1-.653.273,14.249,14.249,0,0,0-2.47.884c.844-2.082-.993-3.941-1.037-5.793l.243-.167,1.6-1.1a10.157,10.157,0,0,0,3.022,4.176,5.43,5.43,0,0,0,1.185.671" transform="translate(-670.441 -128.033)" fill="#d0e8f0"/>
    <path id="Path_54553" data-name="Path 54553" d="M888.073,267.888a6.489,6.489,0,0,1-1.932-.879l-.014-.01a5.362,5.362,0,0,0-.918-.608.6.6,0,0,0-.2-.057c.141-.168.28-.323.414-.472a4.79,4.79,0,0,0,1.582-3.2l.01,0,.92.469c-.014.542-.035,1-.05,1.417a15.741,15.741,0,0,0,.187,3.339" transform="translate(-717.054 -137.07)" fill="#d0e8f0"/>
    <path id="Path_54554" data-name="Path 54554" d="M837.621,265.986c.239-.06.4-.108.532-.14-.38.193-1.043.649-1.649.962a3.57,3.57,0,0,1-.653.274,14.231,14.231,0,0,0-2.47.884c.844-2.082-.993-3.941-1.037-5.793l.243-.167a5.245,5.245,0,0,0,.756,2.15,12.321,12.321,0,0,1,.816,2.547c.467-.149.959-.439,1.442-.541.63-.134,1.376-.017,2.02-.177" transform="translate(-670.442 -136.493)" fill="#e9f9ff"/>
    <path id="Path_54555" data-name="Path 54555" d="M889.615,282.443a6.441,6.441,0,0,1-1.945-.889,5.354,5.354,0,0,0-.918-.608,3.583,3.583,0,0,1,.486.105,13.754,13.754,0,0,0,1.815.509,7.054,7.054,0,0,1,.375-2.456,15.729,15.729,0,0,0,.187,3.339" transform="translate(-718.596 -151.625)" fill="#e9f9ff"/>
    <path id="Path_54556" data-name="Path 54556" d="M947.877,890.7c-.1.39-.008.754-.126,1.117l4.987.031-.116-.042a5.4,5.4,0,0,1-.767-.328,4.351,4.351,0,0,1-.638-.469,3.947,3.947,0,0,1-1.269-1.626c0-.023.038-.8.037-.821l-2.165.114a4.923,4.923,0,0,1,.057,2.024" transform="translate(-772.586 -691.042)" fill="#fda271"/>
    <path id="Path_54557" data-name="Path 54557" d="M952.175,899.442a.74.74,0,0,1-.147.183c-.82.752-3.122.368-4.54.363-.2-.016-.336-.274-.61-.427a.668.668,0,0,0-.7.366c-.653-.032-1.341-.061-1.341-.061s.006-.287.018-.588c.011-.285.026-.583.043-.661.1-.476.262-1.037.4-1.605.389.373.965.825,1.388.208v-.182c0-.326.016-1.01.386-1.253a.474.474,0,0,1,.3-.09,3.948,3.948,0,0,0,1.27,1.626,4.375,4.375,0,0,0,.637.468,5.308,5.308,0,0,0,.767.328c.905.328,2.03.65,2.127,1.214a.411.411,0,0,1,.007.111" transform="translate(-770.005 -697.357)" fill="#44332d"/>
    <path id="Path_54558" data-name="Path 54558" d="M809.134,891.222c-.365.348-1.618.36-2.032.36a7.713,7.713,0,0,1-2.624-.292,1.2,1.2,0,0,1,.382-.748c.855-.022,1.884-.009,2.242.023a7.991,7.991,0,0,1,2,.65c-.164-.631-.4-1.447-.528-2.212a8.786,8.786,0,0,0-1.8-.2h-.013c-.169-.005-.339-.009-.5-.01h-.1c.057-.215.107-.46.146-.7a3.573,3.573,0,0,0,.039-1.279h2.034a4.633,4.633,0,0,0,.069,1.491c.034.19.073.384.115.577.129.582.291,1.16.413,1.634.072.278.131.519.163.705" transform="translate(-645.778 -689.5)" fill="#fda271"/>
    <path id="Path_54559" data-name="Path 54559" d="M812.04,906.482a7.993,7.993,0,0,0-2-.65c-.358-.033-1.388-.046-2.242-.024.157-.179.344-.358.521-.53l0,0a3.218,3.218,0,0,0,.573-.651,2.822,2.822,0,0,0,.2-.56h.18c.109,0,.221,0,.333.007l.087,0h.013a8.79,8.79,0,0,1,1.8.2c.133.765.365,1.58.528,2.212" transform="translate(-648.719 -704.766)" fill="#ffb576"/>
    <path id="Path_54560" data-name="Path 54560" d="M809.161,925.434c0,.007,0,.013,0,.019s0,.012,0,.017,0,0,0,.005a.26.26,0,0,1-.006.026.148.148,0,0,1-.009.023c-.237.431-1.654.445-2.1.445-1.271,0-2.338.093-2.544-.634,0-.01-.005-.02-.007-.03l0-.021c0-.007,0-.014,0-.021a.054.054,0,0,0,0-.011c0-.006,0-.011,0-.017a.006.006,0,0,1,0,0,7.714,7.714,0,0,0,2.624.291c.413,0,1.667-.012,2.031-.36.006.035.011.068.015.1,0,0,0,0,0,0,0,.027.006.053.007.077,0,0,0,.006,0,.009a.548.548,0,0,1,0,.081" transform="translate(-645.781 -723.442)" fill="#ffb576"/>
    <path id="Path_54561" data-name="Path 54561" d="M809.161,925.429c0,.007,0,.013,0,.019s0,.012,0,.017,0,0,0,0a.133.133,0,0,1-.006.026.148.148,0,0,1-.009.023c-.237.431-1.654.445-2.1.445-1.271,0-2.338.093-2.544-.634,0-.01-.005-.02-.007-.03l0-.021c0-.008,0-.014,0-.021a.055.055,0,0,0,0-.011c0-.006,0-.011,0-.017a.006.006,0,0,1,0,0,7.714,7.714,0,0,0,2.624.291c.413,0,1.667-.012,2.031-.36h0c.006.035.01.068.015.1,0,0,0,0,0,0,0,.027.005.053.007.077,0,0,0,.006,0,.009a.612.612,0,0,1,0,.081" transform="translate(-645.781 -723.437)" fill="#0a0604"/>
    <path id="Path_54562" data-name="Path 54562" d="M809.158,897.3c0,.007,0,.013,0,.019s0,.012,0,.017,0,0,0,0a.133.133,0,0,1-.006.026.153.153,0,0,1-.009.023c-.237.431-1.847.605-2.291.605-1.271,0-2.145-.068-2.351-.794,0-.01-.006-.02-.007-.03l0-.021c0-.008,0-.014,0-.021a.055.055,0,0,0,0-.011c0-.006,0-.011,0-.017a.006.006,0,0,1,0,0,1.2,1.2,0,0,1,.382-.748c.157-.179.344-.358.521-.53l0,0c1.461-1.588.64-2.439,1.613-2.439.912,0,.939,1.279,1.56,1.314.129.582.29,1.16.413,1.634.072.278.131.519.162.7h0c.006.035.01.068.015.1,0,0,0,0,0,0,0,.027.006.053.007.077,0,0,0,.006,0,.009a.539.539,0,0,1,0,.081" transform="translate(-645.778 -695.312)" fill="#44332d"/>
    <path id="Path_54563" data-name="Path 54563" d="M809.159,924.688c0,.006,0,.013,0,.018s0,.012,0,.017a.01.01,0,0,0,0,.005.171.171,0,0,1-.006.026.14.14,0,0,1-.01.024c-.237.431-1.848.6-2.291.6-1.271,0-2.145-.068-2.351-.794,0-.01-.005-.02-.007-.029a.174.174,0,0,1,0-.021.148.148,0,0,1,0-.021.04.04,0,0,0,0-.011c0-.005,0-.011,0-.017v0a.58.58,0,0,1,.03-.2c.269.61,1.112.67,2.307.67.444,0,2.054-.175,2.291-.605a.147.147,0,0,0,.009-.023.008.008,0,0,0,0,0l.017.093c.006.036.011.069.015.1,0,0,0,0,0,0,0,.027.005.054.007.078v.008a.608.608,0,0,1,0,.081" transform="translate(-645.779 -722.665)" fill="#050302"/>
    <path id="Path_54564" data-name="Path 54564" d="M952.175,926.84a.742.742,0,0,1-.147.183c-.82.752-3.122.368-4.54.363-.2-.015-.336-.274-.61-.427a.668.668,0,0,0-.7.366c-.653-.032-1.341-.061-1.341-.061s.006-.287.018-.588l.074.009c.237.023.486.036.732.061.462.048.916-.191,1.372-.055.209.062.369.193.579.238a4.835,4.835,0,0,0,.732.037c.493.024,1.006.036,1.494.054a5.868,5.868,0,0,0,2.333-.291.411.411,0,0,1,.007.111" transform="translate(-770.005 -724.755)" fill="#050302"/>
    <path id="Path_54565" data-name="Path 54565" d="M828.463,536.922a9.184,9.184,0,0,1-2.964.245c-1.57-2.468-3.335-13.889-7.214-32.372q-.62-2.954-1.314-6.146c0,.087-.021.383-.058.857-.391,5.213-2.68,31.934-3.267,37.319a10.512,10.512,0,0,1-2.881.052c-.348-1.318-.632-7.3-.819-14.185-.224-8.241-.308-17.764-.192-22.079.021-.784.05-1.625.083-2.479.006-.165.013-.329.019-.494.106-2.645.248-5.33.34-6.745l2.909,1.2.447.184.226.093,7.717.09.307,0,.128,0,1.136-.428c.313,1.21.558,3.351.9,5.725.026.175.051.35.078.528.053.355.108.712.166,1.072,1.129,6.958,2.271,16.7,3.088,24.557.67,6.46,1.121,11.654,1.162,13" transform="translate(-650.402 -339.078)" fill="#2b5077"/>
    <path id="Path_54566" data-name="Path 54566" d="M814.61,500c-.005.081-.011.162-.017.242a10.312,10.312,0,0,1-.979,4.389,5.525,5.525,0,0,1-2.736,1.17c.006-.156.013-.313.019-.469a5.347,5.347,0,0,0,2.331-.947,10.97,10.97,0,0,0,.917-4.317c0-.034.006-.067.007-.1Z" transform="translate(-651.442 -347.11)" fill="#3d74a5"/>
    <path id="Path_54567" data-name="Path 54567" d="M913.712,509.236a3.53,3.53,0,0,1-1.706-.895,10.885,10.885,0,0,1-1-4.632l.151-.01.306-.021c0,.008,0,.016,0,.024.074,1.088.232,3.31.924,4.393a2.8,2.8,0,0,0,1.242.639c.026.166.051.333.078.5" transform="translate(-740.067 -350.393)" fill="#3d74a5"/>
    <path id="Path_54568" data-name="Path 54568" d="M865.771,511.381a1.92,1.92,0,0,1-.769-.122l-.166-.077.056-.42a9.45,9.45,0,0,0,.082-3.234l.429-.179a9.524,9.524,0,0,1-.057,3.482,3.928,3.928,0,0,0,.9.013c.017-.205.043-.463.074-.766a16.041,16.041,0,0,0,.054-4.625l.432-.171a15.9,15.9,0,0,1-.031,4.856c-.041.4-.076.754-.087.966l-.012.23-.3.021c-.182.013-.394.028-.6.028" transform="translate(-699.199 -351.81)" fill="#3d74a5"/>
    <path id="Path_54569" data-name="Path 54569" d="M826.485,491.205s-.478.058-1.256.132l-.221.021-.048,0-.143.013-.162.014a34.333,34.333,0,0,1-11.192-.647l-.149-.04c-.027-.561.025-1.311,0-1.875l.061.018a31.612,31.612,0,0,0,13.158.63l.043-.008a9.4,9.4,0,0,0-.091,1.738" transform="translate(-653.592 -337.247)" fill="#000305"/>
    <path id="Path_54570" data-name="Path 54570" d="M873.468,497.033l2.3-.015-.031-2.088-2.2.427,1.631.031-.015.35-1.509.213.031.137,1.443-.089-.025.5Z" transform="translate(-706.839 -342.648)" fill="#88979c"/>
    <path id="Path_54571" data-name="Path 54571" d="M823.87,490.272a3.322,3.322,0,0,1-.755-.186,13.882,13.882,0,0,0-.318,2.431l.793.3c-.271-.156.1-2.129.28-2.551" transform="translate(-661.991 -338.362)" fill="#24364f"/>
    <path id="Path_54572" data-name="Path 54572" d="M915.692,493.832a3.34,3.34,0,0,0,.775-.052,13.852,13.852,0,0,1-.109,2.45l-.834.162c.294-.107.275-2.114.167-2.56" transform="translate(-744.063 -341.631)" fill="#24364f"/>
    <path id="Path_54573" data-name="Path 54573" d="M815.527,598.444a10.506,10.506,0,0,1-2.881.052c-.348-1.318-.632-7.3-.819-14.186a4.085,4.085,0,0,0,1.7.729c3.61.327,5.178-22.417,5.212-24.525,0,0-2.627,32.545-3.214,37.93" transform="translate(-652.283 -400.696)" fill="#263c51"/>
    <path id="Path_54574" data-name="Path 54574" d="M894.566,643.983a9.183,9.183,0,0,1-2.964.245c-1.57-2.468-3.335-13.89-7.214-32.372.895,2.074,1.209,4.779,1.829,6.962.681,2.4,1.246,4.805,1.851,7.174a11.68,11.68,0,0,0,2.268,4.969,1.869,1.869,0,0,0,3.067.021c.67,6.46,1.121,11.654,1.162,13" transform="translate(-716.504 -446.138)" fill="#263c51"/>
    <path id="Path_54575" data-name="Path 54575" d="M993.019,450.33a1.635,1.635,0,0,0-1.219.374c-.2.131-.965.193-.828.623a1.128,1.128,0,0,0,.782.623,3.772,3.772,0,0,0,2.3-.062c.621-.369-.191-.62.552-.623Z" transform="translate(-810.826 -303.171)" fill="#de7f50"/>
    <path id="Path_54576" data-name="Path 54576" d="M921.36,206.536a.615.615,0,0,1,1.1.215,2.641,2.641,0,0,1-.618,2.105c-.352.459-1.026,1.115-1.437.534-.437-.618.762-2.62.956-2.854" transform="translate(-748.297 -87.168)" fill="#fda271"/>
    <path id="Path_54577" data-name="Path 54577" d="M927.047,209.6c.126.435-.309,1.049-.513,1.389.148-.367.407-.8.2-1.2s-.54-.08-.758.168c.254-.159.24.419.168.565-.117.236-.343.267-.457.042-.209-.414.879-2.6,1.355-.967" transform="translate(-753.039 -89.582)" fill="#de7f50"/>
    <path id="Path_54578" data-name="Path 54578" d="M856.117,151.473a3.063,3.063,0,0,0,2.1.771,1.988,1.988,0,0,0,1.5-1,15.213,15.213,0,0,0,1.929-3.8,5.545,5.545,0,0,1,.4-2.361c.777-2.471.9-3.977-.622-6.208-1.037-1.518-4.955-3.319-5.883-.638l-.48,1.4c-.5,1.86-.393,3.752-1.294,5.461-1.638,3.1,1.292,5.645,2.355,6.373" transform="translate(-688.967 -25.727)" fill="#fda271"/>
    <path id="Path_54579" data-name="Path 54579" d="M856.976,132.933a9.493,9.493,0,0,0,.238-2.995c-.29-.934-.245-.216-1.038-.116-1.729.22-2.349-1.7-3.405-2.607-1.593-.43-2,.555-2.54,1.752a13.389,13.389,0,0,0-1.113,3l-.9-.943a2.462,2.462,0,0,0-.412-2.205c-.52-.855-.457-1.024-.007-1.9.113-.222.237-.443.371-.659a6.609,6.609,0,0,1,.992-1.254c.673-.65,1-.487,1.934-.29a2.5,2.5,0,0,0,.04-.762c1.108-.64,3.371.054,4.473.53a4.141,4.141,0,0,1,1.782,1.289,2.519,2.519,0,0,1,.287,1.788c.289-.085.593-.154.882-.215a5.87,5.87,0,0,1-.074,1.068,11.667,11.667,0,0,1-1.507,4.521" transform="translate(-683.798 -14.074)" fill="#492d24"/>
    <path id="Path_54580" data-name="Path 54580" d="M856.664,144.371c.141-.747.739-3.675.55-4.285-.29-.934-.245-.216-1.038-.116-1.729.22-2.349-1.7-3.405-2.607-1.593-.43-1.968.917-2.507,2.113-.4.881-.631,5.378-1.7,4.851l-.35-3.154a2.462,2.462,0,0,0-.412-2.205c-.52-.855-.457-1.024-.007-1.9.113-.222.237-.443.371-.659a1.015,1.015,0,0,0,.915.84,1.57,1.57,0,0,0,1.6-.561c.487-.477.984-.409,1.613-.565a1.59,1.59,0,0,0-.438-.961c.664.155.8.9,1.271,1.223a2.473,2.473,0,0,0,.05-.761c.422.388.574,1,.974,1.427a11.948,11.948,0,0,0,1.085,1,3.773,3.773,0,0,0,1.115.795c.591.182.808-.29,1.085-.652a2.088,2.088,0,0,1,.184.7,1.334,1.334,0,0,0,.865-.333c-.224,1.552-1.2,5.113-1.819,5.811" transform="translate(-683.798 -24.221)" fill="#1b0e09"/>
    <path id="Path_54581" data-name="Path 54581" d="M844.849,190.309a.968.968,0,0,0-1.415-.521c-.641.4-.525,1.6-.345,2.209s.647,1.619,1.433,1.383c.835-.251.438-2.745.327-3.071" transform="translate(-679.826 -72.446)" fill="#fda271"/>
    <path id="Path_54582" data-name="Path 54582" d="M845.123,192.942c-.373.293-.171,1.1-.1,1.526.012-.411-.071-.953.37-1.162s.682.278.814.632c-.221-.3-.5.207-.489.379a.361.361,0,0,0,.521.329c.46-.222.289-2.8-1.114-1.7" transform="translate(-681.558 -75.124)" fill="#de7f50"/>
    <path id="Path_54583" data-name="Path 54583" d="M913.751,201.029c-.531-.139-.861.506-.941,1.257a2.08,2.08,0,0,0,1.617,0s-.213-1.137-.676-1.258" transform="translate(-741.66 -82.505)" fill="#de7f50"/>
    <path id="Path_54584" data-name="Path 54584" d="M914.427,204.6c-.083.025-.163.049-.239.068a2.059,2.059,0,0,1-.895.073,2.087,2.087,0,0,1-.484-.143c.208-.421.334-.9.677-.967a.511.511,0,0,1,.235.012c.286.074.488.422.6.676a2.488,2.488,0,0,1,.1.28" transform="translate(-741.66 -84.822)" fill="#fff"/>
    <path id="Path_54585" data-name="Path 54585" d="M917.931,204.323a.616.616,0,0,1-1.028.422,1.858,1.858,0,0,1,.055-.731,2.189,2.189,0,0,1,.137-.379.51.51,0,0,1,.235.012c.286.074.488.422.6.676" transform="translate(-745.269 -84.822)" fill="#1b0e09"/>
    <path id="Path_54586" data-name="Path 54586" d="M922.346,208.48c-.036.138-.108.239-.16.225s-.065-.137-.028-.275.108-.239.16-.225.064.136.028.275" transform="translate(-749.915 -88.873)" fill="#fff"/>
    <path id="Path_54587" data-name="Path 54587" d="M873.768,193.628c-.707-.069-1.049.728-1.634.92a4.225,4.225,0,0,0,2.246.666c-.151-.573.2-1.506-.612-1.586" transform="translate(-705.659 -75.969)" fill="#de7f50"/>
    <path id="Path_54588" data-name="Path 54588" d="M873.976,197.618c-.16,0-.311-.007-.453-.019a3.774,3.774,0,0,1-.979-.218,7.117,7.117,0,0,1-.867-.4l.052-.029c.395-.129.642-.4.979-.529a1.144,1.144,0,0,1,.572-.074c.313.034.446.242.527.518.067.225.1.494.167.751" transform="translate(-705.255 -78.373)" fill="#fff"/>
    <path id="Path_54589" data-name="Path 54589" d="M880.354,197.051a1.7,1.7,0,0,1-.247.547,3.776,3.776,0,0,1-.978-.218,1.683,1.683,0,0,1,.049-.638,1.844,1.844,0,0,1,.115-.319,1.144,1.144,0,0,1,.572-.074c.313.034.446.242.527.518a1.826,1.826,0,0,1-.039.184" transform="translate(-711.839 -78.373)" fill="#1b0e09"/>
    <path id="Path_54590" data-name="Path 54590" d="M885.874,202.13c-.037.138-.116.237-.178.221s-.083-.141-.046-.279.116-.237.177-.221.083.141.046.28" transform="translate(-717.606 -83.248)" fill="#fff"/>
    <path id="Path_54591" data-name="Path 54591" d="M885.984,235.283a1.751,1.751,0,0,1-1.63.765,1.474,1.474,0,0,1-1.125-1.2l.068,0c.106.038,2.064.366,2.444.419a1.68,1.68,0,0,0,.244.019" transform="translate(-715.479 -112.452)" fill="#de7f50"/>
    <path id="Path_54592" data-name="Path 54592" d="M888.662,235.757c-.084.166-.184.322-.214.394a4.781,4.781,0,0,1-1.918-.749c.418.029,1.752.3,2.132.356" transform="translate(-718.4 -112.944)" fill="#fff"/>
    <path id="Path_54593" data-name="Path 54593" d="M915.985,190.442a3.426,3.426,0,0,1,.9-.106c.73-.057,1,.4,1.225,1.015a2,2,0,0,0-2.157.047Z" transform="translate(-744.441 -73.054)" fill="#291912"/>
    <path id="Path_54594" data-name="Path 54594" d="M874.015,180.8a4.253,4.253,0,0,0-1.915-.6,1.422,1.422,0,0,0-1.47.712c.618-.3,2.1.138,3.241.765Z" transform="translate(-704.327 -64.082)" fill="#291912"/>
    <path id="Path_54595" data-name="Path 54595" d="M891.195,246.829l-.3,0a.913.913,0,0,0-.175.8c.177-.086.389-.027.561-.088-.131-.133-.211-.674-.084-.714" transform="translate(-722.074 -123.059)" fill="#de7f50"/>
    <path id="Path_54596" data-name="Path 54596" d="M908.011,212.022c0,.012.008.024.011.036.005-.011.009-.024.014-.035Z" transform="translate(-737.413 -92.252)" fill="#de7f50"/>
    <path id="Path_54597" data-name="Path 54597" d="M895.174,212.338c-.274,1.093-.57,1.891-.57,1.891a4.214,4.214,0,0,0-1.109-.034c.26.188,1.156.651,1.4.379a6.74,6.74,0,0,0,.284-2.236" transform="translate(-724.565 -92.532)" fill="#de7f50"/>
    <path id="Path_54598" data-name="Path 54598" d="M751.418,274.125c-1.624.406-3.248.2-4.263,2.233a78.778,78.778,0,0,0-2.741,8.73c-.3,1.6-2.741,8.527.81,8.631,3.851.113,5.263-9.618,5.687-11.777Z" transform="translate(-591.645 -147.218)" fill="#bbdae7"/>
    <path id="Path_54599" data-name="Path 54599" d="M919.98,278.542c1.624.406,3.248.2,4.263,2.233a78.862,78.862,0,0,1,2.741,8.73c.3,1.6,2.741,8.527-.81,8.631-3.851.113-5.262-9.618-5.687-11.777Z" transform="translate(-748.006 -151.128)" fill="#bbdae7"/>
    <path id="Path_54600" data-name="Path 54600" d="M869.551,425.075c-.871-.656-1.721-1.653-2.82-1.647-1.207.007-2.442.927-3.454,1.012l.812,2.132a25.85,25.85,0,0,0,4.568.1c.659,0,1.546.237,1.748-.406s-.4-.853-.854-1.193" transform="translate(-697.819 -279.365)" fill="#fda271"/>
    <path id="Path_54601" data-name="Path 54601" d="M860.59,451.488a.609.609,0,0,1-.609.609H835.619a.609.609,0,0,1,0-1.218h24.362a.609.609,0,0,1,.609.609" transform="translate(-672.801 -303.66)" fill="#000305"/>
    <path id="Path_54602" data-name="Path 54602" d="M910.641,342.542a.988.988,0,0,1-.932.835H892.167a.692.692,0,0,1-.685-.835l2.027-13.665a.987.987,0,0,1,.932-.835h17.541a.692.692,0,0,1,.684.835Z" transform="translate(-722.775 -194.939)" fill="#efe6e6"/>
    <path id="Path_54603" data-name="Path 54603" d="M917.121,342.542a.987.987,0,0,1-.932.835H898.648a.692.692,0,0,1-.685-.835l2.027-13.665a.987.987,0,0,1,.932-.835h17.541a.692.692,0,0,1,.685.835Z" transform="translate(-728.511 -194.939)" fill="#000305"/>
    <path id="Path_54604" data-name="Path 54604" d="M991.315,380.544a.863.863,0,1,1-.863-.863.863.863,0,0,1,.863.863" transform="translate(-809.617 -240.644)" fill="#fff"/>
    <path id="Path_54605" data-name="Path 54605" d="M752.921,407c-1.609-.265-2.8-.69-4.162.507-.581.511-1.343,1.972-.812,2.741.327.473,1.522,2.03,2.893,1.066l3.451-2.03c.254-.761-1.1-1.69-1.37-2.284" transform="translate(-595.584 -264.561)" fill="#7fb2c7"/>
    <path id="Path_54606" data-name="Path 54606" d="M763.906,418.556c-2,.778-1.593,3.248-1.593,3.248.3.677,2.568,1.118,3.35,1.117a28.092,28.092,0,0,0,3.173-.124c2.034-.2,4-.568,6.08-.706a10.156,10.156,0,0,0,.251-2.245c-4.493.436-9.1-2.132-11.261-1.29" transform="translate(-608.428 -274.9)" fill="#fda271"/>
    <path id="Path_54607" data-name="Path 54607" d="M1009.423,449.829c-.048-.808-.591-.254-.75.173-.121.324-.407.927-.874,1.054l-.1.123c.856,1.11,1.758-.8,1.726-1.349" transform="translate(-825.643 -302.366)" fill="#fda271"/>
    <path id="Path_54608" data-name="Path 54608" d="M1017.124,448.285c.164-.991-.511-.433-.778.052-.2.367-.64,1.04-1.129,1.1l-.131.128c.548,1.526,1.927-.6,2.039-1.275" transform="translate(-832.182 -300.878)" fill="#fda271"/>
    <path id="Path_54609" data-name="Path 54609" d="M1025.76,449.873c.127-.819-.523-.379-.77.015-.188.3-.6.843-1.081.871l-.126.1c.6,1.291,1.891-.431,1.977-.988" transform="translate(-839.881 -302.361)" fill="#fda271"/>
    <path id="Path_54610" data-name="Path 54610" d="M1033.072,454.11c.09-.647-.534-.325-.762-.021a1.451,1.451,0,0,1-1.033.647l-.12.075c.649,1.055,1.854-.261,1.916-.7" transform="translate(-846.406 -306.187)" fill="#fda271"/>
    <path id="Path_54611" data-name="Path 54611" d="M944.826,284.672c-.461-.415-1.415.118-1.633-.149l.709.674c0,.773.875,3.233,1.229,1.334a2.884,2.884,0,0,0-.305-1.859" transform="translate(-768.552 -156.408)" fill="#fda271"/>
    <path id="Path_54612" data-name="Path 54612" d="M920.272,272.9c-.461-.415-1.415.118-1.633-.149l.709.674c0,.773.876,3.233,1.229,1.334a2.884,2.884,0,0,0-.305-1.859" transform="translate(-746.819 -145.985)" fill="#fda271"/>
    <path id="Path_54613" data-name="Path 54613" d="M930.406,275.757c-.462-.415-1.415.118-1.633-.149l.709.674c0,.773.876,3.233,1.229,1.334a2.885,2.885,0,0,0-.3-1.859" transform="translate(-755.789 -148.517)" fill="#fda271"/>
    <path id="Path_54614" data-name="Path 54614" d="M939.209,279.758c-.462-.415-1.415.118-1.633-.149l.709.674c0,.773.875,3.233,1.229,1.334a2.883,2.883,0,0,0-.3-1.859" transform="translate(-763.58 -152.058)" fill="#fda271"/>
  </g>
</svg>
