<svg xmlns="http://www.w3.org/2000/svg" xmlns:xlink="http://www.w3.org/1999/xlink" width="141" height="125" viewBox="0 0 141 125">
  <defs>
    <clipPath id="clip-path">
      <rect id="Rectangle_12460" data-name="Rectangle 12460" width="141" height="125" transform="translate(0.001 0)" fill="none"/>
    </clipPath>
  </defs>
  <g id="Group_118769" data-name="Group 118769" transform="translate(-0.001 0)" clip-path="url(#clip-path)">
    <path id="Path_54170" data-name="Path 54170" d="M1486.433,2535.675s-.719,3.629-1.871,9.315-1.2,8.989-.865,10.27c.365,1.413,5.7,5.377,12.293,7.489l-.585-5.392s-4.825-4.03-5.044-4.555c-.291-.7,3.227-17.565,3.227-17.565Z" transform="translate(-1437.218 -2455.952)" fill="#ffafa4"/>
    <path id="Path_54171" data-name="Path 54171" d="M2736.266,2536.422s.666,3.64,1.735,9.343,1.2,8.573.854,9.848c-.386,1.406-5.92,5.722-12.538,7.733l.664-5.382s4.883-3.956,5.109-4.477c.3-.691-2.972-17.612-2.972-17.612Z" transform="translate(-2641.166 -2456.57)" fill="#ffafa4"/>
    <path id="Path_54172" data-name="Path 54172" d="M2079.069,1839.058s-.391,8.169-7.568,8.169c-7.418,0-7.423-8.169-7.423-8.169a4.827,4.827,0,0,0,2.352-3.2,11.057,11.057,0,0,0,.329-3.031h9.43a15.422,15.422,0,0,0,.4,3.031,4.531,4.531,0,0,0,2.483,3.2" transform="translate(-1999.629 -1775.5)" fill="#ffafa4"/>
    <path id="Path_54173" data-name="Path 54173" d="M2156.563,1855.805c-1.942,1.979-3.211,2.653-4.856,2.653-1.45,0-2.911-.769-4.831-2.7l.108-1.068,9.435.034Z" transform="translate(-2079.839 -1796.677)" fill="#f2968c"/>
    <path id="Path_54174" data-name="Path 54174" d="M1500,2061.245a34.16,34.16,0,0,1-.619,5.278c-.116,1.348-.023,2.676-.007,3.99,0,.263.007.523,0,.779a11.141,11.141,0,0,1-.373,2.875c0,.013-.007.023-.01.037a7.312,7.312,0,0,1-2.123,3.764,8.723,8.723,0,0,1-2.22,1.1,29.291,29.291,0,0,1-8.973,1.488q-.833.03-1.737.03c-1.162,0-2.236-.033-3.225-.093-7.235-.423-10.607-2.55-10.607-2.55a14.213,14.213,0,0,1-1.037-3.068,5.642,5.642,0,0,1-.147-1.6.6.6,0,0,1,.007-.077c.037-.539.107-1.152.16-1.8a10.782,10.782,0,0,0-.2-3.947c-.047-.156-.09-.329-.133-.512a42.107,42.107,0,0,1-.629-5.572c-1.4-.369-2.729-.775-3.944-1.185a37.066,37.066,0,0,1-5.977-2.479,1.291,1.291,0,0,1-.479-.376c-.176-.456,2.519-10.5,4.573-14.387a21.461,21.461,0,0,1,3.268-4.866,13.092,13.092,0,0,1,4.356-2.985l1.7-.755h0c2.869-1.268,5.049-2.2,5.049-2.2s1.98,5.791,7.434,5.791c6.116,0,7.557-5.791,7.557-5.791a84.447,84.447,0,0,1,8.9,3.88c2.33,1.221,4.16,3.218,5.854,6.783.33.7.652,1.448.975,2.266a49.46,49.46,0,0,1,2.3,8.806c.373,2.077.546,3.551.546,3.551a19.836,19.836,0,0,1-10.244,3.824" transform="translate(-1412.225 -1968.576)" fill="#fee7e1"/>
    <path id="Path_54175" data-name="Path 54175" d="M1785.958,2611.846h-.016a.125.125,0,0,1-.108-.14,24.289,24.289,0,0,0,.145-4.794,35.745,35.745,0,0,1,0-5.2.12.12,0,0,1,.134-.116.125.125,0,0,1,.115.134,35.439,35.439,0,0,0,0,5.149,24.59,24.59,0,0,1-.145,4.856.125.125,0,0,1-.124.109" transform="translate(-1730.082 -2520.239)" fill="#e8aa9c"/>
    <path id="Path_54176" data-name="Path 54176" d="M2796.83,2618.819a.125.125,0,0,1-.124-.109,24.6,24.6,0,0,1-.145-4.856,35.533,35.533,0,0,0,0-5.149.125.125,0,0,1,.115-.134.119.119,0,0,1,.134.116,35.759,35.759,0,0,1,0,5.2,24.3,24.3,0,0,0,.145,4.794.125.125,0,0,1-.108.14h-.016" transform="translate(-2709.141 -2526.994)" fill="#e8aa9c"/>
    <path id="Path_54177" data-name="Path 54177" d="M2235.3,2308.915c-2.824,3.445-2,4.779-.232,4.686s.473,1.531-3.243,4.454-.944,4.918,2.193,3.387,4.4-.232,3.465,1.021-.189,3.155,3.987,0,6.31-7.864,5.591-9.349-3.248-2.2-5.15-1.16-4.013.085-1.345-2.915-2.2-3.859-5.266-.124" transform="translate(-2160.406 -2234.305)" fill="#f7cdc6"/>
    <path id="Path_54178" data-name="Path 54178" d="M2018.1,3029.742c-3.714,3.135-5.005,4.876-3.241,4.776s2.593,1.328-.233,5.022a8.043,8.043,0,0,1-.982,1.068q-.834.03-1.737.03c-1.161,0-2.236-.033-3.225-.093a3.575,3.575,0,0,1,.679-1.138c2.669-3.215.556-4.243-1.344-3.125s-4.433.349-5.152-1.242,1.418-6.639,5.591-10.021,4.919-1.344,3.987,0,.33,2.736,3.465,1.092,5.911.5,2.193,3.631" transform="translate(-1940.194 -2928.634)" fill="#f7cdc6"/>
    <path id="Path_54179" data-name="Path 54179" d="M1892.471,2611.506c-1.4,1.218-1.522,3.171.634,2.326s2.495.317.888,1.564-1.67,4.059,1.543,2.579,4.376-5.053,3.34-6.575-4.419-1.628-6.406.106" transform="translate(-1832.396 -2528.602)" fill="#f7cdc6"/>
    <path id="Path_54180" data-name="Path 54180" d="M2050.751,2322.44c.088-1.359-.865-2.436-1.541-.874s-1.457,1.136-1.275-.347-1.251-2.972-2.144-.531.368,4.9,1.7,5.146,3.136-1.46,3.262-3.394" transform="translate(-1981.624 -2246.853)" fill="#f7cdc6"/>
    <path id="Path_54181" data-name="Path 54181" d="M2570.022,2907.863c-.31,1.326.453,2.545,1.376,1.115s1.624-.882,1.2.552.746,3.138,2.028.876.442-4.892-.83-5.355-3.334.926-3.775,2.812" transform="translate(-2489.689 -2814.118)" fill="#f7cdc6"/>
    <path id="Path_54182" data-name="Path 54182" d="M2727.349,2206.811c.713-1,.5-2.272-.762-1.4s-1.653.176-.809-.871.456-2.865-1.385-1.424-2.045,3.917-1.147,4.738,3.09.374,4.1-1.043" transform="translate(-2637.689 -2133.696)" fill="#f7cdc6"/>
    <path id="Path_54183" data-name="Path 54183" d="M2894.687,2384.315a31.4,31.4,0,0,1-2.366,2.17c-3.781,3.128-5.442.6-4.1-1.441s2.9-3.864.779-3.674-1.781-2.479-.979-3.864a17.4,17.4,0,0,1,3.388-4.263c.329.7.652,1.448.975,2.266a49.432,49.432,0,0,1,2.3,8.806" transform="translate(-2797.216 -2299.021)" fill="#f7cdc6"/>
    <path id="Path_54184" data-name="Path 54184" d="M1689.536,2114.462c-3.322,2.749-4.779.526-3.6-1.268s2.546-3.395.682-3.225-1.561-2.18-.859-3.395c.063-.11.126-.219.193-.326a13.1,13.1,0,0,1,4.356-2.985l1.7-.755a4.927,4.927,0,0,1-.822,1.771c-1.551,2.263-1.1,3.155.12,1.867s3.371-1.867,4.064-.17-2.509,5.738-5.834,8.487" transform="translate(-1632.611 -2036.749)" fill="#f7cdc6"/>
    <path id="Path_54185" data-name="Path 54185" d="M1479.436,2713.828c-.05.08-.1.157-.146.233a37.059,37.059,0,0,1-5.977-2.479,18.967,18.967,0,0,1,3.508-3.574c2.473-1.947,3.5-.3,2.6.989s-1.917,2.43-.556,2.343,1.1,1.618.569,2.49" transform="translate(-1427.33 -2622.454)" fill="#f7cdc6"/>
    <path id="Path_54186" data-name="Path 54186" d="M1815.327,3068.99a11.85,11.85,0,0,1-2.836,3.195,2.018,2.018,0,0,1-1.378.623,5.647,5.647,0,0,1-.146-1.6.617.617,0,0,1,.007-.076,4.413,4.413,0,0,1,.353-.566c1.171-1.621.859-2.28-.053-1.361a1.28,1.28,0,0,1-.14.13,10.782,10.782,0,0,0-.2-3.947c-.047-.156-.09-.329-.133-.512a20.941,20.941,0,0,1,1.907-1.708c2.473-1.947,3.5-.3,2.6.988s-1.917,2.43-.556,2.343,1.1,1.618.569,2.489" transform="translate(-1754.272 -2966.513)" fill="#f7cdc6"/>
    <path id="Path_54187" data-name="Path 54187" d="M2563.161,3242.727a1.794,1.794,0,0,1-.256.526c-.892,1.288-1.917,2.433-.552,2.343a1.131,1.131,0,0,1,.426.043,10.163,10.163,0,0,1-1.457,3.514,20.667,20.667,0,0,1-2.886,1.345,4.55,4.55,0,0,1,.482-.832c1.171-1.624.859-2.283-.053-1.364s-2.493,1.3-2.969.05,1.934-4.14,4.406-6.087c1.614-1.271,2.609-1.009,2.859-.316a1.246,1.246,0,0,1,0,.779" transform="translate(-2476.015 -3140.01)" fill="#f7cdc6"/>
    <path id="Path_54188" data-name="Path 54188" d="M2086.746,1267.052a7.9,7.9,0,0,0-10.037,0,5.356,5.356,0,0,0-2.084,4.338c.028,1.38-.123,9.381.68,10.907.841,1.6,4.049,4.648,6.461,4.648,2.619,0,5.615-3.162,6.319-4.7.726-1.591.716-9.472.745-10.852a5.356,5.356,0,0,0-2.085-4.338" transform="translate(-2009.845 -1225.669)" fill="#ffafa4"/>
    <path id="Path_54189" data-name="Path 54189" d="M2224.611,1800.188a.163.163,0,0,0-.232.007.913.913,0,0,1-.658.261,1.968,1.968,0,0,1-.632-.171,1.194,1.194,0,0,0-.375-.11,1.077,1.077,0,0,0-.4.082.535.535,0,0,1-.5,0,1.031,1.031,0,0,0-.4-.082,1.2,1.2,0,0,0-.375.11,1.965,1.965,0,0,1-.632.171.929.929,0,0,1-.659-.262.164.164,0,0,0-.238.225,1.262,1.262,0,0,0,.851.366l.067,0a2.256,2.256,0,0,0,.735-.194,1.081,1.081,0,0,1,.266-.087.792.792,0,0,1,.272.064.838.838,0,0,0,.721,0,.781.781,0,0,1,.272-.064,1.077,1.077,0,0,1,.266.087,2.256,2.256,0,0,0,.735.194l.067,0a1.262,1.262,0,0,0,.85-.366.164.164,0,0,0-.007-.232" transform="translate(-2150.165 -1743.838)" fill="#f2968c"/>
    <path id="Path_54190" data-name="Path 54190" d="M2263.7,1835.307a2.026,2.026,0,0,1-1.1.282,1.507,1.507,0,0,1-.977-.268.164.164,0,0,0-.227.237,1.767,1.767,0,0,0,1.2.359,2.3,2.3,0,0,0,1.291-.344.164.164,0,0,0-.192-.266" transform="translate(-2190.732 -1777.871)" fill="#f2968c"/>
    <path id="Path_54191" data-name="Path 54191" d="M2277.792,1611.05a.892.892,0,0,1-.2-.023.819.819,0,0,1-.6-.528,1.42,1.42,0,0,1,.157-1.011,4.871,4.871,0,0,0,.2-.577,4.953,4.953,0,0,0,.039-1.783.164.164,0,1,1,.323-.056,4.113,4.113,0,0,1-.262,2.539,1.171,1.171,0,0,0-.151.783.5.5,0,0,0,.368.314.586.586,0,0,0,.555-.172.164.164,0,0,1,.233.23.931.931,0,0,1-.662.284" transform="translate(-2205.84 -1556.669)" fill="#f2968c"/>
    <path id="Path_54192" data-name="Path 54192" d="M2343.855,1527.264c-.206.1-.558.6-.508.83.031.138.206.177,1.114.083a18.789,18.789,0,0,1,2.113-.207c.427.032,1.006.238,1.064.184a2.2,2.2,0,0,0-1.338-1.065,7.164,7.164,0,0,0-2.446.175" transform="translate(-2270.164 -1479.282)" fill="#b46351"/>
    <path id="Path_54193" data-name="Path 54193" d="M2126.658,1527.264c.206.1.558.6.508.83-.031.138-.206.177-1.114.083a18.8,18.8,0,0,0-2.113-.207c-.427.032-1.005.238-1.064.184a2.2,2.2,0,0,1,1.338-1.065,7.164,7.164,0,0,1,2.446.175" transform="translate(-2056.584 -1479.282)" fill="#b46351"/>
    <path id="Path_54194" data-name="Path 54194" d="M2174.494,1601.866a.835.835,0,0,0,.739.906.814.814,0,0,0,.819-.818.835.835,0,0,0-.739-.906.815.815,0,0,0-.819.819" transform="translate(-2106.592 -1550.964)" fill="#433b49"/>
    <path id="Path_54195" data-name="Path 54195" d="M2383.407,1601.866a.835.835,0,0,1-.739.906.815.815,0,0,1-.819-.818.836.836,0,0,1,.74-.906.815.815,0,0,1,.819.819" transform="translate(-2307.465 -1550.964)" fill="#433b49"/>
    <path id="Path_54196" data-name="Path 54196" d="M2019.93,1577.817s-1.054-1.607-2.181-1.081c-1.058.494-.7,2.832.285,3.817a2.753,2.753,0,0,0,1.9.9Z" transform="translate(-1954.126 -1527.311)" fill="#ffafa4"/>
    <path id="Path_54197" data-name="Path 54197" d="M2496.931,1577.818s1.047-1.607,2.167-1.081c1.051.494.694,2.832-.283,3.817a2.727,2.727,0,0,1-1.884.9Z" transform="translate(-2418.951 -1527.312)" fill="#ffafa4"/>
    <path id="Path_54198" data-name="Path 54198" d="M2062.532,1622.311h-.016a.164.164,0,0,1-.148-.179,1.319,1.319,0,0,0-.362-1.222.164.164,0,0,1,.191-.267,1.621,1.621,0,0,1,.5,1.521.164.164,0,0,1-.163.148" transform="translate(-1997.557 -1569.918)" fill="#f2968c"/>
    <path id="Path_54199" data-name="Path 54199" d="M2518.83,1622.307a.164.164,0,0,1-.163-.148,1.621,1.621,0,0,1,.5-1.521.164.164,0,0,1,.19.267,1.324,1.324,0,0,0-.362,1.222.164.164,0,0,1-.147.179h-.016" transform="translate(-2439.995 -1569.915)" fill="#f2968c"/>
    <path id="Path_54200" data-name="Path 54200" d="M2068.278,1365.6a4.521,4.521,0,0,0-1.15,3.259c-.009.271-.008.267-.424.523a2.126,2.126,0,0,0-.819,1.691,14.463,14.463,0,0,0-.13,2.413c0,.224-.193.235-.229.023-.148-.86-.245-1.214-.654-1.569a24.885,24.885,0,0,1,.044-4.108,1.911,1.911,0,0,1,1.351-2.276c1.8-.7,2.011.044,2.011.044" transform="translate(-2000.334 -1322.546)" fill="#d37f75"/>
    <path id="Path_54201" data-name="Path 54201" d="M2428.985,1365.6a4.521,4.521,0,0,1,1.15,3.259c.009.271.008.267.424.523a2.124,2.124,0,0,1,.819,1.691,14.487,14.487,0,0,1,.13,2.413c0,.224.193.235.229.023.148-.86.245-1.214.654-1.569a24.916,24.916,0,0,0-.044-4.108,1.911,1.911,0,0,0-1.351-2.276c-1.8-.7-2.011.044-2.011.044" transform="translate(-2353.129 -1322.546)" fill="#d37f75"/>
    <path id="Path_54202" data-name="Path 54202" d="M2035.507,1112.841a.94.94,0,0,1-.769,0c-.953-.34-2.96-1.25-4.561-.824-1.505.4-2,1.093-2.191,2.015a2.475,2.475,0,0,1-.315-2.323,1.943,1.943,0,0,0-.823.6c-.062.068-.2.043-.168-.119a2.138,2.138,0,0,1,1.258-1.677,3.872,3.872,0,0,1-.259-3,3.549,3.549,0,0,1,1.2-1.773c.265-.194.327-.082.21.171a2.241,2.241,0,0,0-.224,1.394,9.043,9.043,0,0,1,2-2.561c1.4-1.1,2.044-1,2.149-.391a4.531,4.531,0,0,1,2.261-1.092,4.926,4.926,0,0,1,3.9,3.025,2.335,2.335,0,0,0-.149-.837c-.266-.665.186-.495.392-.364a7.448,7.448,0,0,1,3.179,5.094,1.1,1.1,0,0,0,.22-.686c.023-.384.129-.463.323-.006a6.881,6.881,0,0,1-.526,4.541,2.939,2.939,0,0,0-2.554-1.82,9.6,9.6,0,0,0-4.552.632" transform="translate(-1963.396 -1068.742)" fill="#b46351"/>
    <path id="Path_54203" data-name="Path 54203" d="M2170.2,1160.941h-.019a.1.1,0,0,1-.079-.116,3.724,3.724,0,0,1,1.35-2.256.1.1,0,1,1,.114.163,3.587,3.587,0,0,0-1.269,2.13.1.1,0,0,1-.1.08" transform="translate(-2102.334 -1122.3)" fill="#d37f75"/>
    <path id="Path_54204" data-name="Path 54204" d="M2184.253,1201.414a.1.1,0,0,1-.1-.085,3.587,3.587,0,0,1,.419-2.135.1.1,0,0,1,.171.1,3.444,3.444,0,0,0-.394,2.008.1.1,0,0,1-.084.111h-.014" transform="translate(-2115.925 -1161.625)" fill="#d37f75"/>
    <path id="Path_54205" data-name="Path 54205" d="M2430.676,1224.361a.1.1,0,0,1-.023,0,.1.1,0,0,1-.074-.12,3.522,3.522,0,0,0-.141-1.924.1.1,0,0,1,.184-.075,3.688,3.688,0,0,1,.15,2.046.1.1,0,0,1-.1.076" transform="translate(-2354.53 -1183.939)" fill="#d37f75"/>
    <path id="Path_54206" data-name="Path 54206" d="M2401.912,1195.6a.1.1,0,0,1-.1-.1,3.871,3.871,0,0,0-.582-1.735.1.1,0,0,1,.165-.11,3.987,3.987,0,0,1,.615,1.838.1.1,0,0,1-.095.1Z" transform="translate(-2326.227 -1156.267)" fill="#d37f75"/>
    <path id="Path_54207" data-name="Path 54207" d="M1605.275,2672.75l-.188-1.714c-.125-1.174.73-2.212,2.356-2.212h38.939c1.633,0,2.5,1.025,2.37,2.2l-.218,1.981Z" transform="translate(-1554.974 -2585.362)" fill="#fff"/>
    <path id="Path_54208" data-name="Path 54208" d="M1611.094,2720.447a1.268,1.268,0,0,1-1.06-1.175l-2.5-23.476c-.125-1.173.653-2.2,2.278-2.2h38.939c1.633,0,2.415,1.024,2.29,2.2l-2.507,23.506a1.276,1.276,0,0,1-1.048,1.172c-2.8.645-9.893,1-18.225,1-8.172,0-15.453-.46-18.164-1.022" transform="translate(-1557.34 -2609.362)" fill="#e8dadd"/>
    <path id="Path_54209" data-name="Path 54209" d="M2225.359,3082.143c0,.937-1.214,1.853-2.646,1.853s-2.59-.916-2.59-1.853,1.16-1.842,2.592-1.842,2.644.906,2.644,1.842" transform="translate(-2150.796 -2983.977)" fill="#fff"/>
    <path id="Path_54210" data-name="Path 54210" d="M3768.872,780.865a11.177,11.177,0,0,1-1.321,4.135h-3.232a11.171,11.171,0,0,1-1.321-4.135c-.378-3.211.719-4.766,1.98-5.268l.006-.007c.069-.022.145-.052.221-.074h.007a1.963,1.963,0,0,1,.35-.074.82.82,0,0,1,.134-.015h.006a1.2,1.2,0,0,1,.23-.015.314.314,0,0,1,.083.007.468.468,0,0,1,.1,0,2.265,2.265,0,0,1,.382.059.792.792,0,0,1,.127.03,2.363,2.363,0,0,1,.6.25,1.562,1.562,0,0,1,.2.131c1.019.719,1.759,2.266,1.445,4.975" transform="translate(-3645.367 -751.139)" fill="#238984"/>
    <path id="Path_54211" data-name="Path 54211" d="M3790.511,785.3a14.178,14.178,0,0,0,.651,2.917h-.087a14.632,14.632,0,0,1-.646-2.881c-.018-.118-.031-.236-.044-.361v-.005c-.051-.47-.084-.982-.1-1.538a9.085,9.085,0,0,1,.3-2.674v-.007a2.043,2.043,0,0,1,.088-.3v-.007a5.218,5.218,0,0,1,.806-1.629l.006-.007c.069-.022.145-.052.221-.074a6.876,6.876,0,0,0-1.329,4.7c.014.683.063,1.307.128,1.863" transform="translate(-3671.873 -754.356)" fill="#80bbb9"/>
    <path id="Path_54212" data-name="Path 54212" d="M3823.735,781.49a18.1,18.1,0,0,0,.419,3.971h-.082a18.546,18.546,0,0,1-.429-3.96.047.047,0,0,1-.007-.038.024.024,0,0,0,0-.016c-.009-.093-.006-.181-.009-.275a12.583,12.583,0,0,1,.739-5.268.818.818,0,0,1,.134-.015,5.323,5.323,0,0,0-.308.822,15.9,15.9,0,0,0-.471,4.461v.006c0,.105,0,.2.009.308Z" transform="translate(-3704.175 -751.6)" fill="#80bbb9"/>
    <path id="Path_54213" data-name="Path 54213" d="M3878,783.535c-.014.242-.033.465-.046.68-.005.005,0,.005,0,.005-.015.117-.024.227-.033.332a20.734,20.734,0,0,1-.369,2.518h-.082a22.938,22.938,0,0,0,.439-3.536,17.14,17.14,0,0,0-.566-5.985.79.79,0,0,1,.127.03,17.725,17.725,0,0,1,.531,5.955" transform="translate(-3756.211 -753.21)" fill="#80bbb9"/>
    <path id="Path_54214" data-name="Path 54214" d="M3900.971,792.145a14.655,14.655,0,0,1-.852,3.583h-.082a14.492,14.492,0,0,0,.842-3.589,10.844,10.844,0,0,0-.175-3.976,6.3,6.3,0,0,0-.177-.611c0-.007,0-.007-.006-.014a5.356,5.356,0,0,0-.47-1.051,1.588,1.588,0,0,1,.2.131,6.49,6.49,0,0,1,.506,1.384c.015.06.025.094.025.1a9.871,9.871,0,0,1,.288,2.662v.006c-.006.092-.007.184-.013.275-.012.349-.043.717-.09,1.1" transform="translate(-3778.196 -761.868)" fill="#80bbb9"/>
    <path id="Path_54215" data-name="Path 54215" d="M3855.122,781.523c0,1.812.058,2.992.1,3.6h-.082c-.025-.416-.061-1.091-.084-2.033v0c-.005-.1-.006-.214-.006-.327v0c-.007-.369-.014-.784-.015-1.235,0-.9.01-1.785.036-2.6v-.012c.05-1.54.131-2.774.176-3.367a.468.468,0,0,1,.1,0c-.04.528-.112,1.6-.161,2.959v.006q-.009.208-.018.432c-.028.8-.044,1.681-.043,2.578" transform="translate(-3734.595 -751.268)" fill="#80bbb9"/>
    <path id="Path_54216" data-name="Path 54216" d="M3799.679,811.867a.051.051,0,0,1-.047-.043l-.117-.562a.05.05,0,0,1,.035-.062.052.052,0,0,1,.057.043l.116.562a.049.049,0,0,1-.035.06h-.008" transform="translate(-3680.814 -785.809)" fill="#80bbb9"/>
    <path id="Path_54217" data-name="Path 54217" d="M3834.124,805.9a.047.047,0,0,1-.04-.024.056.056,0,0,1,.013-.073l.479-.355a.044.044,0,0,1,.066.016.057.057,0,0,1-.014.074l-.479.353a.04.04,0,0,1-.025.009" transform="translate(-3714.297 -780.229)" fill="#80bbb9"/>
    <path id="Path_54218" data-name="Path 54218" d="M3878.224,830.489a.041.041,0,0,1-.024-.008l-.418-.3a.055.055,0,0,1-.013-.071.045.045,0,0,1,.064-.016l.418.3a.053.053,0,0,1,.012.07.048.048,0,0,1-.04.024" transform="translate(-3756.615 -804.107)" fill="#80bbb9"/>
    <path id="Path_54219" data-name="Path 54219" d="M3922.157,829.687l-.014,0a.049.049,0,0,1-.026-.064l.132-.377a.048.048,0,0,1,.061-.033.051.051,0,0,1,.026.065l-.133.376a.05.05,0,0,1-.045.035" transform="translate(-3799.582 -803.253)" fill="#80bbb9"/>
    <path id="Path_54220" data-name="Path 54220" d="M3792.4,871.56a.046.046,0,0,1-.036-.018.048.048,0,0,1,0-.065l.528-.465a.042.042,0,0,1,.063.008.05.05,0,0,1,0,.067l-.527.463a.04.04,0,0,1-.027.01" transform="translate(-3673.881 -843.74)" fill="#80bbb9"/>
    <path id="Path_54221" data-name="Path 54221" d="M3815.063,904.319a.045.045,0,0,1-.04-.025l-.28-.568a.045.045,0,0,1,.018-.06.044.044,0,0,1,.059.022l.279.569a.042.042,0,0,1-.037.063" transform="translate(-3695.563 -875.38)" fill="#80bbb9"/>
    <path id="Path_54222" data-name="Path 54222" d="M3856.935,867.187a.042.042,0,0,1-.026-.009.048.048,0,0,1-.01-.065l.434-.635a.044.044,0,0,1,.063-.011.05.05,0,0,1,.009.067l-.434.633a.043.043,0,0,1-.036.019" transform="translate(-3736.398 -839.339)" fill="#80bbb9"/>
    <path id="Path_54223" data-name="Path 54223" d="M3888.147,908.511a.042.042,0,0,1-.036-.022l-.264-.486a.047.047,0,0,1,.017-.061.041.041,0,0,1,.059.016l.264.487a.045.045,0,0,1-.017.06.04.04,0,0,1-.022.006" transform="translate(-3766.381 -879.52)" fill="#80bbb9"/>
    <path id="Path_54224" data-name="Path 54224" d="M3917.851,882.784a.04.04,0,0,1-.033-.017l-.38-.524a.05.05,0,0,1,.009-.066.043.043,0,0,1,.063.006l.379.526a.048.048,0,0,1-.01.064.045.045,0,0,1-.028.01" transform="translate(-3795.044 -854.556)" fill="#80bbb9"/>
    <path id="Path_54225" data-name="Path 54225" d="M3777.763,934.418a.045.045,0,0,1-.039-.023l-.449-.781a.041.041,0,0,1,.014-.058.044.044,0,0,1,.058.019l.448.783a.039.039,0,0,1-.015.055.041.041,0,0,1-.018,0" transform="translate(-3659.265 -904.336)" fill="#80bbb9"/>
    <path id="Path_54226" data-name="Path 54226" d="M3825.366,954.457a.044.044,0,0,1-.021-.005.041.041,0,0,1-.017-.055l.315-.567a.042.042,0,0,1,.073.041l-.316.565a.04.04,0,0,1-.035.02" transform="translate(-3705.818 -923.96)" fill="#80bbb9"/>
    <path id="Path_54227" data-name="Path 54227" d="M3846.251,979.461a.041.041,0,0,1-.035-.02l-.308-.521a.039.039,0,0,1,.015-.054.041.041,0,0,1,.055.015l.307.523a.037.037,0,0,1-.015.052.044.044,0,0,1-.02,0" transform="translate(-3725.753 -948.229)" fill="#80bbb9"/>
    <path id="Path_54228" data-name="Path 54228" d="M3894.331,960.37a.039.039,0,0,1-.021-.006.038.038,0,0,1-.012-.054l.482-.737a.042.042,0,0,1,.057-.014.04.04,0,0,1,.012.056l-.483.735a.042.042,0,0,1-.035.019" transform="translate(-3772.629 -929.524)" fill="#80bbb9"/>
    <path id="Path_54229" data-name="Path 54229" d="M3929.835,920.522a.038.038,0,0,1-.023-.008.043.043,0,0,1-.007-.059l.414-.543a.042.042,0,1,1,.066.05l-.414.541a.046.046,0,0,1-.036.018" transform="translate(-3807.023 -891.104)" fill="#80bbb9"/>
    <path id="Path_54230" data-name="Path 54230" d="M3800.007,1002.3a.045.045,0,0,1-.017,0,.037.037,0,0,1-.021-.048l.256-.578a.04.04,0,0,1,.052-.018.038.038,0,0,1,.021.05l-.257.577a.036.036,0,0,1-.034.021" transform="translate(-3681.252 -970.302)" fill="#80bbb9"/>
    <path id="Path_54231" data-name="Path 54231" d="M3855.624,927.567a.042.042,0,0,1-.022-.007.043.043,0,0,1-.013-.058l.29-.466a.042.042,0,0,1,.059-.013.044.044,0,0,1,.013.06l-.29.465a.042.042,0,0,1-.036.02" transform="translate(-3735.129 -898.004)" fill="#80bbb9"/>
    <path id="Path_54232" data-name="Path 54232" d="M3881.827,1004.356a.038.038,0,0,1-.033-.019l-.292-.51a.037.037,0,0,1,.016-.051.041.041,0,0,1,.054.014l.291.511a.036.036,0,0,1-.017.049.041.041,0,0,1-.019,0" transform="translate(-3760.235 -972.36)" fill="#80bbb9"/>
    <path id="Path_54233" data-name="Path 54233" d="M3918.774,999.043a.035.035,0,0,1-.037-.036,4.684,4.684,0,0,1,.535-.647.042.042,0,0,1,.056-.008.036.036,0,0,1,0,.053c-.191.222-.495.577-.521.615a.042.042,0,0,1-.038.023" transform="translate(-3796.311 -967.103)" fill="#80bbb9"/>
    <path id="Path_54234" data-name="Path 54234" d="M3725.973,1032.133a6.314,6.314,0,0,1-.909,2.375.935.935,0,0,1-.979.562h-5.134a.941.941,0,0,1-.979-.568,6.291,6.291,0,0,1-.914-2.369,5.552,5.552,0,0,1,.265-1.136c.016-.049.033-.1.048-.146.1-.33.228-.693.352-1.044.017-.049.033-.092.049-.141.228-.622.46-1.206.633-1.569a.548.548,0,0,1,.563-.363h5.106a.527.527,0,0,1,.557.357,17.208,17.208,0,0,1,.687,1.693,1.257,1.257,0,0,1,.049.151c.125.341.238.687.33,1a1.454,1.454,0,0,1,.043.151,4.976,4.976,0,0,1,.233,1.044" transform="translate(-3600.936 -995.575)" fill="#ffe2c8"/>
    <path id="Path_54235" data-name="Path 54235" d="M3745.2,1072.869l-.708.86-1.406-1.5a.122.122,0,0,0-.027-.016c-.005-.005-.011-.005-.021-.005a.342.342,0,0,0-.049.021l-1.482,1.5-1.45-1.5a.068.068,0,0,0-.048-.021.08.08,0,0,0-.049.021l-1.358,1.5-.946-.979c-.017.049-.065.187-.073.208l.976,1a.052.052,0,0,0,.048.021.08.08,0,0,0,.049-.021l1.358-1.5,1.444,1.5a.1.1,0,0,0,.048.021.053.053,0,0,0,.049-.021l1.482-1.5,1.407,1.5a.1.1,0,0,0,.048.021.067.067,0,0,0,.054-.027l.725-.873c0-.021-.055-.163-.071-.212" transform="translate(-3620.82 -1038.658)" fill="#e5a583"/>
    <path id="Path_54236" data-name="Path 54236" d="M3732.96,1123.807l-1.087,1.309-1.406-1.493a.053.053,0,0,0-.049-.021.126.126,0,0,0-.049.021l-1.482,1.5-1.45-1.5a.053.053,0,0,0-.049-.021.132.132,0,0,0-.049.021l-1.358,1.5-1.347-1.4c-.016.049-.069.217-.079.249l1.383,1.428a.068.068,0,0,0,.049.022.079.079,0,0,0,.048-.022l1.358-1.5,1.445,1.5a.094.094,0,0,0,.049.022.068.068,0,0,0,.049-.022l1.482-1.5,1.406,1.5a.1.1,0,0,0,.049.022.067.067,0,0,0,.054-.027l1.108-1.324c-.007-.031-.059-.212-.075-.261" transform="translate(-3608.199 -1088.444)" fill="#e5a583"/>
    <path id="Path_54237" data-name="Path 54237" d="M2831.637,1264.355h-44.564c-.622,0-.756-.325-.756-.726v-1.589c0-.4.074-.726.756-.726h44.564c.636,0,.756.325.756.726v1.589c0,.4-.089.726-.756.726" transform="translate(-2699.291 -1221.853)" fill="#ffb967"/>
    <path id="Path_54238" data-name="Path 54238" d="M2921.02,892.469h-1.9a.4.4,0,0,1-.405-.405V888.6l2.135-11.695a.405.405,0,0,1,.8.146l-2.128,11.622.006,2.989h1.5a.405.405,0,0,1,0,.811m-1.495-.405h0Z" transform="translate(-2827.549 -849.135)" fill="#4f4251"/>
    <path id="Path_54239" data-name="Path 54239" d="M4050.6,892.434h-1.9a.405.405,0,0,1,0-.811h1.5V888.6l-2.122-11.549a.405.405,0,1,1,.8-.146L4051,888.527l.007,3.5a.405.405,0,0,1-.406.405" transform="translate(-3921.594 -849.138)" fill="#4f4251"/>
    <path id="Path_54240" data-name="Path 54240" d="M3087.978,561.629h-5.428V539.368a.255.255,0,0,1,.28-.281h4.867c.281,0,.281.126.281.281Z" transform="translate(-2986.263 -522.202)" fill="#80bbb9"/>
    <rect id="Rectangle_12459" data-name="Rectangle 12459" width="2.651" height="21.783" transform="translate(101.715 17.68)" fill="#ffe2c8"/>
    <path id="Path_54241" data-name="Path 54241" d="M3343.429,499.587h-2.449v-24.26c0-.177.082-.321.446-.321h1.557c.393,0,.446.144.446.321Z" transform="translate(-3236.615 -460.125)" fill="#f35c5a"/>
    <path id="Path_54242" data-name="Path 54242" d="M3421.7,540.873h-2.373V517.625h1.927c.324,0,.446.144.446.321Z" transform="translate(-3312.512 -501.411)" fill="#4f4251"/>
    <path id="Path_54243" data-name="Path 54243" d="M3270.639,599.164a.1.1,0,0,1-.105-.1v-20.49a.106.106,0,0,1,.211,0v20.49a.1.1,0,0,1-.106.1" transform="translate(-3168.37 -560.365)" fill="#e5a583"/>
    <path id="Path_54244" data-name="Path 54244" d="M3358.42,1030.4a.1.1,0,0,1-.105-.1v-6.575a.106.106,0,0,1,.211,0v6.575a.1.1,0,0,1-.105.1" transform="translate(-3253.407 -991.606)" fill="#d33737"/>
    <path id="Path_54245" data-name="Path 54245" d="M3358.42,510.424a.1.1,0,0,1-.105-.1V495.371a.106.106,0,0,1,.211,0v14.957a.1.1,0,0,1-.105.1" transform="translate(-3253.407 -479.76)" fill="#d33737"/>
    <path id="Path_54246" data-name="Path 54246" d="M3125.969,607.232h-2.7a.1.1,0,0,1-.1-.1V587.752a.1.1,0,0,1,.1-.1h2.7a.1.1,0,0,1,.1.1v19.384a.1.1,0,0,1-.1.1m-2.6-.192h2.5V587.848h-2.5Z" transform="translate(-3025.62 -569.253)" fill="#238984"/>
    <path id="Path_54247" data-name="Path 54247" d="M3124.746,623.448c-.8,0-1.469-.029-1.479-.03a.1.1,0,0,1-.092-.1.1.1,0,0,1,.1-.092c.015,0,1.523.065,2.687,0a.1.1,0,0,1,.01.192c-.393.022-.825.03-1.226.03" transform="translate(-3025.618 -603.711)" fill="#238984"/>
    <path id="Path_54248" data-name="Path 54248" d="M3124.746,643.836c-.8,0-1.469-.029-1.479-.03a.1.1,0,0,1-.092-.1.106.106,0,0,1,.1-.092c.015,0,1.523.066,2.687,0a.1.1,0,0,1,.1.091.1.1,0,0,1-.09.1c-.393.022-.825.03-1.226.03" transform="translate(-3025.618 -623.462)" fill="#238984"/>
    <path id="Path_54249" data-name="Path 54249" d="M3124.746,1075.118c-.8,0-1.469-.029-1.479-.03a.1.1,0,0,1-.092-.1.106.106,0,0,1,.1-.092c.015,0,1.523.066,2.687,0a.1.1,0,0,1,.01.192c-.393.022-.825.03-1.226.03" transform="translate(-3025.618 -1041.261)" fill="#238984"/>
    <path id="Path_54250" data-name="Path 54250" d="M3124.746,1098.126c-.8,0-1.469-.029-1.479-.03a.1.1,0,0,1,.008-.192c.015,0,1.523.066,2.687,0a.1.1,0,0,1,.1.091.1.1,0,0,1-.09.1c-.393.022-.825.03-1.226.03" transform="translate(-3025.618 -1063.55)" fill="#238984"/>
    <path id="Path_54251" data-name="Path 54251" d="M3499.642,654h-4.4V634.4h3.955c.395,0,.445.181.445.4Z" transform="translate(-3386.054 -614.535)" fill="#238984"/>
    <path id="Path_54252" data-name="Path 54252" d="M3516.443,953.574c-.877,0-1.619-.029-1.63-.03a.1.1,0,0,1-.1-.1c0-.053.06-.083.11-.092.016,0,1.678.065,2.96,0a.1.1,0,0,1,.112.091.1.1,0,0,1-.1.1c-.433.022-.909.03-1.351.03" transform="translate(-3404.916 -923.518)" fill="#80bbb9"/>
    <path id="Path_54253" data-name="Path 54253" d="M3516.443,973.934c-.877,0-1.619-.029-1.63-.03a.1.1,0,0,1-.1-.1.109.109,0,0,1,.11-.092c.016,0,1.678.066,2.96,0a.1.1,0,0,1,.112.091.1.1,0,0,1-.1.1c-.433.022-.909.03-1.351.03" transform="translate(-3404.916 -943.241)" fill="#80bbb9"/>
    <path id="Path_54254" data-name="Path 54254" d="M3517.792,698.564h-2.971a.1.1,0,0,1-.105-.1V682.035a.1.1,0,0,1,.105-.1h2.971a.1.1,0,0,1,.105.1v16.434a.1.1,0,0,1-.105.1m-2.865-.192h2.76V682.131h-2.76Z" transform="translate(-3404.918 -660.588)" fill="#80bbb9"/>
    <path id="Path_54255" data-name="Path 54255" d="M368.642,749.37H348.479a1.425,1.425,0,0,1-1.522-1.578v-27.3a1.439,1.439,0,0,1,1.522-1.579h20.162a1.454,1.454,0,0,1,1.522,1.579v27.3a1.4,1.4,0,0,1-1.522,1.578M348.479,719.5a.864.864,0,0,0-.931.987v27.3c0,.987.7.987.931.987h20.162c.661,0,.931-.286.931-.987v-27.3a.875.875,0,0,0-.931-.987Z" transform="translate(-336.186 -696.404)" fill="#ffe2c8"/>
    <path id="Path_54256" data-name="Path 54256" d="M439.426,795.041v23.577c0,.615-.221,1.112-1.009,1.112H421.833c-.725,0-1-.5-1-1.112V795.073a.975.975,0,0,1,1-1.112h16.583a.983.983,0,0,1,1.009,1.08" transform="translate(-407.751 -769.109)" fill="#ffb967"/>
    <path id="Path_54257" data-name="Path 54257" d="M439.426,1101.5v10.976c0,.615-.221,1.112-1.009,1.112H421.833c-.725,0-1-.5-1-1.112v-2.689c1.505-5.628,9.862-7.361,11.47-9.735.728-1.074,1.183-1.8,1.444-2.283a.678.678,0,0,1,1.149-.247,37.727,37.727,0,0,1,4.53,3.978" transform="translate(-407.751 -1062.964)" fill="#ffe2c8"/>
    <path id="Path_54258" data-name="Path 54258" d="M501.913,862.822a3.56,3.56,0,1,1-3.56-3.56,3.56,3.56,0,0,1,3.56,3.56" transform="translate(-479.4 -832.368)" fill="#ffe2c8"/>
    <path id="Path_54259" data-name="Path 54259" d="M543.623,905.922a2.169,2.169,0,1,1-2.169-2.169,2.169,2.169,0,0,1,2.169,2.169" transform="translate(-522.501 -875.468)" fill="#fff"/>
    <path id="Path_54260" data-name="Path 54260" d="M433.882,1105.643s.036,3.383-5.251,6.564c-4.468,2.688-5.641,3.21-7.8,6.087v-6.143a19.887,19.887,0,0,1,5.047-2.09,18.632,18.632,0,0,0,8-4.419" transform="translate(-407.752 -1071.047)" fill="#fff"/>
    <path id="Path_54261" data-name="Path 54261" d="M1232.71,828.185h-12.03a.954.954,0,0,1-1.018-1.018V815.255a1.075,1.075,0,0,1,1.136-1.136h11.912a.954.954,0,0,1,1.018,1.018v12.029a.964.964,0,0,1-1.018,1.018M1220.8,814.71a.488.488,0,0,0-.544.544v11.912a.377.377,0,0,0,.427.427h12.03a.378.378,0,0,0,.427-.427V815.137c0-.378-.228-.427-.427-.427Z" transform="translate(-1181.61 -788.636)" fill="#ffe2c8"/>
    <path id="Path_54262" data-name="Path 54262" d="M1288.6,873.362v9.281a.517.517,0,0,1-.56.56h-9.281a.517.517,0,0,1-.56-.56v-9.194a.606.606,0,0,1,.655-.647h9.186a.51.51,0,0,1,.56.56" transform="translate(-1238.321 -845.485)" fill="#ffe2c8"/>
    <path id="Path_54263" data-name="Path 54263" d="M1357.447,1019.454v4.781h-8.179V1019.5a2.908,2.908,0,0,0,1.525.66,4.63,4.63,0,0,0,2.353-.315c2-.765,3.076-.9,4.3-.391" transform="translate(-1307.164 -987.259)" fill="#80bbb9"/>
    <path id="Path_54264" data-name="Path 54264" d="M1288.6,1021.364v2.728a.517.517,0,0,1-.56.56h-9.281a.517.517,0,0,1-.56-.56v-5.125a3.562,3.562,0,0,1,3.478.86c2.192,1.814,3.588,2.634,6.923,1.538" transform="translate(-1238.321 -986.934)" fill="#238984"/>
    <path id="Path_54265" data-name="Path 54265" d="M1376.567,913.2a.838.838,0,1,1-.838-.838.838.838,0,0,1,.838.838" transform="translate(-1331.986 -883.803)" fill="#fff"/>
    <path id="Path_54266" data-name="Path 54266" d="M1287.334,1115.181h-8.571a.517.517,0,0,1-.56-.56v-2.271c.371-.142,1.122-.244,1.759.915.761,1.385,1.739,1.749,3.446,1.293a3.854,3.854,0,0,1,3.927.623" transform="translate(-1238.321 -1077.463)" fill="#80bbb9"/>
    <path id="Path_54267" data-name="Path 54267" d="M3306.588,3162.8v5.177h-23.539V3162.8c0-.282.131-.282.293-.282H3306.3a.252.252,0,0,1,.289.282" transform="translate(-3180.494 -3063.626)" fill="#80bbb9"/>
    <path id="Path_54268" data-name="Path 54268" d="M3236.84,3424.928v2.527h-27.365v-2.546c0-.238.068-.275.265-.275h26.789c.277,0,.311.091.311.294" transform="translate(-3109.221 -3317.546)" fill="#e36752"/>
    <path id="Path_54269" data-name="Path 54269" d="M3276.524,3337.483v2.426h-25.512v-2.346c0-.356.158-.389.352-.389h24.875c.245,0,.286.1.286.309" transform="translate(-3149.458 -3232.821)" fill="#4f4251"/>
    <path id="Path_54270" data-name="Path 54270" d="M3827.8,3487.274a.115.115,0,0,1-.106.121h-7.32a.122.122,0,0,1,0-.243h7.32a.115.115,0,0,1,.106.121" transform="translate(-3700.916 -3378.11)" fill="#ba4535"/>
    <path id="Path_54271" data-name="Path 54271" d="M3248.905,3487.274a.115.115,0,0,1-.107.121h-16.651a.122.122,0,0,1,0-.243H3248.8a.115.115,0,0,1,.107.121" transform="translate(-3131.08 -3378.11)" fill="#ba4535"/>
    <path id="Path_54272" data-name="Path 54272" d="M3353.027,3207.555v2.873a.1.1,0,0,1-.1.1h-20.242a.1.1,0,0,1-.1-.1v-2.873a.1.1,0,0,1,.1-.1h20.242a.1.1,0,0,1,.1.1m-.2.1h-20.042v2.669h20.042Z" transform="translate(-3228.482 -3107.154)" fill="#238984"/>
    <path id="Path_54273" data-name="Path 54273" d="M3392.719,3223.8a.693.693,0,0,1-.223.544,1.757,1.757,0,0,1-1.147.276.1.1,0,0,0-.111.109.1.1,0,0,0,.111.108,1.759,1.759,0,0,1,1.147.276.692.692,0,0,1,.223.544.1.1,0,0,0,.2,0,.694.694,0,0,1,.223-.545,1.755,1.755,0,0,1,1.146-.275.1.1,0,0,0,.11-.108.1.1,0,0,0-.11-.109,1.744,1.744,0,0,1-1.146-.275.69.69,0,0,1-.224-.545.1.1,0,1,0-.2,0m.291.7a1.175,1.175,0,0,0,.422.233,1.16,1.16,0,0,0-.422.233.2.2,0,1,1-.377,0,1.165,1.165,0,0,0-.422-.233,1.18,1.18,0,0,0,.422-.233.2.2,0,1,1,.377,0" transform="translate(-3285.301 -3122.895)" fill="#238984"/>
    <path id="Path_54274" data-name="Path 54274" d="M3842,3223.8a.692.692,0,0,1-.223.544,1.756,1.756,0,0,1-1.147.276.1.1,0,0,0-.111.109.1.1,0,0,0,.111.108,1.759,1.759,0,0,1,1.147.276.691.691,0,0,1,.223.544.1.1,0,0,0,.2,0,.694.694,0,0,1,.223-.545,1.754,1.754,0,0,1,1.146-.275.1.1,0,0,0,.109-.108.1.1,0,0,0-.109-.109,1.745,1.745,0,0,1-1.146-.275.69.69,0,0,1-.223-.545.1.1,0,1,0-.2,0m.29.7a1.177,1.177,0,0,0,.422.233,1.162,1.162,0,0,0-.422.233.2.2,0,1,1-.377,0,1.161,1.161,0,0,0-.422-.233,1.176,1.176,0,0,0,.422-.233.2.2,0,1,1,.377,0" transform="translate(-3720.537 -3122.895)" fill="#238984"/>
    <path id="Path_54275" data-name="Path 54275" d="M3610.425,3223.8a.693.693,0,0,1-.223.544,1.757,1.757,0,0,1-1.147.276.1.1,0,0,0-.111.109.1.1,0,0,0,.111.108,1.759,1.759,0,0,1,1.147.276.692.692,0,0,1,.223.544.1.1,0,0,0,.2,0,.694.694,0,0,1,.222-.545,1.754,1.754,0,0,1,1.146-.275.1.1,0,0,0,.109-.108.1.1,0,0,0-.109-.109,1.744,1.744,0,0,1-1.146-.275.689.689,0,0,1-.223-.545.1.1,0,1,0-.2,0m.29.7a1.181,1.181,0,0,0,.422.233,1.166,1.166,0,0,0-.422.233.2.2,0,1,1-.377,0,1.164,1.164,0,0,0-.422-.233,1.179,1.179,0,0,0,.422-.233.2.2,0,1,1,.377,0" transform="translate(-3496.201 -3122.895)" fill="#238984"/>
    <path id="Path_54276" data-name="Path 54276" d="M3536.327,3210.75c0,.814-.03,1.5-.031,1.514a.1.1,0,0,1-.1.094.109.109,0,0,1-.1-.1c0-.016.069-1.559,0-2.75a.1.1,0,0,1,.2-.011c.023.4.031.844.031,1.255" transform="translate(-3425.631 -3109.043)" fill="#238984"/>
    <path id="Path_54277" data-name="Path 54277" d="M3774.936,3210.75c0,.814-.031,1.5-.031,1.514a.1.1,0,0,1-.1.094.109.109,0,0,1-.1-.1c0-.016.069-1.559,0-2.75a.1.1,0,0,1,.2-.011c.023.4.031.844.031,1.255" transform="translate(-3656.781 -3109.043)" fill="#238984"/>
    <path id="Path_54278" data-name="Path 54278" d="M464.792,2683.48a.8.8,0,0,0,.1.129c.149.224.328.481.514.748a.823.823,0,0,1,.1.13c.184.242.374.495.583.76.036.042.062.089.1.141.216.276.431.552.662.833a.828.828,0,0,0,.093.123c.217.277.443.55.65.809.036.042.077.094.113.136.217.254.414.495.594.707a.427.427,0,0,1,.109.127c.113.112.216.229.309.328.16.174.306.344.446.505.036.043.064.092.1.134.252.315.474.624.683.929.027.049.064.092.092.141l.49.742c.028.049.064.093.092.142a15.651,15.651,0,0,0,.975,1.311.925.925,0,0,1,.121.125c.143.165.292.339.465.512.1.1.2.2.31.3.037.044.084.082.121.125.267.248.56.494.841.72a.97.97,0,0,1,.144.1,6.49,6.49,0,0,0,.833.564c.056.031.1.059.154.09,1.006.548,1.957.741,2.56.212.524-.46.276-1.274-.275-2.168a.891.891,0,0,1-.1-.144q-.194-.305-.433-.621c-.038-.043-.066-.093-.1-.137-.219-.293-.462-.583-.7-.863l-.113-.129-.006-.01c-.3-.345-.582-.661-.852-.956-.006-.01-.026-.023-.032-.033a.933.933,0,0,0-.121-.123,9.176,9.176,0,0,0-.918-.874.957.957,0,0,0-.129-.116c-.314-.261-.642-.526-.987-.779a1.047,1.047,0,0,0-.147-.1c-.218-.162-.442-.334-.684-.493-.046-.036-.091-.073-.152-.112-.353-.244-.72-.492-1.086-.739-.051-.046-.106-.076-.151-.112-.251-.177-.511-.349-.761-.525a1.02,1.02,0,0,1-.145-.1c-.159-.1-.315-.226-.474-.331-.184-.128-.359-.261-.549-.4a1.053,1.053,0,0,0-.144-.1c-.329-.253-.653-.5-.976-.739a1.061,1.061,0,0,0-.143-.1l-.521-.4-.134-.106c-.287-.225-.559-.422-.8-.6a.608.608,0,0,0-.137-.09c-.608-.424-1.007-.651-1.05-.458a2.564,2.564,0,0,0,.472.832" transform="translate(-449.878 -2598.687)" fill="#238984"/>
    <path id="Path_54279" data-name="Path 54279" d="M479.478,2699.823a.793.793,0,0,0,.1.129,3.15,3.15,0,0,0,.271-.163c.128-.083.242-.17.347-.25a.593.593,0,0,0-.137-.09c-.16.116-.361.247-.577.374" transform="translate(-464.564 -2615.031)" fill="#80bbb9"/>
    <path id="Path_54280" data-name="Path 54280" d="M499,2721.952a.823.823,0,0,1,.1.13c.194-.1.383-.211.548-.318s.293-.191.4-.272l-.134-.106a9.309,9.309,0,0,1-.909.566" transform="translate(-483.472 -2636.281)" fill="#80bbb9"/>
    <path id="Path_54281" data-name="Path 54281" d="M520.767,2738.433c.036.042.062.089.1.141a2.554,2.554,0,0,1,.924-.994,1.012,1.012,0,0,0-.144-.1,2.562,2.562,0,0,0-.884.954" transform="translate(-504.562 -2651.872)" fill="#80bbb9"/>
    <path id="Path_54282" data-name="Path 54282" d="M545.244,2765.42a.839.839,0,0,0,.093.123,5.271,5.271,0,0,1,1.29-1.109,1.052,1.052,0,0,0-.144-.1,4.488,4.488,0,0,0-1.238,1.088" transform="translate(-528.274 -2677.885)" fill="#80bbb9"/>
    <path id="Path_54283" data-name="Path 54283" d="M569.015,2792.05c.036.042.077.094.113.136.12-.079.277-.183.49-.3a5.825,5.825,0,0,0,1.2-.927,1.045,1.045,0,0,1-.145-.1,4.894,4.894,0,0,1-1.131.878c-.223.12-.4.226-.532.311" transform="translate(-551.302 -2703.585)" fill="#80bbb9"/>
    <path id="Path_54284" data-name="Path 54284" d="M591.663,2812.328a.425.425,0,0,1,.109.127,8.253,8.253,0,0,1,1.9-1.42c-.051-.046-.106-.076-.151-.112a8.784,8.784,0,0,0-1.861,1.405" transform="translate(-573.242 -2723.02)" fill="#80bbb9"/>
    <path id="Path_54285" data-name="Path 54285" d="M619.28,2839.665c.036.042.064.091.1.134.166-.111.438-.305.842-.6a13.914,13.914,0,0,1,1.444-.935c-.046-.036-.092-.073-.152-.112a15.867,15.867,0,0,0-1.384.907c-.432.314-.694.5-.851.607" transform="translate(-599.996 -2749.396)" fill="#80bbb9"/>
    <path id="Path_54286" data-name="Path 54286" d="M644.332,2859.483c.027.049.064.092.092.141a11.038,11.038,0,0,1,2.343-2.011,1.03,1.03,0,0,0-.147-.1,11.376,11.376,0,0,0-2.288,1.972" transform="translate(-624.265 -2768.151)" fill="#80bbb9"/>
    <path id="Path_54287" data-name="Path 54287" d="M662.937,2887.675c.028.05.064.093.092.142.234-.13.475-.292.715-.453.831-.558,1.7-1.2,2.162-1.547a.946.946,0,0,0-.129-.116c-.47.356-1.322.982-2.125,1.521-.241.162-.481.323-.715.453" transform="translate(-642.288 -2795.46)" fill="#80bbb9"/>
    <path id="Path_54288" data-name="Path 54288" d="M697.059,2919.8a.912.912,0,0,1,.121.125,9.139,9.139,0,0,1,2.821-2.439.918.918,0,0,0-.121-.123,9.459,9.459,0,0,0-2.821,2.438" transform="translate(-675.343 -2826.134)" fill="#80bbb9"/>
    <path id="Path_54289" data-name="Path 54289" d="M725.72,2955.178c.037.044.084.082.121.125.352-.266.9-.691,1.487-1.231a7.836,7.836,0,0,1,1.439-1.019l-.112-.13-.006-.01a7.84,7.84,0,0,0-1.424,1.021c-.61.552-1.163.982-1.505,1.242" transform="translate(-703.108 -2860.572)" fill="#80bbb9"/>
    <path id="Path_54290" data-name="Path 54290" d="M891.065,2237.709a.948.948,0,0,1,0,.183c.016.3.027.658.04,1.025a.958.958,0,0,0,0,.184c0,.345,0,.7-.013,1.089,0,.062,0,.124,0,.2-.008.4-.016.8-.035,1.214a1,1,0,0,1,0,.176c-.008.4-.029.807-.04,1.187,0,.063-.006.14-.01.2-.023.383-.038.74-.058,1.061a.519.519,0,0,0-.012.192c-.026.182-.039.362-.056.518-.026.272-.042.53-.06.777,0,.065,0,.128,0,.193-.014.466-.007.9.01,1.329.008.064,0,.129.012.193.018.336.036.672.056,1.022.008.064,0,.13.012.194.025.587.041,1.2,0,1.9a1.137,1.137,0,0,0-.025.2c-.018.254-.034.522-.073.807-.017.162-.047.326-.075.5,0,.068-.021.137-.025.2-.073.425-.169.868-.268,1.285a1.26,1.26,0,0,0-.064.2,8.512,8.512,0,0,1-.366,1.146c-.029.072-.048.129-.077.2-.533,1.273-1.254,2.194-2.149,2.2-.78.007-1.1-.913-1.2-2.143a1.1,1.1,0,0,0-.01-.2q-.028-.423-.024-.891c.005-.068,0-.135,0-.2,0-.432.027-.878.054-1.311.005-.067.01-.135.015-.2l0-.013c.04-.539.084-1.037.13-1.507,0-.013.008-.041.006-.054a1.173,1.173,0,0,1,.027-.2,11.672,11.672,0,0,1,.243-1.479,1.2,1.2,0,0,1,.039-.2c.107-.471.225-.955.367-1.441a1.357,1.357,0,0,1,.063-.2c.088-.309.173-.63.284-.953.017-.067.034-.133.061-.214.152-.482.315-.977.477-1.469.015-.078.044-.146.06-.211.105-.344.223-.689.328-1.031a1.264,1.264,0,0,0,.061-.2c.072-.211.13-.432.2-.643.079-.249.146-.5.223-.756a1.268,1.268,0,0,1,.061-.2c.124-.465.249-.917.374-1.367a1.279,1.279,0,0,1,.06-.193l.2-.729.048-.19c.1-.407.214-.776.315-1.107a.739.739,0,0,1,.061-.178c.254-.811.454-1.3.616-1.159a2.942,2.942,0,0,1,.13,1.066" transform="translate(-858.922 -2166.669)" fill="#80bbb9"/>
    <path id="Path_54291" data-name="Path 54291" d="M1005.65,2271.469a.941.941,0,0,1,0,.183,3.428,3.428,0,0,1-.342.055c-.166.021-.321.028-.465.034a.739.739,0,0,1,.061-.178c.215-.015.475-.047.746-.093" transform="translate(-973.506 -2200.429)" fill="#238984"/>
    <path id="Path_54292" data-name="Path 54292" d="M994.438,2310.113a.961.961,0,0,0,0,.185c-.235.054-.471.1-.685.123s-.381.048-.525.053l.048-.191a9.868,9.868,0,0,0,1.162-.17" transform="translate(-962.254 -2237.865)" fill="#238984"/>
    <path id="Path_54293" data-name="Path 54293" d="M986.447,2344.432c0,.062,0,.124,0,.2a2.611,2.611,0,0,0-1.456-.189,1.267,1.267,0,0,1,.06-.193,2.62,2.62,0,0,1,1.394.184" transform="translate(-954.276 -2270.91)" fill="#238984"/>
    <path id="Path_54294" data-name="Path 54294" d="M972.934,2392.751a1,1,0,0,1,0,.176,5.473,5.473,0,0,0-1.855-.016,1.289,1.289,0,0,1,.061-.2,4.656,4.656,0,0,1,1.8.036" transform="translate(-940.797 -2317.817)" fill="#238984"/>
    <path id="Path_54295" data-name="Path 54295" d="M957.83,2439.627c0,.064-.006.14-.01.2-.157.02-.361.046-.623.1a6.121,6.121,0,0,1-1.667.085,1.277,1.277,0,0,0,.061-.2,5.141,5.141,0,0,0,1.57-.073c.274-.06.5-.1.669-.123" transform="translate(-925.734 -2363.33)" fill="#238984"/>
    <path id="Path_54296" data-name="Path 54296" d="M945.73,2478.976a.523.523,0,0,0-.012.193,8.732,8.732,0,0,0-2.609.179c.015-.078.044-.146.06-.211a9.273,9.273,0,0,1,2.56-.16" transform="translate(-913.702 -2401.416)" fill="#238984"/>
    <path id="Path_54297" data-name="Path 54297" d="M928.938,2527.61c0,.065,0,.128,0,.193-.219.028-.585.062-1.135.107a15.106,15.106,0,0,0-1.9.268c.017-.067.034-.133.061-.214a17.146,17.146,0,0,1,1.823-.246c.586-.049.94-.082,1.147-.108" transform="translate(-897.038 -2448.563)" fill="#238984"/>
    <path id="Path_54298" data-name="Path 54298" d="M918.209,2572.515c.008.064,0,.129.012.193a11.546,11.546,0,0,0-3.4.008,1.36,1.36,0,0,1,.063-.2,11.882,11.882,0,0,1,3.324,0" transform="translate(-886.299 -2491.946)" fill="#238984"/>
    <path id="Path_54299" data-name="Path 54299" d="M905.7,2615.18c.008.064,0,.13.012.194-.291.064-.61.1-.929.146-1.1.143-2.3.244-2.945.288a1.193,1.193,0,0,1,.039-.2c.655-.045,1.828-.144,2.895-.282.319-.041.637-.082.928-.146" transform="translate(-873.723 -2533.396)" fill="#238984"/>
    <path id="Path_54300" data-name="Path 54300" d="M897.361,2675.578a1.148,1.148,0,0,0-.024.2,9.594,9.594,0,0,0-4.123.019,1.161,1.161,0,0,1,.027-.2,9.931,9.931,0,0,1,4.121-.019" transform="translate(-865.366 -2591.704)" fill="#238984"/>
    <path id="Path_54301" data-name="Path 54301" d="M890.781,2817.472c-.029.072-.048.129-.077.2a9.939,9.939,0,0,0-3.349.06,1.086,1.086,0,0,0-.01-.2,10.507,10.507,0,0,1,3.436-.057" transform="translate(-859.681 -2729.253)" fill="#238984"/>
    <path id="Path_54302" data-name="Path 54302" d="M892.529,2730.433c0,.067-.021.136-.025.2-.487.037-1.25.083-2.134.064a8.467,8.467,0,0,0-1.967.216l.015-.2,0-.013a8.462,8.462,0,0,1,1.955-.2c.908.015,1.683-.033,2.158-.068" transform="translate(-860.706 -2645.046)" fill="#238984"/>
    <path id="Path_54303" data-name="Path 54303" d="M890.471,2775.135a1.271,1.271,0,0,0-.064.2,10.432,10.432,0,0,0-3.825.312c.005-.068,0-.135,0-.2a9.949,9.949,0,0,1,3.887-.306" transform="translate(-858.942 -2688.259)" fill="#238984"/>
    <path id="Path_54304" data-name="Path 54304" d="M754.658,2167.7a1.248,1.248,0,0,1,0,.231c0,.6-.028,1.145-.071,1.627a1.2,1.2,0,0,1-.014.234v.016c-.057.688-.13,1.253-.217,1.741-.015.094-.029.173-.044.252-.409,1.922-1.066,2.209-1.474,2.209s-.871-.511-1.383-1.862a1.318,1.318,0,0,0-.07-.221c-.155-.442-.323-.961-.49-1.557-.014-.063-.042-.141-.055-.219-.083-.3-.166-.609-.248-.951-.014-.062-.041-.14-.055-.218l-.082-.326c-.122-.541-.245-1.065-.352-1.588l-.04-.23c-.12-.612-.225-1.236-.315-1.858-.013-.076-.026-.136-.04-.212-.064-.468-.127-.95-.176-1.446-.013-.06-.012-.135-.025-.21-.062-.568-.109-1.149-.141-1.771,0-.074-.012-.148-.01-.237-.047-.59-.064-1.222-.082-1.881,0-.073-.011-.146-.01-.233-.007-.408-.014-.829-.021-1.279l0-.2c-.006-.462,0-.937.01-1.424a.563.563,0,0,1,0-.215c-.01-.214-.007-.428,0-.656l.009-.526a1.107,1.107,0,0,1,.017-.213c.01-.608.047-1.2.084-1.776a1.964,1.964,0,0,0,.032-.266c.034-.419.081-.823.128-1.212,0-.083.016-.153.017-.222.078-.651.169-1.257.258-1.819v-.014l.044-.246c.133-.819.292-1.552.434-2.16a1.147,1.147,0,0,1,.056-.2c.311-1.3.6-2.047.7-1.967a6.254,6.254,0,0,1,.594,1.94c.013.067.039.148.052.215.129.554.258,1.164.388,1.8a1.088,1.088,0,0,1,.039.2c.117.548.235,1.111.353,1.662.013.069.026.138.04.194.093.4.172.79.265,1.18l.04.209c.12.517.227,1.022.348,1.472l.04.211a.884.884,0,0,0,.027.1c.176.708.339,1.3.489,1.888l.041.214c.068.287.137.588.206.89a.593.593,0,0,0,.041.216c.082.461.165.954.234,1.52a1.332,1.332,0,0,0,.028.233c.055.5.111,1.038.153,1.655a1.328,1.328,0,0,1,.014.236c.042.487.07,1.006.1,1.585a1.2,1.2,0,0,1,.014.223c.028.523.057,1.092.071,1.708a1.205,1.205,0,0,0,.014.226c0,.363.015.756.029,1.166v.441a.62.62,0,0,1,0,.229v.015a12.614,12.614,0,0,1,0,1.472" transform="translate(-725.895 -2077.508)" fill="#238984"/>
    <path id="Path_54305" data-name="Path 54305" d="M783.833,2206.43a6.114,6.114,0,0,0-1.406.013,1.13,1.13,0,0,1,.056-.2,6.974,6.974,0,0,1,1.3-.027c.013.067.039.148.052.216" transform="translate(-758.043 -2137.195)" fill="#80bbb9"/>
    <path id="Path_54306" data-name="Path 54306" d="M769.439,2271.646a5.7,5.7,0,0,0-2.311.41l.044-.246a6.382,6.382,0,0,1,2.228-.369,1.093,1.093,0,0,1,.039.2" transform="translate(-743.222 -2200.402)" fill="#80bbb9"/>
    <path id="Path_54307" data-name="Path 54307" d="M761.291,2331.359a14.251,14.251,0,0,1-2.979.61c0-.083.016-.153.017-.222a13.008,13.008,0,0,0,2.923-.581c.013.069.026.138.039.194" transform="translate(-734.682 -2258.259)" fill="#80bbb9"/>
    <path id="Path_54308" data-name="Path 54308" d="M756.636,2375.307a10.385,10.385,0,0,0-3.444.7,1.965,1.965,0,0,0,.032-.266,11.508,11.508,0,0,1,3.372-.642l.04.209" transform="translate(-729.722 -2300.819)" fill="#80bbb9"/>
    <path id="Path_54309" data-name="Path 54309" d="M753.889,2429.093a20,20,0,0,1-3.933,1,1.115,1.115,0,0,1,.017-.213,21.311,21.311,0,0,0,3.876-1Z" transform="translate(-726.587 -2352.92)" fill="#80bbb9"/>
    <path id="Path_54310" data-name="Path 54310" d="M753.888,2499.427a5.624,5.624,0,0,1-2.138.115,9.927,9.927,0,0,0-2.36.086.564.564,0,0,1,0-.215,10.239,10.239,0,0,1,2.386-.085,5.157,5.157,0,0,0,2.068-.115Z" transform="translate(-726.029 -2421.053)" fill="#80bbb9"/>
    <path id="Path_54311" data-name="Path 54311" d="M754,2534.739a14.283,14.283,0,0,1-4.759.722l0-.2a14.276,14.276,0,0,0,4.714-.735.6.6,0,0,0,.041.216" transform="translate(-725.895 -2455.26)" fill="#80bbb9"/>
    <path id="Path_54312" data-name="Path 54312" d="M754.9,2590.28a4.755,4.755,0,0,1-1.715.51,8.027,8.027,0,0,1-1.088.059c-.781,0-1.658-.044-2.187-.088,0-.073-.012-.146-.01-.234.515.044,1.392.088,2.186.088.4,0,.78-.015,1.073-.044a4.618,4.618,0,0,0,1.714-.525,1.321,1.321,0,0,0,.028.233" transform="translate(-726.533 -2509.048)" fill="#80bbb9"/>
    <path id="Path_54313" data-name="Path 54313" d="M757.908,2650.662a4.288,4.288,0,0,1-2.131.428h-.322a7.433,7.433,0,0,0-2.612.281c0-.074-.012-.148-.01-.237a8.66,8.66,0,0,1,2.624-.266,4.247,4.247,0,0,0,2.437-.442,1.332,1.332,0,0,1,.014.236" transform="translate(-729.373 -2567.54)" fill="#80bbb9"/>
    <path id="Path_54314" data-name="Path 54314" d="M762.714,2708.89a5.553,5.553,0,0,1-2.03.538c-1.157.1-2.373.269-2.981.344-.013-.06-.012-.135-.025-.209.608-.09,1.822-.254,2.993-.359a5.4,5.4,0,0,0,2.029-.537,1.2,1.2,0,0,1,.014.224" transform="translate(-734.067 -2623.959)" fill="#80bbb9"/>
    <path id="Path_54315" data-name="Path 54315" d="M769.041,2770.443a21.174,21.174,0,0,0-4.881.6c-.013-.076-.026-.137-.039-.212a20.473,20.473,0,0,1,4.906-.619,1.21,1.21,0,0,0,.014.226" transform="translate(-740.309 -2683.578)" fill="#80bbb9"/>
    <path id="Path_54316" data-name="Path 54316" d="M780.071,2829.116a.621.621,0,0,1,0,.229v.015a16.525,16.525,0,0,1-4.555.842l-.04-.23a16.17,16.17,0,0,0,4.595-.855" transform="translate(-751.309 -2740.644)" fill="#80bbb9"/>
    <path id="Path_54317" data-name="Path 54317" d="M794.756,2884.006a1.253,1.253,0,0,1,0,.231,23.454,23.454,0,0,0-4.067,1.27c-.014-.062-.042-.14-.055-.218a21.332,21.332,0,0,1,4.122-1.283" transform="translate(-765.993 -2793.818)" fill="#80bbb9"/>
    <path id="Path_54318" data-name="Path 54318" d="M902.038,2334.309c-.017.063-.031.14-.044.218-.05.414-.131.9-.215,1.439a.711.711,0,0,1-.042.235c-.025.323-.076.667-.121,1.04-.034.281-.065.577-.1.874a1.439,1.439,0,0,1-.02.2l0,.015c-.045.455-.088.925-.125,1.427-.017.065-.017.143-.032.223-.054.647-.115,1.345-.2,2.067a1.407,1.407,0,0,1-.029.241c-.061.547-.134,1.115-.233,1.7a.853.853,0,0,1-.041.263c-.082.605-.2,1.253-.339,1.905-.015.083-.032.151-.047.235-.11.554-.249,1.115-.386,1.694a1.363,1.363,0,0,0-.065.224c-.131.45-.263.9-.392,1.369a2.409,2.409,0,0,0-.081.229c-.03.088-.048.158-.078.246-.111.318-.208.634-.325.922a1.541,1.541,0,0,1-.082.231c-.157.413-.317.81-.487,1.159-.045.093-.079.166-.112.239-.182.37-.358.689-.522.99l-.17.268a8.718,8.718,0,0,1-1.131,1.452l-.246.2c-.993.855-1.933.916-2.587.425a1.928,1.928,0,0,1-.75-1.6l0-.016c0-.1,0-.186,0-.3,0-.186.013-.406.022-.643.017-.087.019-.171.036-.259.062-.58.183-1.27.358-2.1l0-.016a1.565,1.565,0,0,0,.068-.244c.056-.226.109-.466.174-.725.062-.275.14-.552.219-.813a.912.912,0,0,1,.07-.226,12.339,12.339,0,0,1,.451-1.419,1.381,1.381,0,0,1,.069-.223c.127-.331.251-.677.392-1.009a.944.944,0,0,1,.089-.193c.187-.5.415-1.022.66-1.531a1.641,1.641,0,0,1,.1-.225q.361-.781.763-1.565a1.9,1.9,0,0,1,.107-.24l.7-1.351a1.622,1.622,0,0,1,.1-.19c.3-.568.6-1.135.906-1.716a1.6,1.6,0,0,1,.11-.205c.122-.222.241-.459.362-.681.066-.119.121-.221.173-.338a2.008,2.008,0,0,0,.118-.236c.23-.424.437-.812.643-1.2a1.686,1.686,0,0,1,.151-.285c.362-.715.679-1.345.956-1.875a1.58,1.58,0,0,0,.116-.23c.7-1.332,1.108-2.042,1.242-1.948.151.106.041.719-.153,1.872" transform="translate(-865.197 -2259.483)" fill="#238984"/>
    <path id="Path_54319" data-name="Path 54319" d="M1143.567,2392.585c-.017.063-.031.14-.045.218a6.435,6.435,0,0,1-1.16.089,1.593,1.593,0,0,0,.115-.231,7.25,7.25,0,0,0,1.089-.075" transform="translate(-1106.726 -2317.759)" fill="#80bbb9"/>
    <path id="Path_54320" data-name="Path 54320" d="M1108.987,2445.573a.711.711,0,0,1-.042.235,19.423,19.423,0,0,0-2.011.575,1.681,1.681,0,0,1,.151-.285,15.8,15.8,0,0,1,1.9-.524" transform="translate(-1072.406 -2369.091)" fill="#80bbb9"/>
    <path id="Path_54321" data-name="Path 54321" d="M1085.145,2509.08a1.442,1.442,0,0,1-.02.2,9.691,9.691,0,0,0-2.536-.108,1.989,1.989,0,0,0,.118-.236,8.28,8.28,0,0,1,2.437.14" transform="translate(-1048.823 -2430.45)" fill="#80bbb9"/>
    <path id="Path_54322" data-name="Path 54322" d="M1064.988,2550.481c-.017.065-.017.142-.031.222a5.813,5.813,0,0,1-3.028-.547,1.582,1.582,0,0,1,.11-.2,5.669,5.669,0,0,0,2.949.53" transform="translate(-1028.807 -2470.206)" fill="#80bbb9"/>
    <path id="Path_54323" data-name="Path 54323" d="M1033.576,2612.309a1.413,1.413,0,0,1-.029.241,6.474,6.474,0,0,0-1.943-.444,4.2,4.2,0,0,1-1.86-.5,1.632,1.632,0,0,1,.1-.19,4.278,4.278,0,0,0,1.776.457,6.774,6.774,0,0,1,1.956.441" transform="translate(-997.628 -2529.744)" fill="#80bbb9"/>
    <path id="Path_54324" data-name="Path 54324" d="M1008.271,2662a.855.855,0,0,1-.041.262,3.52,3.52,0,0,0-2.177-.6,3.376,3.376,0,0,1-2.161-.725,1.917,1.917,0,0,1,.107-.24,3.105,3.105,0,0,0,2.055.727,3.861,3.861,0,0,1,2.215.575" transform="translate(-972.586 -2577.491)" fill="#80bbb9"/>
    <path id="Path_54325" data-name="Path 54325" d="M981.236,2720.124c-.015.083-.032.151-.047.235a9.541,9.541,0,0,1-4.811-1.674,1.615,1.615,0,0,1,.1-.225,9.511,9.511,0,0,0,4.762,1.664" transform="translate(-945.93 -2633.447)" fill="#80bbb9"/>
    <path id="Path_54326" data-name="Path 54326" d="M957.608,2776.438a1.361,1.361,0,0,0-.065.225,34.528,34.528,0,0,0-5.108-1.869.978.978,0,0,1,.088-.193,34.565,34.565,0,0,1,5.086,1.838" transform="translate(-922.735 -2687.832)" fill="#80bbb9"/>
    <path id="Path_54327" data-name="Path 54327" d="M942.861,2815.294c-.033.072-.051.141-.081.229a30.585,30.585,0,0,0-5.1-2.235,1.379,1.379,0,0,1,.069-.223,31.136,31.136,0,0,1,5.108,2.229" transform="translate(-908.445 -2725.095)" fill="#80bbb9"/>
    <path id="Path_54328" data-name="Path 54328" d="M926.236,2867.592a1.561,1.561,0,0,1-.082.231,4.59,4.59,0,0,0-1.99-.885,14.575,14.575,0,0,1-3.143-1.1.914.914,0,0,1,.07-.226,14.807,14.807,0,0,0,3.124,1.089,4.952,4.952,0,0,1,2.021.894" transform="translate(-892.304 -2775.996)" fill="#80bbb9"/>
    <path id="Path_54329" data-name="Path 54329" d="M911.376,2923.625c-.045.092-.079.166-.112.239a9.692,9.692,0,0,1-4.993-1.589l0-.016a1.579,1.579,0,0,0,.068-.244,9.52,9.52,0,0,0,5.039,1.61" transform="translate(-878.012 -2830.638)" fill="#80bbb9"/>
    <path id="Path_54330" data-name="Path 54330" d="M898.614,2997.963l-.17.268a10.184,10.184,0,0,1-4.695-.49c.017-.087.019-.172.036-.259a9.834,9.834,0,0,0,4.828.48" transform="translate(-865.885 -2903.748)" fill="#80bbb9"/>
    <path id="Path_54331" data-name="Path 54331" d="M972.214,2513.861a.917.917,0,0,0-.08.16c-.209.417-.378.8-.515,1.155a.9.9,0,0,0-.071.167l-.005.011c-.2.5-.343.918-.452,1.29-.023.071-.04.131-.057.191-.381,1.49-.03,1.962.251,2.133s.776.014,1.6-.7a.918.918,0,0,1,.126-.123c.261-.24.559-.528.883-.869.031-.037.078-.08.115-.128.162-.17.328-.352.505-.554.031-.038.078-.08.115-.128l.172-.192c.275-.324.545-.638.8-.956l.109-.144c.3-.376.594-.768.878-1.165.036-.047.067-.084.1-.132.211-.3.427-.612.637-.939.031-.036.056-.089.092-.136.246-.373.486-.762.731-1.187.026-.053.061-.1.092-.163.244-.4.483-.836.731-1.294.025-.052.061-.1.091-.161.152-.286.308-.582.474-.9l.07-.145c.171-.325.336-.666.507-1.016a.433.433,0,0,0,.075-.154c.085-.148.16-.3.239-.466l.184-.379a.871.871,0,0,0,.065-.159c.213-.439.4-.877.584-1.3a1.57,1.57,0,0,1,.074-.2c.128-.314.241-.624.349-.922.029-.061.044-.116.069-.167.181-.5.337-.973.478-1.416l0-.01.058-.2c.2-.645.357-1.24.477-1.738a.937.937,0,0,0,.033-.169c.253-1.07.318-1.729.212-1.714a4.817,4.817,0,0,0-1.139,1.167c-.034.043-.082.092-.116.135-.295.348-.61.736-.935,1.145a.844.844,0,0,0-.1.132c-.283.346-.571.7-.854,1.052-.034.044-.069.088-.1.123-.211.25-.408.5-.614.738l-.1.134c-.271.321-.529.638-.776.91l-.1.134a.628.628,0,0,1-.054.059c-.378.432-.706.79-1.02,1.144l-.105.136c-.15.175-.305.361-.461.547a.443.443,0,0,1-.106.136c-.222.293-.454.607-.7.979a.981.981,0,0,1-.1.153c-.214.327-.444.686-.691,1.1a1,1,0,0,0-.093.16c-.2.325-.4.677-.626,1.072a.9.9,0,0,0-.088.151c-.2.354-.422.74-.648,1.165a.909.909,0,0,1-.089.152c-.127.253-.274.521-.427.8l-.154.307a.472.472,0,0,0-.08.159l-.005.011a9.51,9.51,0,0,0-.512,1.021" transform="translate(-940.592 -2420.787)" fill="#80bbb9"/>
    <path id="Path_54332" data-name="Path 54332" d="M1319.5,2536.4a5.212,5.212,0,0,1,1.009.582.935.935,0,0,0,.033-.169,5.892,5.892,0,0,0-.927-.548c-.034.043-.082.091-.116.135" transform="translate(-1278.325 -2456.948)" fill="#238984"/>
    <path id="Path_54333" data-name="Path 54333" d="M1286.313,2577.357a4.93,4.93,0,0,1,1.511,1.239l.058-.2a5.5,5.5,0,0,0-1.467-1.175.838.838,0,0,0-.1.132" transform="translate(-1246.177 -2496.627)" fill="#238984"/>
    <path id="Path_54334" data-name="Path 54334" d="M1255.84,2615.207a12.4,12.4,0,0,0,1.913,1.656c.029-.061.044-.117.069-.167a11.287,11.287,0,0,1-1.883-1.612c-.034.044-.069.088-.1.123" transform="translate(-1216.657 -2533.302)" fill="#238984"/>
    <path id="Path_54335" data-name="Path 54335" d="M1232.88,2642.749a9.02,9.02,0,0,1,2.208,1.911,1.588,1.588,0,0,1,.074-.2,9.99,9.99,0,0,0-2.178-1.841l-.1.134" transform="translate(-1194.414 -2559.973)" fill="#238984"/>
    <path id="Path_54336" data-name="Path 54336" d="M1204.724,2676.125a17.49,17.49,0,0,0,2.439,2.331.873.873,0,0,0,.065-.159,18.641,18.641,0,0,1-2.4-2.306Z" transform="translate(-1167.139 -2592.305)" fill="#238984"/>
    <path id="Path_54337" data-name="Path 54337" d="M1166.983,2718.917a4.789,4.789,0,0,0,1.472.958,8.523,8.523,0,0,1,1.648,1.034.435.435,0,0,0,.075-.154,8.75,8.75,0,0,0-1.667-1.044,4.392,4.392,0,0,1-1.423-.928Z" transform="translate(-1130.577 -2633.758)" fill="#238984"/>
    <path id="Path_54338" data-name="Path 54338" d="M1148.854,2740.737a12.363,12.363,0,0,0,3.11,2.47l.07-.145a12.374,12.374,0,0,1-3.075-2.462.445.445,0,0,1-.106.136" transform="translate(-1113.015 -2654.896)" fill="#238984"/>
    <path id="Path_54339" data-name="Path 54339" d="M1123.106,2776.411a4.174,4.174,0,0,0,1.024,1.064,6.852,6.852,0,0,0,.746.49c.552.323,1.188.655,1.58.843.025-.052.061-.1.091-.161-.381-.182-1.018-.514-1.579-.842-.285-.167-.545-.332-.741-.473a4.061,4.061,0,0,1-1.019-1.074,1.026,1.026,0,0,1-.1.153" transform="translate(-1088.072 -2689.438)" fill="#238984"/>
    <path id="Path_54340" data-name="Path 54340" d="M1098.043,2816.587a3.728,3.728,0,0,0,1.342,1.178l.227.133a6.443,6.443,0,0,1,1.741,1.281c.026-.052.061-.1.092-.162a7.489,7.489,0,0,0-1.756-1.275,3.692,3.692,0,0,1-1.553-1.314,1,1,0,0,0-.093.16" transform="translate(-1063.792 -2728.352)" fill="#238984"/>
    <path id="Path_54341" data-name="Path 54341" d="M1075.208,2855.982a4.867,4.867,0,0,0,1.229,1.214c.774.553,1.57,1.173,1.971,1.479.031-.036.057-.09.092-.136-.4-.316-1.192-.936-1.975-1.494a4.739,4.739,0,0,1-1.229-1.212.9.9,0,0,0-.088.15" transform="translate(-1041.671 -2766.524)" fill="#238984"/>
    <path id="Path_54342" data-name="Path 54342" d="M1051.648,2898.081a18.373,18.373,0,0,1,3.2,2.446c.036-.048.067-.084.1-.132a17.733,17.733,0,0,0-3.21-2.467.908.908,0,0,1-.089.152" transform="translate(-1018.848 -2807.305)" fill="#238984"/>
    <path id="Path_54343" data-name="Path 54343" d="M1030.435,2938.216a.466.466,0,0,0-.08.159l-.005.01a14.46,14.46,0,0,0,2.875,2.478l.109-.144a14.139,14.139,0,0,1-2.9-2.5" transform="translate(-998.216 -2846.333)" fill="#238984"/>
    <path id="Path_54344" data-name="Path 54344" d="M1011.483,2976.317a.924.924,0,0,0-.08.16,20.842,20.842,0,0,1,2.377,2.572c.031-.038.078-.08.115-.128a18.91,18.91,0,0,0-2.412-2.6" transform="translate(-979.861 -2883.243)" fill="#238984"/>
    <path id="Path_54345" data-name="Path 54345" d="M992.574,3018.4a.908.908,0,0,0-.071.167l-.005.011a4.78,4.78,0,0,0,.982.8,5.956,5.956,0,0,1,1.366,1.119c.031-.038.078-.08.115-.128a7.053,7.053,0,0,0-1.394-1.164,4.411,4.411,0,0,1-.992-.808" transform="translate(-961.547 -2924.007)" fill="#238984"/>
    <path id="Path_54346" data-name="Path 54346" d="M622.726,2513.507c.017.051.033.114.049.177.064.339.157.73.256,1.173a.589.589,0,0,0,.047.191c.039.264.1.544.157.848.043.229.085.471.127.712a1.2,1.2,0,0,0,.028.166v.012c.063.37.124.753.182,1.163.018.052.022.116.038.181.081.527.169,1.095.28,1.679a1.155,1.155,0,0,0,.037.2c.08.443.171.9.284,1.377a.7.7,0,0,0,.048.212c.1.488.234,1.008.38,1.531.017.067.035.121.051.188.119.443.263.891.405,1.352a1.1,1.1,0,0,1,.065.178c.131.356.262.714.391,1.085.03.056.049.111.078.18s.047.124.076.194c.107.25.2.5.312.725a1.233,1.233,0,0,0,.078.181c.149.323.3.634.455.906.042.072.072.128.1.186.166.287.325.533.473.765l.151.205a6.884,6.884,0,0,0,.986,1.1l.208.145a1.6,1.6,0,0,0,2.1.174,1.584,1.584,0,0,0,.519-1.339v-.013c0-.081-.011-.149-.014-.244-.011-.149-.031-.326-.051-.517-.018-.069-.024-.137-.042-.206-.08-.464-.212-1.012-.4-1.671v-.013a1.246,1.246,0,0,1-.067-.193c-.056-.178-.111-.369-.177-.575s-.141-.437-.219-.644a.743.743,0,0,0-.068-.178,9.894,9.894,0,0,0-.437-1.122,1.106,1.106,0,0,0-.067-.177c-.12-.261-.238-.534-.369-.795a.769.769,0,0,0-.082-.151c-.178-.4-.389-.805-.614-1.2a1.3,1.3,0,0,0-.09-.177q-.333-.613-.7-1.228a1.562,1.562,0,0,0-.1-.189l-.64-1.059a1.3,1.3,0,0,0-.091-.149c-.273-.446-.546-.891-.828-1.349a1.281,1.281,0,0,0-.1-.161c-.111-.175-.221-.362-.331-.536-.06-.094-.111-.174-.159-.267a1.622,1.622,0,0,1-.109-.186c-.21-.334-.4-.64-.589-.945a1.366,1.366,0,0,0-.139-.225c-.334-.567-.628-1.066-.883-1.485a1.316,1.316,0,0,1-.107-.183c-.645-1.057-1.019-1.618-1.123-1.532s.008.6.231,1.538" transform="translate(-603.067 -2433.403)" fill="#80bbb9"/>
    <path id="Path_54347" data-name="Path 54347" d="M631.277,2561.254c.017.051.033.114.049.177a5.2,5.2,0,0,0,.951,0,1.327,1.327,0,0,1-.107-.183,5.86,5.86,0,0,1-.892.006" transform="translate(-611.618 -2481.15)" fill="#238984"/>
    <path id="Path_54348" data-name="Path 54348" d="M641.036,2604.622a.591.591,0,0,0,.047.191,15.573,15.573,0,0,1,1.669.347,1.372,1.372,0,0,0-.139-.225,12.672,12.672,0,0,0-1.577-.313" transform="translate(-621.072 -2523.168)" fill="#238984"/>
    <path id="Path_54349" data-name="Path 54349" d="M651.658,2652.323a1.18,1.18,0,0,0,.028.166,7.827,7.827,0,0,1,2.055-.248,1.64,1.64,0,0,1-.109-.186,6.68,6.68,0,0,0-1.973.269" transform="translate(-631.362 -2569.117)" fill="#238984"/>
    <path id="Path_54350" data-name="Path 54350" d="M658.314,2684.315c.018.052.022.116.038.181a4.718,4.718,0,0,0,2.428-.64,1.3,1.3,0,0,0-.1-.161,4.6,4.6,0,0,1-2.365.62" transform="translate(-637.81 -2599.769)" fill="#238984"/>
    <path id="Path_54351" data-name="Path 54351" d="M668.475,2732.966a1.147,1.147,0,0,0,.037.2,5.256,5.256,0,0,1,1.551-.487,3.423,3.423,0,0,0,1.48-.53,1.3,1.3,0,0,0-.091-.149,3.49,3.49,0,0,1-1.414.486,5.526,5.526,0,0,0-1.562.485" transform="translate(-647.653 -2646.559)" fill="#238984"/>
    <path id="Path_54352" data-name="Path 54352" d="M678.741,2772a.7.7,0,0,0,.048.211,2.868,2.868,0,0,1,1.729-.628,2.758,2.758,0,0,0,1.709-.729,1.544,1.544,0,0,0-.1-.189,2.537,2.537,0,0,1-1.624.724,3.148,3.148,0,0,0-1.762.61" transform="translate(-657.598 -2684.017)" fill="#238984"/>
    <path id="Path_54353" data-name="Path 54353" d="M692.414,2817.67c.017.067.035.121.051.188a7.8,7.8,0,0,0,3.8-1.67,1.287,1.287,0,0,0-.09-.177,7.774,7.774,0,0,1-3.76,1.658" transform="translate(-670.844 -2727.949)" fill="#238984"/>
    <path id="Path_54354" data-name="Path 54354" d="M707.021,2861.979a1.093,1.093,0,0,1,.065.178,28.165,28.165,0,0,1,4.023-1.845.76.76,0,0,0-.082-.151,28.246,28.246,0,0,0-4.007,1.818" transform="translate(-684.994 -2770.719)" fill="#238984"/>
    <path id="Path_54355" data-name="Path 54355" d="M721.625,2892.56c.03.056.049.111.078.18a25.029,25.029,0,0,1,3.991-2.138,1.1,1.1,0,0,0-.067-.177,25.51,25.51,0,0,0-4,2.135" transform="translate(-699.141 -2800.036)" fill="#238984"/>
    <path id="Path_54356" data-name="Path 54356" d="M736.544,2933.9a1.233,1.233,0,0,0,.078.182,3.755,3.755,0,0,1,1.556-.844,11.932,11.932,0,0,0,2.473-1.1.732.732,0,0,0-.068-.178,12.115,12.115,0,0,1-2.459,1.083,4.055,4.055,0,0,0-1.58.853" transform="translate(-713.594 -2840.28)" fill="#238984"/>
    <path id="Path_54357" data-name="Path 54357" d="M753.594,2978.285c.042.072.072.128.1.186a7.91,7.91,0,0,0,3.933-1.605v-.013a1.27,1.27,0,0,1-.067-.193,7.775,7.775,0,0,1-3.97,1.626" transform="translate(-730.111 -2883.574)" fill="#238984"/>
    <path id="Path_54358" data-name="Path 54358" d="M636.11,3059.369a.483.483,0,0,1-.022.175c-.12,1.146-1.506,2.445-2.543,3.274a3.3,3.3,0,0,1-2.39.829h-9.419a3.3,3.3,0,0,1-2.39-.829c-1.037-.83-2.423-2.128-2.543-3.274a.482.482,0,0,1-.022-.175.3.3,0,0,1,.011-.1c.076-1.6,2.325-6.974,3.274-9.168a1.405,1.405,0,0,1,1.452-.96h9.856a1.4,1.4,0,0,1,1.451.96c.95,2.194,3.2,7.585,3.274,9.179a.272.272,0,0,1,.011.087" transform="translate(-597.575 -2953.792)" fill="#ffe2c8"/>
    <path id="Path_54359" data-name="Path 54359" d="M790.825,3063.647h-.338a12.324,12.324,0,0,1-1.866-3.885h-.011a1.238,1.238,0,0,1-.033-.273.936.936,0,0,1-.022-.24c0-1.386,1.059-7.705,1.473-10.106h.273c-.4,2.336-1.473,8.753-1.473,10.106a1.019,1.019,0,0,0,.022.251,1.287,1.287,0,0,0,.044.273,13.263,13.263,0,0,0,1.932,3.875" transform="translate(-763.979 -2953.792)" fill="#e5a583"/>
    <path id="Path_54360" data-name="Path 54360" d="M973.433,3059.248a1.024,1.024,0,0,1-.022.251.9.9,0,0,1-.044.284,12.264,12.264,0,0,1-1.877,3.864h-.338a12.99,12.99,0,0,0,1.943-3.864,1.284,1.284,0,0,0,.044-.273,1.108,1.108,0,0,0,.022-.262c0-1.353-1.07-7.771-1.484-10.106h.284c.415,2.4,1.473,8.72,1.473,10.106" transform="translate(-940.868 -2953.792)" fill="#e5a583"/>
    <path id="Path_54361" data-name="Path 54361" d="M636.11,3373.24a.485.485,0,0,1-.022.175c-.862.065-2.761.185-6.014.24H629.8c-.993.011-2.106.022-3.351.022q-2.259,0-3.962-.033a2.318,2.318,0,0,1-.273-.011h-.011c-2.914-.054-4.617-.153-5.4-.218a.484.484,0,0,1-.022-.175.3.3,0,0,1,.011-.1c.753.065,2.445.164,5.381.218a2.217,2.217,0,0,0,.273.011c1.146.021,2.477.032,4.005.032,1.266,0,2.39-.011,3.394-.022a2.318,2.318,0,0,0,.273-.011c3.263-.044,5.141-.153,5.981-.219a.275.275,0,0,1,.011.088" transform="translate(-597.575 -3267.663)" fill="#e5a583"/>
    <path id="Path_54362" data-name="Path 54362" d="M476.445,3519.41H357.2c-1.237,0-1.508-.875-1.508-1.953v-.61c0-1.079.236-1.953,1.508-1.953H476.447c1.284,0,1.464.874,1.464,1.953v.61c0,1.078-.23,1.953-1.467,1.953" transform="translate(-344.643 -3404.984)" fill="#4f4251"/>
    <path id="Path_54363" data-name="Path 54363" d="M3777.689,2830.5a.379.379,0,0,1-.336-.2.35.35,0,0,1,.168-.48,6.62,6.62,0,0,0,2.427-2.091c.874-1.223,1.135-2.488.65-3.148a1.259,1.259,0,0,0-1.3-.363,2.817,2.817,0,0,0-.994.505.391.391,0,0,1-.531-.034.346.346,0,0,1,.035-.5,3.578,3.578,0,0,1,1.31-.662,1.993,1.993,0,0,1,2.1.647c.673.916.42,2.47-.646,3.961a7.273,7.273,0,0,1-2.712,2.329.389.389,0,0,1-.168.038" transform="translate(-3659.308 -2735.168)" fill="#e5a583"/>
    <path id="Path_54364" data-name="Path 54364" d="M3519.842,2747.711c0,1.469-.06,2.958-.159,4.338a2.646,2.646,0,0,1-.01.278c-.04.645-.09,1.271-.149,1.856-.01.109-.02.208-.03.308-.09.953-.189,1.8-.278,2.471a2.018,2.018,0,0,1-.04.239c-.03.248-.059.477-.089.665-.01.089-.03.169-.04.238-.03.159-.05.278-.06.377-.05.248-.1.337-.3.417a13.842,13.842,0,0,1-3.742.268,15.076,15.076,0,0,1-3.732-.268c-.189-.069-.248-.179-.3-.417-.02-.1-.039-.228-.069-.387-.01-.069-.02-.149-.03-.238-.04-.189-.06-.407-.09-.655v-.01c-.01-.079-.02-.159-.03-.238-.089-.665-.179-1.489-.268-2.4-.01-.1-.02-.2-.03-.3-.059-.606-.109-1.241-.149-1.9a2.24,2.24,0,0,1-.02-.258c-.1-1.419-.168-2.928-.168-4.388a.451.451,0,0,1,.516-.5h8.755c.407,0,.507.219.507.5" transform="translate(-3400.413 -2661.303)" fill="#ffe2c8"/>
    <path id="Path_54365" data-name="Path 54365" d="M3516.361,3119.281h-10.106v-.9a.447.447,0,0,1,.5-.5h9.107a.438.438,0,0,1,.5.5Z" transform="translate(-3396.723 -3020.386)" fill="#ffb85d"/>
    <path id="Path_54366" data-name="Path 54366" d="M3545.922,2359.239c.123-1.846,5.357-2.631,5.311-5.859s-2.637-1.778-2.374-.624a.727.727,0,0,0,1.079.6.036.036,0,0,1,.042.058.914.914,0,0,1-1.56-.291c-.7-1.486.958-2.785,2.6-2.3a2.926,2.926,0,0,1,1.74,4.1c-.738,1.353-3.377,2.04-2.335,3.346s1.651,1.861,1.571,2.492c-.1.781-1.479,1.289-3.579.849-1.445-.3-2.563-1.36-2.5-2.362" transform="translate(-3435.147 -2277.197)" fill="#fff1e6"/>
    <path id="Path_54367" data-name="Path 54367" d="M3725.932,2533.33s-1.235-1.05-1.034-2.065a1.479,1.479,0,0,1,1.451-1.25c.664.036.817.671.014,1.18a1.673,1.673,0,0,0-.431,2.135" transform="translate(-3608.51 -2450.892)" fill="#fff1e6"/>
    <path id="Path_54368" data-name="Path 54368" d="M3524.909,2871.715a2.648,2.648,0,0,1-.01.278,1.248,1.248,0,0,1-.536-.526c-.178-.248-.337-.476-.645-.476-.387,0-.556.229-.745.487a1.141,1.141,0,0,1-.982.586,1.235,1.235,0,0,1-1.042-.616c-.188-.258-.347-.457-.665-.457-.337,0-.506.208-.694.457a1.235,1.235,0,0,1-1.042.616,1.217,1.217,0,0,1-1.062-.626c-.2-.248-.348-.447-.685-.447-.357,0-.526.229-.725.5a1.313,1.313,0,0,1-.6.536,2.186,2.186,0,0,1-.02-.258,1.193,1.193,0,0,0,.417-.417,1.1,1.1,0,0,1,.923-.605,1.044,1.044,0,0,1,.874.546,1.02,1.02,0,0,0,.874.526,1,1,0,0,0,.844-.516,1.1,1.1,0,0,1,.893-.556,1.07,1.07,0,0,1,.864.546.99.99,0,0,0,.844.526.91.91,0,0,0,.784-.487,1.1,1.1,0,0,1,.943-.585,1.038,1.038,0,0,1,.844.585,1.658,1.658,0,0,0,.347.387" transform="translate(-3405.639 -2780.969)" fill="#e5a583"/>
    <path id="Path_54369" data-name="Path 54369" d="M3529.979,2943.986c-.01.109-.02.208-.03.308a1.788,1.788,0,0,1-.357-.417c-.178-.258-.337-.477-.645-.477a.864.864,0,0,0-.744.477,1.149,1.149,0,0,1-.983.6,1.242,1.242,0,0,1-1.042-.626c-.189-.248-.347-.457-.665-.457-.338,0-.506.219-.695.467a1.2,1.2,0,0,1-2.1-.01c-.2-.258-.348-.457-.685-.457-.358,0-.526.238-.725.506a1.649,1.649,0,0,1-.417.457c-.01-.1-.02-.2-.03-.3a1.954,1.954,0,0,0,.248-.308,1.126,1.126,0,0,1,.924-.605,1.054,1.054,0,0,1,.874.556.963.963,0,0,0,1.717,0,1.1,1.1,0,0,1,.894-.556,1.08,1.08,0,0,1,.864.556,1.01,1.01,0,0,0,.844.526.9.9,0,0,0,.784-.5,1.112,1.112,0,0,1,.943-.576,1.02,1.02,0,0,1,.844.586c.07.089.129.179.189.248" transform="translate(-3410.867 -2851.105)" fill="#e5a583"/>
  </g>
</svg>
