<svg id="Group_118720" data-name="Group 118720" xmlns="http://www.w3.org/2000/svg" width="29.234" height="29.83" viewBox="0 0 29.234 29.83">
  <path id="Path_2412" data-name="Path 2412" d="M2190.9,1744.313a12.792,12.792,0,0,0-.315-3.049h-14v5.535h8.219a7.286,7.286,0,0,1-3.049,4.839l-.027.185,4.428,3.429.306.031a14.582,14.582,0,0,0,4.442-10.971" transform="translate(-2161.667 -1729.067)" fill="#3283fc"/>
  <path id="Path_2413" data-name="Path 2413" d="M2163.088,1764.637a14.216,14.216,0,0,0,9.876-3.613l-4.707-3.646a8.827,8.827,0,0,1-5.17,1.491,8.98,8.98,0,0,1-8.486-6.2l-.175.014-4.6,3.563-.06.167a14.9,14.9,0,0,0,13.324,8.22" transform="translate(-2148.173 -1734.807)" fill="#00ac47"/>
  <path id="Path_2414" data-name="Path 2414" d="M2152.991,1742.83a9.2,9.2,0,0,1-.5-2.95,9.653,9.653,0,0,1,.48-2.949l-.009-.2-4.661-3.62-.153.072a14.879,14.879,0,0,0,0,13.391l4.838-3.745" transform="translate(-2146.561 -1724.965)" fill="#fb0"/>
  <path id="Path_2415" data-name="Path 2415" d="M2163.088,1722.481a8.266,8.266,0,0,1,5.767,2.22l4.209-4.11a14.329,14.329,0,0,0-9.976-3.878,14.9,14.9,0,0,0-13.324,8.219l4.822,3.745a9.017,9.017,0,0,1,8.5-6.2" transform="translate(-2148.173 -1716.714)" fill="#fe2c25"/>
</svg>
