<svg xmlns="http://www.w3.org/2000/svg" width="186.537" height="89.949" viewBox="0 0 186.537 89.949">
  <g id="Logo" transform="translate(-739.754 -434.538)">
    <path id="Union_1" data-name="Union 1" d="M24.545,89.9c-5.359-.225-10.42-1.494-14.606-5.067A26.486,26.486,0,0,1,3.827,77.32,47.824,47.824,0,0,1,.2,69.455c-.436-1.327-.213-1.916,1.055-2.342a9.385,9.385,0,0,1,4.667-.247c1.355.243,1.893,1.5,2.325,2.6a22.8,22.8,0,0,0,5.493,8.587,16.892,16.892,0,0,0,9.395,4.446,24.635,24.635,0,0,0,10.748-.861A10.743,10.743,0,0,0,41.1,74.51,32.494,32.494,0,0,0,42.792,66.1c.245-2.9.149-5.784.154-8.674q.043-26.521.016-53.042C42.962,1.8,44.8-.225,47.078.02,49.1.238,49.891.8,50.2,3.128a67.766,67.766,0,0,1,.188,8.882q.046,21.525-.008,43.05c0,.895.226,1.094,1.1,1.089,6.625-.04,13.251-.022,19.931-.022A38.793,38.793,0,0,1,69.8,48.168a22.91,22.91,0,0,1,1.42-10.681A22.468,22.468,0,0,1,82.982,25.53,17.157,17.157,0,0,1,89.711,24a21.8,21.8,0,0,1,8.438,1.15,22.479,22.479,0,0,1,9.593,6.935,20.155,20.155,0,0,1,4.216,8.541,21.623,21.623,0,0,1,.183,8.4,58.574,58.574,0,0,1-1.7,7.093h1.819q12.7,0,25.41,0c1.179,0,1.263-.119.721-1.177a33.423,33.423,0,0,1-3.528-11.063A20.288,20.288,0,0,1,139.49,27.7,18.632,18.632,0,0,1,150.8,21.088a21.851,21.851,0,0,1,11.97,1.393,53.182,53.182,0,0,1,4.852,2.327c1.216.619,1.4,1.085.962,2.313-.16.453-.374.888-.576,1.324-.268.58-.282,1.529-.856,1.642-.516.1-1.169-.475-1.758-.761a31.2,31.2,0,0,0-7.086-2.8,15.846,15.846,0,0,0-11.824,1.852,12.762,12.762,0,0,0-5.772,7.1,19.679,19.679,0,0,0-.6,8.586,30.521,30.521,0,0,0,2.528,8.478c1.07,2.526,2.9,3.961,5.806,3.8,4.544-.255,9.092-.241,13.639-.228,2.455.007,4.91.014,7.364-.02.98-.014,1.186.278,1.126,1.173-.078,1.164-.039,2.338-.01,3.506.012.491-.111.735-.643.668a5.984,5.984,0,0,0-.743,0q-29.875,0-59.75.01a8.771,8.771,0,0,0-5.284,1.828A21.822,21.822,0,0,1,94.576,67.2a25.021,25.021,0,0,1-5.9.152,20.575,20.575,0,0,1-8.977-2.9c-1.3-.773-2.516-1.694-3.806-2.489a4.061,4.061,0,0,0-2.193-.534c-7.194.021-14.388.032-21.581-.011-.976-.006-1.163.4-1.307,1.236-.848,4.921-1.366,9.911-3.133,14.644a17.69,17.69,0,0,1-9.823,10.626,25.447,25.447,0,0,1-7.5,1.838,35.412,35.412,0,0,1-3.745.187C25.916,89.949,25.23,89.933,24.545,89.9ZM74.858,45.438C74.6,54.98,82.1,62.581,90.952,62.079a15.74,15.74,0,0,0,16.419-15.8A16.3,16.3,0,0,0,92.158,29.323q-.607-.039-1.2-.039C81.136,29.284,75.082,37.308,74.858,45.438Zm2.534,36.406A18.689,18.689,0,0,1,69.6,74.1a28.593,28.593,0,0,1-2.007-4.528c-.21-.617-.008-.655.445-.793a2.6,2.6,0,0,1,3.376,1.5,19.534,19.534,0,0,0,4.051,6.117,15.985,15.985,0,0,0,9.7,4.432,49.01,49.01,0,0,0,8.243.121c3.293-.2,6.645-.393,9.728-1.851a15.808,15.808,0,0,0,7.017-7.007c.369-.664.684-1.358,1.046-2.026a2.5,2.5,0,0,1,2.984-1.378c.5.12.81.372.6.968a22.936,22.936,0,0,1-5,8.623,21.418,21.418,0,0,1-10.621,5.716,49.234,49.234,0,0,1-7.751,1.069C86.425,84.8,81.72,84.118,77.392,81.844Zm70.37,1.92c-2.773-.035-5.546-.071-8.316-.009A1.545,1.545,0,0,1,137.81,82.1c-.016-4.251.005-8.5-.02-12.754,0-.59.211-.679.734-.692,2.682-.066,2.681-.081,2.681,2.559,0,2.587.035,5.173-.019,7.759-.018.873.281,1.187,1.127,1.184,1.553-.006,3.107,0,4.661.008,2.876.013,5.752.026,8.627-.043,3.217-.077,6.441-.278,9.637-.642a22.034,22.034,0,0,0,11.821-4.51,16.791,16.791,0,0,0,4.982-7.2,16.825,16.825,0,0,0-2.425-16.741,21.225,21.225,0,0,0-9.76-6.808c-1.744-.63-3.472-1.3-5.271-1.98,2.736-1.665,5.461-3.219,8.076-4.94a12.865,12.865,0,0,0,5.567-8.52,18.613,18.613,0,0,0-.515-9.985,14.341,14.341,0,0,0-7.176-8.167,29.054,29.054,0,0,0-9.826-3.008,95.5,95.5,0,0,0-13.514-.6c-1.721.006-3.443.011-5.164-.019-.678-.012-.869.289-.831.9.134,2.142-.151,4.284.183,6.435.324,2.094-1.044,3.713-3.369,4.268,0-4.716.012-9.421-.011-14.125,0-.846.526-.867,1.1-.869,1.475,0,2.946.079,4.421.174,2.117.136,4.252.094,6.376.021,2.863-.1,5.712.159,8.564.262,4.127.15,8.245.687,11.979,2.588,5.753,2.929,9.987,7.14,11.187,13.833a22.318,22.318,0,0,1-.549,10.731,17.417,17.417,0,0,1-7.306,9.574,4.122,4.122,0,0,0-.671.578c2.013,1.409,4.172,2.574,6.087,4.1a19.127,19.127,0,0,1,4.75,5.509,19.538,19.538,0,0,1,2.528,11.407A21.855,21.855,0,0,1,181.565,74.8a19.916,19.916,0,0,1-6.773,5.434,32.51,32.51,0,0,1-9.869,2.894,89.509,89.509,0,0,1-12.137.676C151.112,83.807,149.437,83.786,147.762,83.764ZM116.306,32.683c-.615-1.531-1.268-3.047-1.88-4.579-.935-2.344-1.239-4.859-1.934-7.268-2.125-7.36-6.551-12.415-14.238-14.264a34.114,34.114,0,0,0-10.372-.561A19.32,19.32,0,0,0,76.849,9.953a19.572,19.572,0,0,0-6.025,8.226C69.847,20.61,69.4,23.2,68.66,25.7a39.423,39.423,0,0,1-1.688,4.315c-.446,1.037-.994,2.029-1.5,3.041a36.491,36.491,0,0,1,.414-8.867A34.767,34.767,0,0,1,69.159,13.9,19.293,19.293,0,0,1,76.864,5.93a26.266,26.266,0,0,1,9.82-3.34A29.121,29.121,0,0,1,93.818,2.5a39.723,39.723,0,0,1,8.507,1.738,18.129,18.129,0,0,1,9.1,6.823,31.662,31.662,0,0,1,5.128,12.954c.529,2.808.759,5.642,1.052,8.474.058.559-.071.957-.677,1.014q-.045,0-.085,0C116.34,33.5,116.437,33.009,116.306,32.683Z" transform="translate(739.754 434.538)" fill="#070707"/>
  </g>
</svg>
