<svg xmlns="http://www.w3.org/2000/svg" xmlns:xlink="http://www.w3.org/1999/xlink" width="30" height="20" viewBox="0 0 30 20">
  <defs>
    <clipPath id="clip-path">
      <rect id="Rectangle_140" data-name="Rectangle 140" width="30" height="20" rx="2" fill="#fff"/>
    </clipPath>
  </defs>
  <g id="Mask_Group_1" data-name="Mask Group 1" clip-path="url(#clip-path)">
    <g id="sa">
      <g id="sa-2" data-name="sa">
        <rect id="Rectangle_141" data-name="Rectangle 141" width="30" height="20" fill="#006c35"/>
        <path id="Path_74" data-name="Path 74" d="M191.824,118.09a.154.154,0,0,0-.072.028.534.534,0,0,0-.225.377c0,.1-.023.1.042.161.047.067.094.061.188.011a.2.2,0,0,0,.091-.132c.022-.112-.118.053-.136-.072s.058-.164.144-.276C191.858,118.134,191.859,118.091,191.824,118.09Zm1.375.008c-.026,0-.059.037-.1.119a.5.5,0,0,0-.071.479.722.722,0,0,1-.066.95.236.236,0,0,1-.3.042.326.326,0,0,1-.182-.256,3.509,3.509,0,0,0-.028-.825.15.15,0,0,0-.25-.05,1.884,1.884,0,0,0-.453.93c-.07.226-.144.16-.2.069-.127-.119-.136-1.053-.29-.9-.246.7.141,1.475.41,1.4.194.08.317-.289.4-.693.054-.113.1-.126.124-.068-.007.537.039.657.177.82a.446.446,0,0,0,.583.01l.24-.24a.144.144,0,0,1,.2-.01c.073.067.064.181.221.261a.485.485,0,0,0,.479-.1c.088-.151.109-.2.15-.26.063-.084.17-.047.17-.02-.01.047-.073.093-.03.177.075.056.092.02.136.008.156-.075.274-.414.274-.414.007-.126-.065-.117-.111-.091s-.064.049-.124.086c-.076.011-.224.062-.3-.052a4.5,4.5,0,0,1-.132-.464c0-.01-.1-.216-.008-.23.047.009.147.035.163-.049.049-.082-.106-.313-.211-.43a.227.227,0,0,0-.339-.01c-.085.079-.073.166-.09.25a.39.39,0,0,0,.079.341,1.036,1.036,0,0,1,.189.689.276.276,0,0,1-.249.126c-.066-.014-.174-.043-.231-.466-.043-.32.011-.768-.125-.978-.031-.079-.057-.156-.1-.15Zm-.435.034c-.041,0-.087.051-.124.144a2.338,2.338,0,0,0-.064.438c-.025.109.114.156.178.015a1.34,1.34,0,0,0,.1-.477c-.015-.083-.051-.123-.092-.12Zm1.607.029c-.042,0-.076.029-.088.091a.958.958,0,0,0,.016.348,1.234,1.234,0,0,0,.2.3c.278.374.546.75.8,1.139.041.289.07.571.09.853a17.178,17.178,0,0,1,.016,2.035c.116,0,.3-.187.366-.467a13.573,13.573,0,0,0-.019-1.407c0-.095-.009-.208-.015-.327.3.492.593,1.013.879,1.585.1-.05.081-.638.02-.72-.229-.494-.546-.981-.647-1.168-.036-.068-.161-.257-.308-.474-.027-.311-.057-.574-.076-.654-.047-.329.135.037.11-.154a2.1,2.1,0,0,0-.454-.852c-.069-.1-.068-.118-.174.024a.627.627,0,0,0-.044.377c-.028-.041-.063-.089-.112-.149-.185-.158-.2-.167-.349-.3a.379.379,0,0,0-.211-.081Zm4.764.049c-.021,0-.043.007-.068.044a.287.287,0,0,0-.1.217c.012.173.043.35.054.524l.013.069a.679.679,0,0,0-.044-.052c-.337-.355.155-.058-.064-.332a2.629,2.629,0,0,0-.4-.391c-.08-.051-.128-.15-.154.018a3.3,3.3,0,0,0-.011.442.594.594,0,0,0,.132.275c.225.277.455.571.686.878.049.626.062,1.2.111,1.828-.007.268-.09.625-.168.659,0,0-.119.069-.2-.008a2.393,2.393,0,0,1-.29-.387.177.177,0,0,0-.283,0,3.9,3.9,0,0,0-.5.937c-.041.065-.156.12-.284-.005a1.322,1.322,0,0,1-.175-.913,1.01,1.01,0,0,0-.1.983.771.771,0,0,0,.358.408.251.251,0,0,0,.373-.04c.17-.176.172-.627.252-.717a.149.149,0,0,1,.265-.063.651.651,0,0,0,.242.209.407.407,0,0,0,.535.038.62.62,0,0,0,.285-.348,12.222,12.222,0,0,0,.023-1.963c.12.169.238.341.356.516a12.794,12.794,0,0,1,.058,1.607c-.012.1.36-.308.357-.5,0-.17,0-.324,0-.468.18.288.355.581.52.877.1-.054.067-.633,0-.713-.173-.29-.394-.6-.565-.845-.034-.306-.08-.667-.1-.777-.033-.172-.065-.431-.115-.636a2.173,2.173,0,0,1-.042-.36c.02-.057.1,0,.134-.064a2.292,2.292,0,0,0-.322-.9c-.046-.083-.128-.054-.231.081-.095.089-.06.292-.024.484.094.491.178.992.245,1.491-.123-.183-.273-.4-.421-.618,0-.021-.019-.1-.019-.1s-.02-.4-.038-.5c0-.038-.012-.049.028-.044a.229.229,0,0,0,.074.049c.043.008.08-.064.054-.131l-.4-.732A.11.11,0,0,0,199.135,118.209Zm-12.294.013c-.073,0-.154.043-.122.131-.018.048.143.21.172.3.025.063-.025.268.028.286s.116-.141.141-.291c.014-.082,0-.364-.188-.421a.156.156,0,0,0-.03,0Zm14,0c-.017,0-.037.029-.068.095a.877.877,0,0,0-.071.536,29.472,29.472,0,0,1,.342,3.481,1.128,1.128,0,0,1-.068.286,2.3,2.3,0,0,1-.334.39c-.111.082-.346.161-.423.222-.244.141-.245.3-.048.309a1.216,1.216,0,0,0,1.019-.486,1.621,1.621,0,0,0,.165-.63,14.686,14.686,0,0,0-.185-3.08,1.531,1.531,0,0,1-.033-.289c.022-.056.133.006.173-.059.058-.059-.288-.5-.409-.691-.024-.048-.039-.087-.061-.085Zm-3.565.019c-.014,0-.035.024-.073.074a1.664,1.664,0,0,0-.092.757,16.461,16.461,0,0,1,.454,3.645c.116,0,.249-.265.307-.527a4.472,4.472,0,0,0-.03-.795c-.009-.213-.241-1.938-.288-2.1-.057-.3.225-.04.194-.217-.1-.223-.34-.548-.416-.742-.029-.052-.032-.1-.056-.1Zm-8.681.024a.091.091,0,0,0-.069.071c-.007.027.012.071-.013.085s-.067,0-.064-.069a.124.124,0,0,0-.028-.063.055.055,0,0,0-.037-.009c-.023,0-.023.007-.035.026a.218.218,0,0,0-.013.062c0,.026-.013.035-.033.039s-.017,0-.034-.009-.023-.016-.023-.035a.207.207,0,0,0-.011-.066.07.07,0,0,0-.04-.023c-.091,0-.1.1-.092.144-.007.007-.01.192.114.243.166.079.477.046.464-.222,0-.024-.005-.1-.008-.125a.071.071,0,0,0-.078-.049Zm2.228,0a.371.371,0,0,0-.151.042.287.287,0,0,0-.049.38c.084.04.169.125.112.172-.239.255-.859.681-.891.758v0s0,0,0,0,0,0,0,0v0h.006a1.768,1.768,0,0,0,.463,0h0s0,0,0,0a6.534,6.534,0,0,0,.767-.773c-.033-.028-.063-.049-.1-.077s-.032-.06,0-.091a.251.251,0,0,0,.025-.384.409.409,0,0,0-.189-.038Zm5.823,0c-.017,0-.037.027-.068.093a1.063,1.063,0,0,0-.12.536c.162,1.123.212,2.105.318,3.228a.444.444,0,0,1-.079.329,3.165,3.165,0,0,1-1.071.781c-.045.051.112.266.315.266a1.2,1.2,0,0,0,.916-.733,1.307,1.307,0,0,0,.208-.563,12.284,12.284,0,0,0-.228-2.851.47.47,0,0,1,.01-.2c.022-.026.1,0,.136-.064.058-.059-.155-.551-.276-.741-.024-.048-.039-.085-.061-.083Zm-9.022.034a.149.149,0,0,0-.112.095,3.251,3.251,0,0,0,.011.526,5.75,5.75,0,0,1,.148.845c.011.4-.231.173-.219-.025a1.8,1.8,0,0,0-.009-.765c-.039-.1-.085-.128-.18-.111-.076,0-.272.209-.327.563a3.324,3.324,0,0,0-.066.343c-.027.183-.148.312-.232-.025-.073-.245-.118-.849-.24-.708-.035.472-.076,1.3.324,1.386.485.047.217-.819.392-.976.033-.078.095-.079.1.019v.736a.353.353,0,0,0,.275.36c.127-.01.211-.006.261.117q.03.636.061,1.273s.294.084.308-.715a7.478,7.478,0,0,1-.03-.955c0-.09.117-.094.2-.05.127.089.183.2.38.155.3-.083.48-.228.484-.458a2,2,0,0,0-.138-.656c.013-.04-.057-.143-.044-.183.054.084.135.077.154,0a.656.656,0,0,0-.259-.4c-.106-.093-.261-.074-.318.121a1.06,1.06,0,0,0,.245.708.694.694,0,0,1,.062.353.189.189,0,0,1-.246-.048s-.238-.178-.238-.218a.855.855,0,0,0-.021-.564.761.761,0,0,0-.158-.31c-.06-.063-.141-.063-.179,0a1.069,1.069,0,0,0,.02.751c.055.162.139.262.1.262-.033.091-.1.07-.15-.035a2.624,2.624,0,0,1-.085-.689c-.021-.181-.045-.569-.164-.667a.113.113,0,0,0-.106-.054Zm1.7,0c-.024,0-.051.017-.082.024a.24.24,0,0,0-.169.3c.122.74.2,1.3.323,2.045.019.087-.054.2-.148.189-.159-.108-.2-.326-.471-.317a.529.529,0,0,0-.449.423,1.026,1.026,0,0,0,0,.484.394.394,0,0,0,.449.111c.119-.049.218-.167.26-.139h0s0,0,0,0c.026.046,0,.43-.563.728-.344.155-.618.192-.766-.09-.091-.176.007-.845-.218-.69-.665,1.714,1.558,1.954,1.807.071.016-.053.065-.106.1-.093.015.006.029.027.034.066-.052,1.705-1.72,1.822-2,1.286a1.654,1.654,0,0,1-.1-.577.287.287,0,0,0-.068-.184c-.068-.051-.158.082-.178.312a2.067,2.067,0,0,0-.02.414c.089,1.347,2.236.768,2.585-.344a3.706,3.706,0,0,0,.054-1.062h.015c.213.23.512.029.578-.05a.1.1,0,0,1,.148-.014.345.345,0,0,0,.519-.148,4.666,4.666,0,0,0,.072-.638.647.647,0,0,0-.231.1.061.061,0,0,0-.016.03c-.009.061-.018.122-.028.183a.045.045,0,0,1-.005.014.059.059,0,0,1-.02.019c-.038.021-.105.009-.108-.047-.052-.234-.264-.265-.392.1-.087.07-.245.084-.261-.021.021-.244-.077-.276-.274-.161-.063-.482-.126-.943-.189-1.426.082,0,.157.057.232-.037a2.709,2.709,0,0,0-.349-.814h0l-.014-.014-.006-.005-.006,0-.013-.005a.065.065,0,0,0-.026,0Zm6.635,0c-.085,0-.179.051-.143.158-.021.058.183.255.216.363.059.166-.045.324.016.347s.136-.171.165-.353a.549.549,0,0,0-.22-.511.176.176,0,0,0-.035,0Zm-5.169.182a.125.125,0,0,1,.108.082c.024.054.012.105-.028.115s-.092-.026-.116-.079-.012-.106.028-.116Zm9.588.249a.125.125,0,0,0-.129.172c-.019.063.166.277.2.394.027.083-.041.351.015.376s.124-.185.151-.382c.015-.108-.065-.486-.2-.554a.142.142,0,0,0-.033-.005Zm-5.3.131c.007.032.014.063.019.1.016.07.03.139.044.208-.061-.084-.112-.152-.134-.177C194.875,118.836,195.017,118.893,195.084,118.873Zm1.221.6a.093.093,0,0,0-.069.072c-.007.027.013.07-.011.083s-.068.006-.066-.068a.128.128,0,0,0-.028-.064.055.055,0,0,0-.037-.009c-.023,0-.023.007-.035.027a.229.229,0,0,0-.013.062c0,.026-.012.035-.032.039s-.018,0-.035-.009-.023-.016-.023-.035a.208.208,0,0,0-.011-.066.069.069,0,0,0-.04-.021c-.091,0-.1.1-.091.143-.007.007-.011.193.112.245.166.079.479.044.466-.223,0-.024-.006-.1-.009-.125a.071.071,0,0,0-.078-.049Zm-5.576.056a.134.134,0,0,0-.078.024.342.342,0,0,0-.112.453.221.221,0,0,0,.238.077c.144.018.23-.27.23-.27s0-.081-.167.072c-.072.013-.082-.012-.1-.053a.358.358,0,0,1,.023-.226c.016-.045,0-.073-.034-.077Zm7.882.037a.186.186,0,0,0-.191.16c0,.066.03.1.024.161-.008.034-.044.057-.127.016.013-.012-.054-.107-.054-.107-.065-.04-.153,0-.209.039a.319.319,0,0,0-.019.254c.094.173.416.469.569.472,0-.156.018-.364.027-.493,0-.049.015-.1.062-.115s.128.047.129,0a.669.669,0,0,0-.085-.315.158.158,0,0,0-.125-.068Zm-6.525.544-.006,0,0,0a.806.806,0,0,1-.078.071c-.072.082-.085.139-.081.3,0,.017.137.387.25.647a2.007,2.007,0,0,1,.095.872,2.147,2.147,0,0,1-.881.921.46.46,0,0,1-.368,0h0a.228.228,0,0,1-.1-.209s0,0,0,0h0a2.075,2.075,0,0,0,.884-.915.936.936,0,0,0,.024-.659.626.626,0,0,0-.149-.305h0c.05-.024.178.071.2.011a.959.959,0,0,0-.254-.468.214.214,0,0,0-.312-.019c-.107.06-.13.273-.078.46.057.141.212.166.322.449,0,0,0,0,0,0,0,.018.038.212-.018.29a3.475,3.475,0,0,1-.664.623l0,0h-.008v0c0-.011,0-.04,0-.087,0-.085.032-.278.029-.312,0,0,0,0,0,0h0s0,0,0,0h0c-.191.123-.254.5-.289.613a9.061,9.061,0,0,0-1.349.921c-.165.257,1.135-.3,1.286-.362l0,0c.029.032.031.142.117.241a.687.687,0,0,0,.7.226,2.226,2.226,0,0,0,1.013-.843c.039-.057.1-.1.158-.058a1.587,1.587,0,0,0,1.437.754c.163-.2.085-.3.019-.337-.02-.014-.35-.142-.4-.27-.032-.119.046-.225.2-.3a7.062,7.062,0,0,0,1.326-.254,1.167,1.167,0,0,1,.146-.454.214.214,0,0,1,.074-.081h0v0a.042.042,0,0,0,0-.013l-.073-.043-1.442-.006a.154.154,0,0,1-.039-.02l0,0h0v0h0s0,0,0,0h0v0a.108.108,0,0,1,.045-.026c.344-.047.956-.147,1-.736a.483.483,0,1,0-.949.02c-.013.079.027.235-.054.252-.53.048-1.108.38-1.128.618h-.024a.138.138,0,0,1-.072-.146,2.844,2.844,0,0,0-.363-1.234c-.075-.075-.107-.1-.129-.108h-.01Zm1.38.217a.091.091,0,0,0-.069.071c-.007.027.013.071-.011.085s-.068.006-.066-.068a.128.128,0,0,0-.028-.064.051.051,0,0,0-.035-.009c-.023,0-.024.007-.037.027a.229.229,0,0,0-.013.062c0,.026-.012.035-.032.039s-.017,0-.034-.009-.024-.016-.024-.035a.209.209,0,0,0-.01-.066.072.072,0,0,0-.042-.021c-.091,0-.1.1-.091.143-.007.007-.011.193.112.245.166.079.562.033.465-.223,0-.024-.006-.1-.009-.125a.071.071,0,0,0-.078-.049Zm5.57.228a.027.027,0,0,0-.014,0s-.769.547-.788.566c-.076.068-.038.306,0,.279a3.063,3.063,0,0,0,.815-.565c.034,0,.05-.27-.013-.281Zm-4.843.081a.2.2,0,0,1,.112.03c.057.033.093.083.088.12,0,0,0,0,0,0l0,0v.009l-.008.009a.14.14,0,0,1-.151-.013.151.151,0,0,1-.088-.12v0a.043.043,0,0,1,.005-.013l0-.005h0l.006-.006a.072.072,0,0,1,.037-.014Zm-6.738.139a1.282,1.282,0,0,0-1,.809c.421-.2.834-.4,1.262-.606C187.651,120.875,187.716,120.782,187.456,120.775Zm1.292.179a.108.108,0,0,1,.1.074.129.129,0,0,1-.023.129s0,0,0,0v0c-.017.022-.076.013-.117.013a.114.114,0,0,1-.106-.052c-.015-.046.03-.091.049-.125h0l.009-.01a.132.132,0,0,1,.069-.03Zm10.139.159a.134.134,0,0,0-.107.183c-.019.063.1.283.126.4.027.083-.035.318.021.343s.188-.14.183-.349c.015-.108-.038-.505-.174-.573a.128.128,0,0,0-.049,0Zm-8.611.389c-.063,0-.119.038-.093.126,0,.064.177.142.188.29.026.061-.039.257.015.275s.118-.135.144-.28c.014-.079-.062-.357-.192-.406a.222.222,0,0,0-.062-.005Zm2.577.352h.016a4.468,4.468,0,0,0,.6.069c.167.011.25.142.093.2s-.3.094-.3.318a.308.308,0,0,1,0,.2l-.005.006h-.008l-.008,0h-.008c-.037.005-.09-.03-.13-.05a.818.818,0,0,1-.4-.59.15.15,0,0,1,.151-.156Zm-6.3.274c-.01,0-.03.03-.057.064a1.251,1.251,0,0,0-.127,1.11.277.277,0,0,0,.269.09.493.493,0,0,0,.179-.477c-.05-.078-.089-.09-.139-.024-.1.213-.149.067-.158-.052a2.732,2.732,0,0,1,.03-.6c.013-.084.013-.114,0-.114Zm8.081.5a.109.109,0,0,0-.056.011,1.008,1.008,0,0,0-.223.19c-.033.025-.029.046-.019.09.025.058.07.04.121.013.068-.009.1.035.095.116a.149.149,0,0,0,.014.145.112.112,0,0,0,.141.018,2.672,2.672,0,0,1,.487-.17c.059,0,.056-.16-.038-.165a.554.554,0,0,0-.357.108c-.075.017-.088-.028-.1-.069-.019-.1.043-.174.03-.25A.177.177,0,0,0,194.639,122.623Zm5.174.193c-.03,0-.062.005-.107.009s-.067.032-.076.092c0,.091.059.086.116.122a.1.1,0,0,1,0,.149c-.054.049-.092.077-.146.126-.025.043-.041.11.037.131.144.04.477-.176.477-.18a.106.106,0,0,0,.032-.117c-.031-.036-.1-.014-.15-.02-.023,0-.1-.011-.062-.077a.447.447,0,0,0,.061-.116c.022-.049,0-.083-.078-.11a.449.449,0,0,0-.1-.009Zm-2.161,4.376h0a.227.227,0,0,0-.078.419c-2.527,0-6.4-.043-7.236-.043-.465,0-1.937-.056-1.966-.056a1.491,1.491,0,0,0,1.371.565c1.122,0,6.323-.014,7.8-.014a.519.519,0,0,0,.092.542l.006,0,.01,0h0c.1.023.141-.048.174-.1a10.143,10.143,0,0,0,1.135,0h0c.055.081.11.159.216.145.184-.04.33-.06.334-.434,0,0-.019-.638-.438-.6-.1.015-.377.043-.377.043-.322-.038-.558-.042-.92-.056.033-.042.092-.214.02-.276a.117.117,0,0,0-.086-.021h-.009l-.006-.006,0,0c-.018-.027-.028-.092-.04-.108h-.008Zm.172.912h0c.369.018.715,0,1.084.021a.134.134,0,0,1-.009.184l-.006,0h-.01l-.309-.009a.07.07,0,0,0,0-.018c-.028-.084-.234-.079-.283-.013l0,0,0,.005,0,.006a.062.062,0,0,0,0,.009.056.056,0,0,0,0,.01,2.894,2.894,0,0,1-.469-.011C197.762,128.237,197.767,128.13,197.823,128.1Z" transform="translate(-178.773 -113.322)" fill="#fff" fill-rule="evenodd"/>
      </g>
    </g>
  </g>
</svg>
