<svg xmlns="http://www.w3.org/2000/svg" width="34.131" height="28.742" viewBox="0 0 34.131 28.742">
  <path id="Twitter" d="M400.525,706.347a13.7,13.7,0,0,1-4.45,1.758,6.874,6.874,0,0,0-5.111-2.29,7.132,7.132,0,0,0-7,7.255,7.481,7.481,0,0,0,.18,1.652,19.652,19.652,0,0,1-14.434-7.583,7.448,7.448,0,0,0-.948,3.651,7.326,7.326,0,0,0,3.115,6.039,6.82,6.82,0,0,1-3.173-.905v.089a7.2,7.2,0,0,0,5.62,7.115,6.606,6.606,0,0,1-1.845.255,6.726,6.726,0,0,1-1.318-.129,7.04,7.04,0,0,0,6.541,5.036,13.736,13.736,0,0,1-8.7,3.108,13.969,13.969,0,0,1-1.671-.1,19.35,19.35,0,0,0,10.734,3.257c12.882,0,19.923-11.055,19.923-20.643,0-.316-.006-.631-.018-.94a14.471,14.471,0,0,0,3.492-3.756,13.568,13.568,0,0,1-4.021,1.142A7.23,7.23,0,0,0,400.525,706.347Z" transform="translate(-367.336 -705.816)" fill="#2aa4ef"/>
</svg>
