<svg id="Group_6623" data-name="Group 6623" xmlns="http://www.w3.org/2000/svg" width="25.225" height="31.006" viewBox="0 0 25.225 31.006">
  <path id="Path_2410" data-name="Path 2410" d="M2172.466,1282.29a7.049,7.049,0,0,1,3.355-5.912,7.214,7.214,0,0,0-5.682-3.072c-2.392-.25-4.71,1.431-5.927,1.431-1.242,0-3.119-1.406-5.139-1.365a7.567,7.567,0,0,0-6.368,3.884c-2.754,4.768-.7,11.774,1.938,15.628,1.319,1.887,2.862,4,4.879,3.921,1.975-.082,2.714-1.26,5.1-1.26,2.362,0,3.053,1.26,5.113,1.211,2.12-.033,3.455-1.9,4.729-3.8a15.591,15.591,0,0,0,2.162-4.4A6.809,6.809,0,0,1,2172.466,1282.29Z" transform="translate(-2151.397 -1265.801)"/>
  <path id="Path_2411" data-name="Path 2411" d="M2177.476,1265.461a6.945,6.945,0,0,0,1.586-4.97,7.065,7.065,0,0,0-4.567,2.363,6.6,6.6,0,0,0-1.628,4.786A5.836,5.836,0,0,0,2177.476,1265.461Z" transform="translate(-2160.295 -1260.491)"/>
</svg>
